/* XPM */
/* -copyright-
#-# 
#-# plasmasnow: Let it snow on your desktop
#-# Copyright (C) 1984,1988,1990,1993-1995,2000-2001 Rick Jansen
#-# 	      2019,2020,2021,2022,2023 Willem Vermin
#-#          2024 Mark Capella
#-# 
#-# This program is free software: you can redistribute it and/or modify
#-# it under the terms of the GNU General Public License as published by
#-# the Free Software Foundation, either version 3 of the License, or
#-# (at your option) any later version.
#-# 
#-# This program is distributed in the hope that it will be useful,
#-# but WITHOUT ANY WARRANTY; without even the implied warranty of
#-# MERCHANTABILITY or FITNESS FOR A PARTICULAR PURPOSE.  See the
#-# GNU General Public License for more details.
#-# 
#-# You should have received a copy of the GNU General Public License
#-# along with this program.  If not, see <http://www.gnu.org/licenses/>.
#-# 
*/
XPM_TYPE *AltSantaRudolf3[] = {
/* columns rows colors chars-per-pixel */
"208 40 92 1 ",
"  c #171316",
". c #67261D",
"X c #056B02",
"o c #027C02",
"O c #10710D",
"+ c #34742C",
"@ c #095208",
"# c #70452E",
"$ c #626420",
"% c #726858",
"& c #79625D",
"* c #490669",
"= c #9E130F",
"- c #D60506",
"; c #C60000",
": c #E70201",
"> c #F90101",
", c #E80F15",
"< c #D3383C",
"1 c #D91C27",
"2 c #934E2C",
"3 c #B05830",
"4 c #BC6135",
"5 c #AC6026",
"6 c #9C7017",
"7 c #C35129",
"8 c #CB6633",
"9 c #D16834",
"0 c #CC602B",
"q c #BA3647",
"w c #EC3A6D",
"e c #FE3366",
"r c #EB396C",
"t c #D8364D",
"y c #AD485A",
"u c #B66D4A",
"i c #945A5F",
"p c #CD794A",
"a c #D15263",
"s c #008100",
"d c #4A8F34",
"f c #60A338",
"g c #51924E",
"h c #68B357",
"j c #76C765",
"k c #BBB715",
"l c #B48B30",
"z c #ADB72B",
"x c #98961B",
"c c #DB9B15",
"v c #DAAA1B",
"b c #FEB616",
"n c #FCAE13",
"m c #FFB724",
"M c #D2A724",
"N c #BAC116",
"B c #CCCC00",
"V c #C0C411",
"C c #D0D200",
"Z c #9A8C66",
"A c #DB824E",
"S c #F2CB6C",
"D c #617798",
"F c #0467CC",
"G c #000BF0",
"H c #FF37A2",
"J c #89799D",
"K c #6689B9",
"L c #688DB4",
"P c #47B6B8",
"I c #45ABB4",
"U c #4F93A4",
"Y c #729DCC",
"T c #729FD0",
"R c #6B9CCF",
"E c #72A0D1",
"W c #76A1CF",
"Q c #5E9DCD",
"! c #3DA5A6",
"~ c #979899",
"^ c #999EA3",
"/ c #DAA19F",
"( c #B0BBC9",
") c #B8EBF3",
"_ c #B5D1D3",
"` c #CCCCCD",
"' c #CAFDFE",
"] c #D5F3F5",
"[ c #ECEBEA",
"{ c #DFDBD9",
"} c #CBD095",
"| c None",
/* pixels */
"||||||||||||||||||||||||||||||||||||||||||||||||||||||||||||||||||||||||||||||||||||||||||||||||||||||||||||||||||||||||||||||||||||||||||||||||||||||||||||||||||||||||||||||||||||||||||||||||||||||||||||||||",
"||||||||||||||||||||||||||||||||||||||||||||||||||||||||||||||||||||||||||||||||||||||||||||||||||||||||||||||||||||||||||||||||||||||||||||||||||||||||||||||||||||||||||||||||||||||||||||||||||||||||||||||||",
"||||||||||||||||||||||||||||||||||||||||||||||||||||||||||||||||||||||||||||||||||||||||||||||||||||||||||||||||||||||||||||||||||||||||||||||||||||||||||||||||||||||||||||||||||||||||||||||||||||||||||||||||",
"||||||||||||||||||||||||||||||||||||||||||||||||||||||||||||||||||||||||||||||||||||||||||||||||||||||||||||||||||||||||||||||||||||||||||||||||||||||||||||||||||||||||||||||||||||||~^~~~~||||||||||||||||||||",
"||||||||||||||||||||||||||||||||||||||||||||||||||||||||||||||||||||||||||||||||||||||||||||||||||||||||||||||||||||||||||||||||||||||||||||||||||||||||||||||||||||||||||||||||||||||^~~~~^~|||||||||||||||||||",
"|||||||||||||||||||||||||||||||||||||||||||||||||||||||||||||||||||||||||||||||||||||||||||||||||||||||||||||||||||||||||||||||||||||||||||||||||||||||||||||||||||||||||||||||||||||||~~~~~||||||||||||||||||||",
"||||||||||||||||||||||||||||||||||||||||||||||||||||||||||||||||||||||||||||||||||||||||||||||||||||||||||||||||||||||||||||||||||||||||||||||||||||||||||||||||||||||||||||||||||||||||||||||||||||||||||||||||",
"||||||||||||||||||||||||||||||||||||||||||||||||||||||||||||||||||||||||||||||||||||||||||||||||||||||||||||||||||||||||||||||||||||||||||||||||||||||||||||||||||||||||||||||||||||||||||||||||||||||||||||||||",
"|||||||||||||||||||||||||||||||||||||||||||||||||||||||||||||||||||||||||||||||||||||||||||||||||||||||||||||||||||||||||||||||||||||||||||||||||||||||H||||||||||||||||||||||||||||||||||(````|||||||||||||||||",
"||||||||||||||||||||||||||||||||||||||||||||||||||||||||||||||||||||||||||||||||||||||||||||||||||||||||||||||||||||||||||||||||||||||||||||||||||||||||||||||||||||||||||||||||||||||||||(````(||||||||||||||||",
"||||||||||||||||||||||||||||||||||//|||||||||||||||||||||||||||||||||||||||||||||||||||||||||||||||||||||||||XOX|||XOX||||||||||||||||||||||||||||||||HHH>>|||||||||||||||||||||||||||||||||((||||||||||||||||||",
"||||||||||||||||||||||||||||||||||||/|||||||||||||||||||||||||||||||||||||||||||||||||||||||||||||||||||||||||X|OOO|XO|||||||||||||||||||||||||||||||||H||>||||||||||||||||uu8p88up4||||||||||||||||||||||||||||",
"||||||||||||||||||||||||||||||||||||/||||||||||||||||||||||||||||||||||||||||||||||||||||||||||||||||||||||||||OXOOXO||||||||||||||||||||||||||||||||||H|||||||||||||||||7<7777177777u||||||||||||||||||||||||||",
"||||||||||||||||||||||||||||||||||||^||||||||||||||||||||||||||||||||||||||||||||||||||||||||||||||||||||||||XXXX|XXXXX|||||||||||||||||||>|||||||||||HH|||||||||||||||||:>>>>>>>>>>:||||||||]{[[{||||||||||||||",
"|||||||||||||||||SS||||S|||||||||||/|||||||||||||||||||||||||||||||||||||||||||||||||||||||||||||||||||||||||OXOO|OXOO|||||||||||||||||||,||||||||||||HHH||||||||||||||||->yiii>>>>>:||||||||{[[{]||||||||||||||",
"|||||||||||||||||mmm||mm|||||||||;===-|||||||||||||||||||||||||||||||||||||||||||||||||||||||||||||||||||||||XXXX|XXXX|||||||||||||||||||>,||||||||||HHHHHH||||||||||||||:>JEWQ>yyy>:|||||||||`{{|||||||||||||||",
"|||||||||||||||||mnmbbbb|||||||||;;=.;=||||||||||||||||||||||||||||||||||||||||||||||||||||||||||||||||||||||XXXX|XXXX||||||||||||||||||||>,|||||HHHHHHHH|H||||||||||||||->JWWQ>TTL>:||||||||||_||||||||||||||||",
"|||||||||||||||ggAAmvvbbfh||||||||=a=||||||||||||||||||||||||||||||||||||||||||||||||||||||||||||||||||||||||XXXX|XXXX||||||||||||||||||||>|||||||HHHH|||||||||||||||||||:>JEEQ>YTY>:|||||||||||||||||||||||||||",
"|||||||||||||||}xnvghdfvbh}||||||||/=||||||||||||||||||||t>||[|||||||||||||||||||||||||||||||||||||||||||||||XXXX|XXXX||||||||||||||||||||>|||||||HH|||||||||||||||||||||:>JERR>YTY>:|||||||||     |||||||||||||",
"|||||||||||||||dfbzffdfvChh||||||||i||||||||||||||||||||{{[:||||||||||||||||||||||||||||||||||a||a|||||||||||XXXX|XXXX|||||||||||||||||||>:>||||||H||||||||||||||||||||||:>DQKU>KLL>:|||||||||l$$6l|||||||||||||",
"|||||||||||||||dfnzffddvChh||||||||/||||||||||||||||||||[9/{:||||||||||||||||||||||||||||||||<<|<<|||||||||||OoXX|XXXX||||||||||||||||||>:>>:,|||H|||||||||||||||||||||||:>>>>>>>>>>:|||||||||bbmbc|||||||||||||",
"|||||||||||||||gfnxfdddvvfh||||||||J|||||||||||||||||-=|{i{`||||||||||||||||||||||||||||||||t<<|<<||||||||||||||||||||||||||||||||||,:>>>>:>|||||H|||||||||||||||||||||||->>>>>>>>>>:|||||||||bbmbc|||||||||||||",
"|||||||||||||||+fnxddddlbfj||||||||||||||||||||||||||/[a[[{||||||||||||||||||||||||||||||||||7<|<<|||||||||||||||||||||||||||||||||||>:>:||||||||||||||||||||||||||||||||,>>>>>>>>>>:|||||||||bbbbc|||||||||||||",
"|||||||||||||||+$nx+d+dcvff|||||||||||||||||||||||||||7,//==|||||||||||||||||||||||||||||||||t<|<<|||||||||||||||||||||||||||||||||||:>||||||||||||||||||||||||||||||||||;----------=|||||||||ccccl|||||||||||||",
"||||||||rrra|||+$mxdd++Mvd||||||||||||||rrw|||||')])|| $$-=.=|||||||||||||||||||))))|||zVNN||<<|<<|||||||||||||||||||||zNkk||||IPPI||>|||||||||||||||||||||||||IPII||||@ssssssssosssssssssssssssoossX|||||||||||",
"||||||||eeww||||||x+++d||||||||||||||||awee|||||''''||:>;;Ai#.||||||||||||||||||''''|||zCCB||||||||||||||||||||||||||||NBBB||||PPPP|>||||||||||||||||||||||||||PPPP||||@sssssosssssssssssssssssssosoX|||||||||||",
"||||g|||eeew|||||||||||||||||||||||||||weee|||||''''||:>-.[;G.||||||||||||||||||''''|||zBBB|||||||||ll|||ll||||||||||||NBBB||||PPPP||||||||||||||||||||||||||||PPPI||||@sssssssossssssssosssosssssssX|||||||||||",
"||j}h$3|eeer|||||||||||||||||||||||||||aeee|||||''''||>>>>:.*.||||||||||||||||||''''|||zBBB|||||||||l|l|l|l||||||||||||NBBB||||PPPP||||||||||||||||||||||||||||PPPP||||@sssssssssssssososssssssossooX|||||||||||",
"|ghjg+#gteer|||||||||||||||||||||||||||aeee|||||''''||/>>:>y.|||||||||||||||||||''''|||zBBC||||||||||lllll|||||||||||||NCCB||||PPPP||||||||||||||||||||||||||||PPPP||||@ssssssssssooosssssoooossoooo@|||||||||||",
"||gg|gjjirrrwwwwwwwwwwwwwwwwwwwwrrwwwwwrwwe|||||''))'''''''']''])''')''')''')'')''')|||zVVNNVVNNVVVkMNNMNMkMVVVVVVVVkkVNVVN||||IPPPPPPPPPPIPPPPPPPPPPPPPPPPPPPPPPPI||||LLLKKKKKKKKKKKKKKKKKKKKKKKKKRLKi|||||||||",
"||||||!j&eeeeeeeeeeeeeeeeeeeeeeeeeeeeeeeeee|||||''''')'''''']'''''''''''''''''''''')|||zCBCNCCCBCBBBBBCCBBBBBCBBBBCBBBCBCBV||||PPPPPPPPPPPPPPPPPPPPPPPPPPPPPPPPPPPP||||WWTWTTEEEEYTYTTTETTYRTYTTTTEEWWy,||||||||",
"||||||gh%tr374qeeeeeeeeeeeeeeeeeeeqyqeeeeeepbmmS'')3p8^'''''''''''''''''''_Zi_'''''{mmmkCBv66xCCBBBBBBCBBBBBBBBBBBBx6xBBBBBmmbbPP!U%%IPPPPPPPPPPPPPPPPPPPP!%%UPPPPPbmmZWWUi&KEEEEL%%KWTTT%4u&YTYWTEEEWy>||||||||",
"||||||++#w39888qeeeeeeeeeeeeeeeee58883reeeea||||')48880('''''''''''''''''^4890~'''''|||zBk49996CBBBBBBBBBBBCBBBBCV58985NBBV||||PP%0994UPPPPPPPPPPPPPPPPPPg4897%PPPP||||Yi0888DR~&0884&TRi88p8iRFFFWWRYa:>|||||||",
"||||||||#y888887eeeeeeeeeeeeeeeeq988882eeee|||||'i900985'''''''''''''''''408899_''''|||zB389899xBCBBBBBBCNBBBBBBC6889096BBB||||PI899884PPPPPPPPPPPPPPPPPP4p8998UPPI||||L483884RL888884RL084388DFFFTLLKy:,1||||||",
"|||||||||2p9 288||||||||||||||||399 884||||||||||388 #93|||||||||||||||||08##08||||||||||892.482||||lllZlll||||||584 883||||||||#88.299||||||||||||||||||89#.88&|||||||#98 .8p|ZAA#%AA|upA##pp&FFF|300||||||||||",
"||||||||||89#484||||||||||||||||399 383||||||||||288.485|||||||||||||||||88.#98||||||||||89# 882||||lll|lll||||||293 888|||||||||89 298||||||||||||||||||89##48||||||||#98230p||AAupAp||AAAuAAZFFF%3 42|||||||||",
"||||||||||884882|||||||||||||||||999892|||||||||||88888||||||||||||||||||488988||||||||||299988||||||||||||||||||#999992|||||||||888888||||||||||||||||||49988A|||||||||888883||888884||299983|FFF|8#8||||||||||",
"|||||||||||3882||||||||||||||||||28992|||||||||||||388#|||||||||||||||||||8898||||||||||||39992|||||||||||||||||||29892||||||||||#9883||||||||||||||||||||5898||||||||||#8884||||8884||||2893|||||||2#||||||||||",
"||||||||||||||||||||||||||||||||||||||||||||||||||||||||||||||||||||||||||||||||||||||||||||||||||||||||||||||||||||||||||||||||||||||||||||||||||||||||||||||||||||||||||||||||||||||||||||||||||||||||||||||||",
"||||||||||||||||||||||||||||||||||||||||||||||||||||||||||||||||||||||||||||||||||||||||||||||||||||||||||||||||||||||||||||||||||||||||||||||||||||||||||||||||||||||||||||||||||||||||||||||||||||||||||||||||"
};
