/* XPM */
/* -copyright-
#-# 
#-# plasmasnow: Let it snow on your desktop
#-# Copyright (C) 1984,1988,1990,1993-1995,2000-2001 Rick Jansen
#-# 	      2019,2020,2021,2022,2023 Willem Vermin
#-#          2024 Mark Capella
#-# 
#-# This program is free software: you can redistribute it and/or modify
#-# it under the terms of the GNU General Public License as published by
#-# the Free Software Foundation, either version 3 of the License, or
#-# (at your option) any later version.
#-# 
#-# This program is distributed in the hope that it will be useful,
#-# but WITHOUT ANY WARRANTY; without even the implied warranty of
#-# MERCHANTABILITY or FITNESS FOR A PARTICULAR PURPOSE.  See the
#-# GNU General Public License for more details.
#-# 
#-# You should have received a copy of the GNU General Public License
#-# along with this program.  If not, see <http://www.gnu.org/licenses/>.
#-# 
*/
XPM_TYPE *AltSantaRudolf2[] = {
/* columns rows colors chars-per-pixel */
"208 40 92 1 ",
"  c #161417",
". c #563428",
"X c #6C1F1D",
"o c #056C02",
"O c #027C02",
"+ c #34772C",
"@ c #0D550C",
"# c #754B2B",
"$ c #775C57",
"% c #666769",
"& c #696B50",
"* c #5E0941",
"= c #AE0505",
"- c #951616",
"; c #D50709",
": c #CF0E09",
"> c #E20404",
", c #FA0101",
"< c #E80F15",
"1 c #D4383C",
"2 c #DF2727",
"3 c #DF2C31",
"4 c #914D2C",
"5 c #A9572D",
"6 c #B95C2D",
"7 c #AC5433",
"8 c #B86235",
"9 c #9E7416",
"0 c #C44925",
"q c #CB6633",
"w c #D16834",
"e c #C9622D",
"r c #B8354A",
"t c #EA3B6E",
"y c #FD3367",
"u c #D93555",
"i c #A45E5C",
"p c #CE454F",
"a c #DC5267",
"s c #008100",
"d c #3D8431",
"f c #4C9235",
"g c #58A63D",
"h c #6DA137",
"j c #5BA251",
"k c #75CA76",
"l c #BAB713",
"z c #B88B32",
"x c #B48729",
"c c #B2BC26",
"v c #94981C",
"b c #FFB615",
"n c #F4AD13",
"m c #FEB523",
"M c #DBA31B",
"N c #BCC217",
"B c #CBCC01",
"V c #CFD100",
"C c #C0C411",
"Z c #A59870",
"A c #E59A68",
"S c #D7C663",
"D c #657796",
"F c #0567CB",
"G c #2D1189",
"H c #FF36A2",
"J c #B8609C",
"K c #678BB9",
"L c #7492BA",
"P c #47B6B8",
"I c #46ADB5",
"U c #57919F",
"Y c #729ECE",
"T c #6F9ECF",
"R c #72A0D1",
"E c #76A1CF",
"W c #5D9DCC",
"Q c #3FABAC",
"! c #AAAFB4",
"~ c #939CAD",
"^ c #DAA9A2",
"/ c #E8D4A1",
"( c #A0B1C6",
") c #BAECF4",
"_ c #B6E7EE",
"` c #B0D8DE",
"' c #CACACC",
"] c #CAFDFE",
"[ c #D1FFFF",
"{ c #F2E6E2",
"} c #B0E194",
"| c None",
/* pixels */
"||||||||||||||||||||||||||||||||||||||||||||||||||||||||||||||||||||||||||||||||||||||||||||||||||||||||||||||||||||||||||||||||||||||||||||||||||||||||||||||||||||||||||||||||||||||||||||||||||||||||||||||||",
"||||||||||||||||||||||||||||||||||||||||||||||||||||||||||||||||||||||||||||||||||||||||||||||||||||||||||||||||||||||||||||||||||||||||||||||||||||||||||||||||||||||||||||||||||||||||||||||||||||||||||||||||",
"||||||||||||||||||||||||||||||||||||||||||||||||||||||||||||||||||||||||||||||||||||||||||||||||||||||||||||||||||||||||||||||||||||||||||||||||||||||||||||||||||||||||||||||||||||||||||||||||||||||||||||||||",
"||||||||||||||||||||||||||||||||||||||||||||||||||||||||||||||||||||||||||||||||||||||||||||||||||||||||||||||||||||||||||||||||||||||||||||||||||||||||||||||||||||||||||||||||||||||||D%%%%%||||||||||||||||||",
"||||||||||||||||||||||||||||||||||||||||||||||||||||||||||||||||||||||||||||||||||||||||||||||||||||||||||||||||||||||||||||||||||||||||||||||||||||||||||||||||||||||||||||||||||||||||%%%%%%U|||||||||||||||||",
"|||||||||||||||||||||||||||||||||||||||||||||||||||||||||||||||||||||||||||||||||||||||||||||||||||||||||||||||||||||||||||||||||||||||||||||||||||||||||||||||||||||||||||||||||||||||||%%%%%||||||||||||||||||",
"||||||||||||||||||||||||||||||||||||||||||||||||||||||||||||||||||||||||||||||||||||||||||||||||||||||||||||||||||||||||||||||||||||||||||||||||||||||||||||||||||||||||||||||||||||||||||||||||||||||||||||||||",
"||||||||||||||||||||||||||||||||||||||||||||||||||||||||||||||||||||||||||||||||||||||||||||||||||||||||||||||||||||||||||||||||||||||||||||||||||||||||||||||||||||||||||||||||||||||||||||||||||||||||||||||||",
"||||||||||||||||||||||||||||||||||||||||||||||||||||||||||||||||||||||||||||||||||||||||||||||||||||||||||||||||||||||||||||||||||||||||||||||||||||||||||||||||||||||||||||||||||||||||||||!!!!!|||||||||||||||",
"||||||||||||||||||||||||||||||||||||||||||||||||||||||||||||||||||||||||||||||||||||||||||||||||||||||||||||||||||||||||||||||||||||||||||||||||||||||||||||||||||||||||||||||||||||||||||||!!!!!!||||||||||||||",
"||||||||||||||||||||||||||||||||||||||||||||||||||||||||||||||||||||||||||||||||||||||||||||||||||||||||||||||||||||||||||||||||||||||||||||||||||||||||||||||||||||||||||||||||||||||||||||||!!||||||||||||||||",
"|||||||||||||||||||||||||||||||||||||||||||||||||||||||||||||||||||||||||||||||||||||||||||||||||||||||||||||||||||||||||||||||||||||||||||||||||||||||||||||||||||||||||||||iwwwqq8iw||||||||||||||||||||||||||",
"|||||||||||||||||||||||||||||||||||||||||||||||||||||||||||||||||||||||||||||||||||||||||||||||||||||||||||||||||||||||||||||||||||||||||||||||||||||||||||||||||||||||||||0e000010000ei||||||||||||||||||||||||",
"||||||||||||||||||||||||||||||||||||||||||||||||||||||||||||||||||||||||||||||||||||||||||||||||||||||||||||||||||||||||||||||||||||||||||||,||||||||||||||||||||||||||||||;,,,,,,,,,,>||||||||'''''||||||||||||",
"|||||||||||||||||||||||||||||||||||||||||||||||||||||||||||||||||||||||||||||||||||||||||||||||||||||||||||||||ooo|||ooo|||||||||||||||||||||||||||||||||||||||||||||||||||<,riii<,,,,>||||||||'''''||||||||||||",
"|||||||||||||||||||||||||||||||||||||||||||||||||||||||||||||||||||||||||||||||||||||||||||||||||||||||||||||||o||o|+||o|||||||||||||||||||<<||||||||||||||||||||||||||||||<,~RTW,iir,>|||||||||''(|||||||||||||",
"|||||||||||||||||||||||||||||||||||||||||||||||||||||||||||||||||||||||||||||||||||||||||||||||||||||||||||||||||oooooo|||||||||||||||||||||>,|||||||||||||||||||||||||||||>,~RRW,TTL,>||||||||||(||||||||||||||",
"|||||||||||||||||||||||||||||||||||||||||||||||||||||||||||||||||||||||||||||||||||||||||||||||||||||||||||||||oooo|oooo||||||||||||||||||||,||||||||||||||||||||||||||||||>,DRRW,RRT,>|||||||||||||||||||||||||",
"||||||||||||||||||||/A|||/|||||||||||||||||||||||||||||||||||||u2<|{{||||||||||||||||||||||||||||||||||||||||||oooo|oooo||||||||||||||||||||,||||||||||||H|||||||||||||||||>,~TRW,RRL,>|||||||||     |||||||||||",
"|||||||||||||||||||mnnSnmbb||||||||||||||||||||||||||||||||||||/{H:||||||||||||||||||||||||||||||||||||||||||||oooo|oooo|||||||||||||||||||,>,||||||||||H||||||||||||||||||<,DDWW,KKK,>|||||||||x&#9x|||||||||||",
"|||||||||||||||||||vmmbbnbVg||||||||^}||||||||||||||||||||||||''q{12|||||||||||||||||||||||||||up||u|||||||||||oooo|oooo||||||||||||||||||>,,>,<||||||||H||||||||||||||||||<,,,,,,,,,,>|||||||||nbbbM|||||||||||",
"|||||||||||||||||kjvMMcvNVbg}|||||||8|a||||||||||||||||||||;:|{~^{|||||||||||||||||||||||||||||ppp0||||||||||||oooo|oooo|||||||||||||||>>,,,,,|||||||||||HH,,||||||||||||||>,,,,,,,,,,>|||||||||bbbbM|||||||||||",
"|||||||||||||||||Zfbmghggvbgk|||||||||Z|||||||||||||||||||||{^^{{|||||||||||||||||||||||||||||111p11|||||||||||oooo|oooo|||||||||||||||,,,<||||||||||||||H||,||||||||||||||>,,,,,,,,,,>|||||||||bnbbM|||||||||||",
"|||||||||||||||||jfnMjjgjvbhh|||||||||H||||||||||||||||||||||;y^i-|||||||||||||||||||||||||||||11|11|||||||||||oooo|oooo|||||||||||||||,,||||||||||||||||H|||||||||||||||||=;;;:;;;;;;=|||||||||MMMM9|||||||||||",
"||||||||||yttJ|||f+nMggffvngg|||||||||i||Jttt|||||)))_||||||| vX--XX||||||||||||||)))_|||clNC||11p11||zz|||zz||oooo|oooo|cNlc||||IIIP||,||||||||||||||||HHH||||||IIPI||||@ssssssOsssssssssssssssOOOssOo|||||||||",
"||||||||||yyyt|||+fmnfff+hbjg||||||<=-r;|tyyy|||||]]]]|||||||,:-;{XX|||||||||||||_]]])|||cVCB||13p11||z||zz|z||||||||||||NBBB||||PPPP|,||||||||||||||||HHHHHH||||PPPI||||@ssssssOssssssssssssOsssOsssso|||||||||",
"||||||j||iyyyJ|||++nMffd+9mfh||||||=:-=;=uyyy|||||[]])|||||||,,=i^*G|||||||||||||`]]])|||cBVB||11|11|||zz|zzz||||||||||||NBBC||||PPPI||||||||||||||H|HHHHHH|H||||PPPP||||@sssssssssssssOsssssssOOssOOso|||||||||",
"||||kkf#4|yyyt|||++Mndf+fhmfg|||||||:=X=:tyyy|||||[[]]|||||||,,,,=*X|||||||||||||_]]])|||cBBV|||||||||zzx|xxzx|||||||||||NBBB||||PPPP|||||||||||||||HHHHH||||||||PPPP||||@ssssssssssOssssssssssssssssOo|||||||||",
"|||jkkf+&ftyya||||+mn+dd+hnj||||||||-ir-|tyyy|||||]][]||||||{1,,>1-X|||||||||||||_]]]_|||cVVB|||||||||zzx|zzz||||||||||||NVVB||||PPPP|||||||||||||||HH|||||||||||PPPP||||@OsssssssssssOsssOsssOOsssssO@|||||||||",
"||||jj|&kjrytttttyytapprpattttytytttttatttytt|||||])]__]_]])[]]][[]]])])_])]_]__))]]]_|||cCNCCCCCCNMCClCNMlllCCCCCCCCNCCCNCNN||||IPPPPPPPPPPPPPPPPPPLLPPPPPPPPPIPPPPI||||KKKKKKKKKKKKKKKKKKKKKKKKKKKKKKKi|||||||",
"||||||||Ukryyyyyyyyyyyyyyyyyyyyyyyyyyyyyyyyyy|||||]]]]]]]]]][[]]]]]]]]]]]]]][]]]]]]]]_|||cVBVBVBVVBBBBVVBBBBVBVBBBVBBBBBVBVBV||||PPPPPPPPPPPPPPPPPPPPPPPPPPPPPPPPPPPP||||EYYRERRRTETRRRYRYYRTTYYEEETETRRp2||||||",
"||||||||jj+yt7q7uyyyyyyyyyyyyyyyyyytr7ryyyyyyAmmmS]](7w5`]][][[]][][]]][]]][`iZ`]]][]'bmmNVVl99vVVBBVBBBBBVBBBBBBBBBB99vBBVVCmmmbPPIU&%IPPPPPPPPPPPPPPPPPPPPQ$&UPPPPIbmmZERD$$KREETD$$TYRRT$88$TTEEETERRr,||||||",
"||||||||++#u6qqweuyyyyyyyyyyyyyyyyt5wwq7yyyyy|||||['8wqq6`]]]]]]][][][]]]][Zewq8!]]]]]|||cVv6qwq9VVVBBBBBBBBBVBBBBBl5www5BBBB||||PP4qww6UPPPPPPPPPPPPPPPPPPjewwq%PPPI||||EiAAAA!(~Zqeq6DTTiwqwqiTFFFWYY~r,<|||||",
"|||||||||$.pqq8qw7yyyyyyyyyyyyyyyy7wwwwqryyyy|||||[4ww8ewi]]]][]]]]]]]]]]]_qeqwqe]]]])|||NV5wqqewvVVBVBBBVBBBBBVBVV9qqqqw9VVB||||PUqqwqq9PPPPPPPPPPPPPPPPPP8qwwwqIPPP||||U8e66e6~~AAAAAA(LzwwwqwDFFFTTULi<<3||||",
"|||||||||||8qq 5q5||||||||||||||||ee6 qw4||||||||||6q5 5q5||||||||||||||||$ww.4qe||||||||||qq4.qw4|||||||||||||||||6w8 qq8||||||||#ww.4qq||||||||||||||||||qw4.ww||||||||#wq Xwq||qw .wq||ww#%AA^FFF|5we||||||||",
"|||||||||||7qq.eq5||||||||||||||||eqq 8q5||||||||||4q8.qw5|||||||||||||||||eq.#we||||||||||qq..ww4|||||||||||||||||5w8 wq6||||||||4qw iqq||||||||||||||||||wq..wq||||||||#wq#8ww||qw48qe||wq44we|FFF$5 64|||||||",
"||||||||||||qqqqw|||||||||||||||||4wwwqq||||||||||||qqwqe||||||||||||||||||eqqwq8||||||||||6qwwqw||||||||||||||||||4wqwqq4|||||||||qwwww8||||||||||||||||||8qwwqe|||||||||qqqqw5||qqwqq8||5wqew5|FFF|q#q||||||||",
"|||||||||||||6w8|||||||||||||||||||4www4|||||||||||||6q6||||||||||||||||||||ewq6||||||||||||6qwq||||||||||||||||||||4wqw4||||||||||#eqw5||||||||||||||||||||8www||||||||||#qqw8||||qww6||||4qw4|||||||4#||||||||",
"||||||||||||||||||||||||||||||||||||||||||||||||||||||||||||||||||||||||||||||||||||||||||||||||||||||||||||||||||||||||||||||||||||||||||||||||||||||||||||||||||||||||||||||||||||||||||||||||||||||||||||||||",
"||||||||||||||||||||||||||||||||||||||||||||||||||||||||||||||||||||||||||||||||||||||||||||||||||||||||||||||||||||||||||||||||||||||||||||||||||||||||||||||||||||||||||||||||||||||||||||||||||||||||||||||||"
};
