/* XPM */
/* -copyright-
#-# 
#-# plasmasnow: Let it snow on your desktop
#-# Copyright (C) 1984,1988,1990,1993-1995,2000-2001 Rick Jansen
#-# 	      2019,2020,2021,2022,2023 Willem Vermin
#-#          2024 Mark Capella
#-# 
#-# This program is free software: you can redistribute it and/or modify
#-# it under the terms of the GNU General Public License as published by
#-# the Free Software Foundation, either version 3 of the License, or
#-# (at your option) any later version.
#-# 
#-# This program is distributed in the hope that it will be useful,
#-# but WITHOUT ANY WARRANTY; without even the implied warranty of
#-# MERCHANTABILITY or FITNESS FOR A PARTICULAR PURPOSE.  See the
#-# GNU General Public License for more details.
#-# 
#-# You should have received a copy of the GNU General Public License
#-# along with this program.  If not, see <http://www.gnu.org/licenses/>.
#-# 
*/
XPM_TYPE *AltSanta1[] = {
/* columns rows colors chars-per-pixel */
"208 40 92 1 ",
"  c #0D0D12",
". c #1E1A1E",
"X c #75060A",
"o c #653825",
"O c #523527",
"+ c #046A02",
"@ c #007B00",
"# c #12730F",
"$ c #30702B",
"% c #78432A",
"& c #5D6420",
"* c #4D4E4F",
"= c #69675C",
"- c #480A6E",
"; c #A51B19",
": c #D40708",
"> c #CA0C0F",
", c #FA0201",
"< c #EA0709",
"1 c #D4373D",
"2 c #CF1D25",
"3 c #904C2B",
"4 c #A7552C",
"5 c #B35A30",
"6 c #BB6135",
"7 c #AF6923",
"8 c #96711E",
"9 c #C45025",
"0 c #CB6633",
"q c #D26934",
"w c #CE622E",
"e c #D33A45",
"r c #DD396D",
"t c #FD3467",
"y c #EA3A6D",
"u c #E6305D",
"i c #945771",
"p c #A36053",
"a c #CC4B55",
"s c #E14F6B",
"d c #B63042",
"f c #008100",
"g c #3B8635",
"h c #509435",
"j c #68A437",
"k c #5CA455",
"l c #76CC77",
"z c #B9B712",
"x c #B7892B",
"c c #B88D33",
"v c #B1B929",
"b c #95A318",
"n c #C7AC17",
"m c #FEB615",
"M c #FDAF11",
"N c #FEB724",
"B c #DD9F1E",
"V c #BBC217",
"C c #CCCC00",
"Z c #C0C411",
"A c #EFAE7C",
"S c #D0A071",
"D c #FFC75E",
"F c #94B075",
"G c #687A95",
"H c #0367CC",
"J c #0E10CF",
"K c #FF36A2",
"L c #8A6D90",
"P c #FE45A9",
"I c #678BB8",
"U c #47B7B8",
"Y c #49AFB5",
"T c #569398",
"R c #729FCF",
"E c #6E9BCB",
"W c #72A1D2",
"Q c #72A3D3",
"! c #5A93C5",
"~ c #3EA3A3",
"^ c #95979A",
"/ c #AEB2B1",
"( c #9D9A9D",
") c #DAA698",
"_ c #BBEDF4",
"` c #ABD9E2",
"' c #CAFDFE",
"] c #D1FEFF",
"[ c #F3F3F3",
"{ c #E2DAD4",
"} c #ECC299",
"| c None",
/* pixels */
"||||||||||||||||||||||||||||||||||||||||||||||||||||||||||||||||||||||||||||||||||||||||||||||||||||||||||||||||||||||||||||||||||||||||||||||||||||||||||||||||||||||||||||||||||||||||||||||||||||||||||||||||",
"||||||||||||||||||||||||||||||||||||||||||||||||||||||||||||||||||||||||||||||||||||||||||||||||||||||||||||||||||||||||||||||||||||||||||||||||||||||||||||||||||||||||||||||||||||||||||||||||||||||||||||||||",
"||||||||||||||||||||||||||||||||||||||||||||||||||||||||||||||||||||||||||||||||||||||||||||||||||||||||||||||||||||||||||||||||||||||||||||||||||||||||||||||||||||||||||||||||||||||||||||||||||||||||||||||||",
"||||||||||||||||||||||||||||||||||||||||||||||||||||||||||||||||||||||||||||||||||||||||||||||||||||||||||||||||||||||||||||||||||||||||||||||||||||||||||||||||||||||||||||||||||||||||*****|||||||||||||||||||",
"|||||||||||||||||||||||||||||||||||||||||||||||||||||||||||||||||||||||||||||||||||||||||||||||||||||||||||||||||||||||||||||||||||||||||||||||||||||||||||||||||||||||||||||||||||||||=******||||||||||||||||||",
"||||||||||||||||||||||||||||||||||||||||||||||||||||||||||||||||||||||||||||||||||||||||||||||||||||||||||||||||||||||||||||||||||||||||||||||||||||||||||||||||||||||||||||||||||||||||=****|||||||||||||||||||",
"||||||||||||||||||||||||||||||||||||||||||||||||||||||||||||||||||||||||||||||||||||||||||||||||||||||||||||||||||||||||||||||||||||||||||||||||||||||||||||||||||||||||||||||||||||||||||||||||||||||||||||||||",
"||||||||||||||||||||||||||||||||||||||||||||||||||||||||||||||||||||||||||||||||||||||||||||||||||||||||||||||||||||||||||||||||||||||||||||||||||||||||||||||||||||||||||||||||||||||||||||||||||||||||||||||||",
"||||||||||||||||||||||||||||||||||||||||||||||||||||||||||||||||||||||||||||||||||||||||||||||||||||||||||||||||||||||||||||||||||||||||||||||||||||||||||||||||||||||||||||||||||||||||||||^^^^^|||||||||||||||",
"||||||||||||||||||||||||||||||||||||||||||||||||||||||||||||||||||||||||||||||||||||||||||||||||||||||||||||||||||||||||||||||||||||||||||||||||||||||||||||||||||||||||||||||||||||||||||||(^^^^|||||||||||||||",
"||||||||||||||||||||||||||||||||||||||||||||||||||||||||||||||||||||||||||||||||||||||||||||||||||||||||||||||||||||||||||||||||||||||||||||||||||||||||||||||||||||||||||||||||||||||||||||||^^||||||||||||||||",
"||||||||||||||||||||||||||||||||||||||||||||||||||||||||||||||||||||||||||||||||||||||||||||||||||||||||||||||||||||||||||||||||||||||||||||||||||||||||||||||||||||||||||||qp0q0606p|||||||||||||||||||||||||||",
"||||||||||||||||||||||||||||||||||||||||||||||||||||||||||||||||||||||||||||||||||||||||||||||||||||||||||||||||||||||||||||||||||||||||||||||||||||||||||||||||||||||||||599999919999p|||||||||||||||||||||||||",
"||||||||||||||||||||||||||||||||||||||||||||||||||||||||||||||||||||||||||||||||||||||||||||||||||||||||||||||||||||||||||||||||||||||||||||||||||||||||||||||||||||||||||:,,,,,,,,,,,||||||||/////|||||||||||||",
"||||||||||||||||||||||||||||||||||||||||||||||||||||||||||||||||||||||||||||||||||||||||||||||||||||||||||||||||||||||||||||||||||||||||||||||||||||||||||||||||||||||||||:,eLii2,,,,,||||||||/////|||||||||||||",
"||||||||||||||||||||||||||||||||||||||||||||||||||||||||||||||||||||||||||||||||||||||||||||||||||||||||||||||||||||||||||||||||||||||||||||||||||||||||||||||||||||||||||:,iQQQ22pi,,||||||||||//||||||||||||||",
"||||||||||||||||||||||||||||||||||||||||||||||||||||||||||||||||||||||||||||||||||||||||||||||||||||||||||||||||||||||||||||||||||||||||||||||||||||||||||||||||||||||||||:,iQQQ2iQQ>,|||||||||||/||||||||||||||",
"||||||||||||||||||||||||||||||||||||||||||||||||||||||||||||||||||||||||||||||||||||||||||||||||||||||||||||||||||||||||||||||||||||||||||||||||||||||||||||||||||||||||||:,iQQQ2iQQ2<||||||||||||||||||||||||||",
"||||||||||||||||||||||||||||||||||||||||||||||||||||||||||||||||||||a<||[||||||||||||||||||||||||||||||||||||||||||||||||||||||||||||||||||<||||||||||||P|||||||||||||||||:,iQQQ2iQQ>,|||||||||...  ||||||||||||",
"|||||||||||||||||||||||||||||||||||||||||||||||||||||||||||||||||||{{[<|||||||||||||||||||||||||||||||||||||||||||||||||||||||||||||||||||<|||||||||||||||||||||||||||||||:,i!E!2i!!2,|||||||||88&8c||||||||||||",
"|||||||||||||||||||||||||||||||||||||||||||||||||||||||||||||||||||[s}{,||||||||||||||||||||||||||||||||||||||+|#|||#|+|||||||||||||||||||<|||||||||||||K|||||||||||||||||:,,,,,,,,,,,|||||||||BNNmM||||||||||||",
"|||||||||||||||||||}D|||DD|||||||||||||()|||||||||||||||||||||||:;|[3{{||||||||||||||||||||||||||||||||||||||||+|##+|+||||||||||||||||||||<,,|||||||||||KK||||||||||||||||:,,,,,,,,,,,|||||||||BNMmm||||||||||||",
"|||||||||||||||||||NMNNBNM||||||||||||||)|||||||||||||||||||||||)[d[[[|||||||||||||||||||||||||||||||c|c||c|c||###|###|||||||||||||||||||||<||||||||||||KK||||||||||||||||:,,,,,,,,,,,|||||||||BMMmm||||||||||||",
"||||||||||||||||||hBMMMMMMgj||||||||||||)||||||||||||||||||||||||2<));X||||||||||||||||||||||||||||||||cccc|||++++|++++||||||||||||||||||||,||||||||||||KK||||||||||||||||;:::::::::::|||||||||7BBBB||||||||||||",
"|||||||||yryr|||kFjcNvjbnmVl|||||||;:||aLyyys||||___`|||||||||||| &&:;;X|||||||||___`||||VVVv||a|a|||cxxccxxx|+##+|##+#|vzZV||||~UYU||||||<,||||||||||||KK||||||YYYY|||||fffffff@fffffffffffffff+ffff+||||||||||",
"|||||||||ttty|||FkbMbjjhjmZk|||||||:;;)|ytttr||||'''_||||||||||||<,>;aiOX||||||||]''_||||CCCveeea11||ccxc|xcc|++++|++++|vCCC||||UUUU|||||,,,<<<||||||||KKKKK||||UUUU|||||fffffff@ffffffffffffffff@@ff+||||||||||",
"|||||k||ayttt|||khbNjkjghMVj|||||||;X;;|ytttr||||''''||||||||||||<,<X{dJX||||||||'''_||||CCCv|19|11||xxxccxxx|++++|++++|VCCC||||UUUUi||,,,,<,,||||K|KKKKKKKP||||UUUU|||||@fffffffffff@f@ffff@ffff@ff@+||||||||||",
"|||Flk&6attts|||hhbmjjhhhmvh|||||||di;:|rtttr||||'''_||||||||||||<,,,,X-X||||||||'']_||||CCCv|e1e11||xxxxxxxx|++++|++++|VCCC||||UUUU|<,,,<,<|||||||PKKKKK||K||||UUUU|||||ffff@f@fffffff@ffffffffffff@+||||||||||",
"||$llk$*=uytt|||g$bMjjhghmvk||||||))>>;;ytttr||||'''_||||||||||||},,<<aX|||||||||]''_||||CCCv|11e11||xxxcxxxx|+@+@|++++|VCCC||||UUUU||,,|||||||||||PKK||||||||||UUUU|||||@+@@f@@ff@fff@@ff@@@f@ff@f@f+||||||||||",
"|||kk||ll%yyyyytaaasaaaaasassyyytrsrruuyyyyys||||_''_'_'_''_'_''']]''''''''__'_'_'''_||||ZZCZZnnnnnnZZZnzVVnVVbbbbVbbbbVZCZZ||||UUUUYYTTUUUYUUYUUUUIIYYYUUUUUUUUUUUU||||IEIEIIIIIIIIIIIIIIIIIIIIIIIIIIIL||||||||",
"|||||||llittttttttttttttttttttttttttyttttttty||||'''''''''''''']''''']'''''''']'''''_||||CCCCCCCCCCCCCCCCCCCCCCCCCCCCCCCCCCC||||UUUUUUUUUUUUUUUUUUUUUUUUUUUUUUUUUUUU||||WWERWWWRQRWQWWWRWRREEQQRWWRRRRWL |||||||",
"|||||||hkhuu405dtttttttttttttttttttd4dttttttsNNNm']`p65/]'''''']'']'''']'''`Fi`]''''{MNmnCCZ88xCCCCCCCCCCCCCCCCCCCCCb88CCCCCVNNNYUU~=p~UUUUUUUUUUUUUUUUUUUUU==kUUUUUSmNBWWI==GWWRRI==GWRWWG50%ERRRRRRWWL..||||||",
"|||||||$$*u50q00ettttttttttttttttt400q4utttts||||''5wwq5/''''']'''''''''']/wqq9(]'''_||||Cz5q007CCCCCCCCCCCCCCCCCCC700q6zCCC||||UU=00q6kYUUUUUUUUUUUUUUUUU~5q0wpUUUU||||EGwqww=ERG70q5pREGqw0q4EHHH!QQQL  ||||||",
"||||||||=&dq06004ttttttttttttttttd0000qdttttr||||'F900w06''''''']']]']'''`7qwqw5_]''_||||C700000xCCCCCCCCCCCCCCCCCnq0q007CCC||||UT000006UUUUUUUUUUUUUUUUUU500000TUUU||||I6ww0qqII5www0wTR4w06ww=HHH!IIIL   |||||",
"||||||||||400 30w||||||||||||||||406 006||||||||||30a 400|||||||||||||||||qw3Oq0=|||||||||006Oqq3|||||||||||||||||30q.605|||||||||0qo%00||||||||||||||||||005.qq3||||||||AASS)A}})AAS)A)}AAAS)AAHHH/pq03||||||||",
"||||||||||3q6o406||||||||||||||||3w6.5w6||||||||||30qo606|||||||||||||||||ww%.0w||||||||||6q3 qq3|||||||||||||||||40q.5q5|||||||||00oO00||||||||||||||||||0q4.qq3||||||||9w34ww||ww4owwo|494oww3HHH|6 o5||||||||",
"|||||||||||00000%|||||||||||||||||qqqqq3|||||||||||000qq3|||||||||||||||||5qqqw6||||||||||5q0q00|||||||||||||||||||00q0w4|||||||||00w0q6||||||||||||||||||500qqq|||||||||6q0000||6qwq00||300000|HHH|5364||||||||",
"||||||||||||4qw%||||||||||||||||||3q0q4|||||||||||||500%|||||||||||||||||||0qqq||||||||||||4qq0%|||||||||||||||||||30004|||||||||||0000||||||||||||||||||||4q0q%||||||||||6000||||60w0%|||%0q4|||||||43|||||||||",
"||||||||||||||||||||||||||||||||||||||||||||||||||||||||||||||||||||||||||||||||||||||||||||||||||||||||||||||||||||||||||||||||||||||||||||||||||||||||||||||||||||||||||||||||||||||||||||||||||||||||||||||||",
"||||||||||||||||||||||||||||||||||||||||||||||||||||||||||||||||||||||||||||||||||||||||||||||||||||||||||||||||||||||||||||||||||||||||||||||||||||||||||||||||||||||||||||||||||||||||||||||||||||||||||||||||"
};
