/* XPM */
/* -copyright-
#-# 
#-# plasmasnow: Let it snow on your desktop
#-# Copyright (C) 1984,1988,1990,1993-1995,2000-2001 Rick Jansen
#-# 	      2019,2020,2021,2022,2023 Willem Vermin
#-# 
#-# This program is free software: you can redistribute it and/or modify
#-# it under the terms of the GNU General Public License as published by
#-# the Free Software Foundation, either version 3 of the License, or
#-# (at your option) any later version.
#-# 
#-# This program is distributed in the hope that it will be useful,
#-# but WITHOUT ANY WARRANTY; without even the implied warranty of
#-# MERCHANTABILITY or FITNESS FOR A PARTICULAR PURPOSE.  See the
#-# GNU General Public License for more details.
#-# 
#-# You should have received a copy of the GNU General Public License
#-# along with this program.  If not, see <http://www.gnu.org/licenses/>.
#-# 
*/
XPM_TYPE *AltSanta2[] = {
/* columns rows colors chars-per-pixel */
"208 40 92 1 ",
"  c #060608",
". c #201C1F",
"X c #563428",
"o c #6C1F1D",
"O c #056C02",
"+ c #027C02",
"@ c #34772C",
"# c #0D550C",
"$ c #754B2B",
"% c #775C57",
"& c #666769",
"* c #696B50",
"= c #5E0941",
"- c #AE0505",
"; c #951616",
": c #D50709",
"> c #CF0E09",
", c #E20404",
"< c #FA0101",
"1 c #E80F15",
"2 c #D4383C",
"3 c #DF2727",
"4 c #E53C3B",
"5 c #914D2C",
"6 c #A9572D",
"7 c #B95C2D",
"8 c #AC5433",
"9 c #B86235",
"0 c #9E7416",
"q c #C44925",
"w c #CB6633",
"e c #D16834",
"r c #C9622D",
"t c #B8354A",
"y c #EA3B6E",
"u c #FD3367",
"i c #D93555",
"p c #A45E5C",
"a c #CE454F",
"s c #DC5267",
"d c #008100",
"f c #3D8431",
"g c #4C9235",
"h c #58A63D",
"j c #6DA137",
"k c #5BA251",
"l c #75CA76",
"z c #BAB713",
"x c #B6892E",
"c c #B2BC26",
"v c #94981C",
"b c #FFB615",
"n c #F4AD13",
"m c #FEB523",
"M c #DBA31B",
"N c #BCC217",
"B c #CBCC01",
"V c #CFD100",
"C c #C0C411",
"Z c #A59870",
"A c #E59A68",
"S c #D7C663",
"D c #657796",
"F c #0567CB",
"G c #2D1189",
"H c #FF36A2",
"J c #B8609C",
"K c #678BB9",
"L c #7492BA",
"P c #47B6B8",
"I c #46ADB5",
"U c #57919F",
"Y c #729ECE",
"T c #6F9ECF",
"R c #72A0D1",
"E c #76A1CF",
"W c #5D9DCC",
"Q c #3FABAC",
"! c #AAAFB4",
"~ c #939CAD",
"^ c #DAA9A2",
"/ c #E8D4A1",
"( c #A0B1C6",
") c #BAECF4",
"_ c #B6E7EE",
"` c #B0D8DE",
"' c #CACACC",
"] c #CAFDFE",
"[ c #D1FFFF",
"{ c #F2E6E2",
"} c #B0E194",
"| c None",
/* pixels */
"||||||||||||||||||||||||||||||||||||||||||||||||||||||||||||||||||||||||||||||||||||||||||||||||||||||||||||||||||||||||||||||||||||||||||||||||||||||||||||||||||||||||||||||||||||||||||||||||||||||||||||||||",
"||||||||||||||||||||||||||||||||||||||||||||||||||||||||||||||||||||||||||||||||||||||||||||||||||||||||||||||||||||||||||||||||||||||||||||||||||||||||||||||||||||||||||||||||||||||||||||||||||||||||||||||||",
"||||||||||||||||||||||||||||||||||||||||||||||||||||||||||||||||||||||||||||||||||||||||||||||||||||||||||||||||||||||||||||||||||||||||||||||||||||||||||||||||||||||||||||||||||||||||||||||||||||||||||||||||",
"||||||||||||||||||||||||||||||||||||||||||||||||||||||||||||||||||||||||||||||||||||||||||||||||||||||||||||||||||||||||||||||||||||||||||||||||||||||||||||||||||||||||||||||||||||||||&&&&&&||||||||||||||||||",
"||||||||||||||||||||||||||||||||||||||||||||||||||||||||||||||||||||||||||||||||||||||||||||||||||||||||||||||||||||||||||||||||||||||||||||||||||||||||||||||||||||||||||||||||||||||||&&&&&&D|||||||||||||||||",
"|||||||||||||||||||||||||||||||||||||||||||||||||||||||||||||||||||||||||||||||||||||||||||||||||||||||||||||||||||||||||||||||||||||||||||||||||||||||||||||||||||||||||||||||||||||||||D&&&&||||||||||||||||||",
"||||||||||||||||||||||||||||||||||||||||||||||||||||||||||||||||||||||||||||||||||||||||||||||||||||||||||||||||||||||||||||||||||||||||||||||||||||||||||||||||||||||||||||||||||||||||||||||||||||||||||||||||",
"||||||||||||||||||||||||||||||||||||||||||||||||||||||||||||||||||||||||||||||||||||||||||||||||||||||||||||||||||||||||||||||||||||||||||||||||||||||||||||||||||||||||||||||||||||||||||||||||||||||||||||||||",
"||||||||||||||||||||||||||||||||||||||||||||||||||||||||||||||||||||||||||||||||||||||||||||||||||||||||||||||||||||||||||||||||||||||||||||||||||||||||||||||||||||||||||||||||||||||||||||!!!!!|||||||||||||||",
"||||||||||||||||||||||||||||||||||||||||||||||||||||||||||||||||||||||||||||||||||||||||||||||||||||||||||||||||||||||||||||||||||||||||||||||||||||||||||||||||||||||||||||||||||||||||||||!!!!!!||||||||||||||",
"||||||||||||||||||||||||||||||||||||||||||||||||||||||||||||||||||||||||||||||||||||||||||||||||||||||||||||||||||||||||||||||||||||||||||||||||||||||||||||||||||||||||||||||||||||||||||||||!!||||||||||||||||",
"|||||||||||||||||||||||||||||||||||||||||||||||||||||||||||||||||||||||||||||||||||||||||||||||||||||||||||||||||||||||||||||||||||||||||||||||||||||||||||||||||||||||||||||pewewe9pe||||||||||||||||||||||||||",
"|||||||||||||||||||||||||||||||||||||||||||||||||||||||||||||||||||||||||||||||||||||||||||||||||||||||||||||||||||||||||||||||||||||||||||||||||||||||||||||||||||||||||||qrqqqq2qqqqrp||||||||||||||||||||||||",
"||||||||||||||||||||||||||||||||||||||||||||||||||||||||||||||||||||||||||||||||||||||||||||||||||||||||||||||||||||||||||||||||||||||||||||<||||||||||||||||||||||||||||||:<<<<<<<<<<,||||||||'''''||||||||||||",
"|||||||||||||||||||||||||||||||||||||||||||||||||||||||||||||||||||||||||||||||||||||||||||||||||||||||||||||||OOO|||OOO|||||||||||||||||||||||||||||||||||||||||||||||||||1<tppp1<<<<,||||||||'''''||||||||||||",
"|||||||||||||||||||||||||||||||||||||||||||||||||||||||||||||||||||||||||||||||||||||||||||||||||||||||||||||||O||O|@||O|||||||||||||||||||11||||||||||||||||||||||||||||||1<~RTW<ppt<,|||||||||('`|||||||||||||",
"|||||||||||||||||||||||||||||||||||||||||||||||||||||||||||||||||||||||||||||||||||||||||||||||||||||||||||||||||OOOOOO|||||||||||||||||||||,<|||||||||||||||||||||||||||||,<~RRW<TTL<,||||||||||(||||||||||||||",
"|||||||||||||||||||||||||||||||||||||||||||||||||||||||||||||||||||||||||||||||||||||||||||||||||||||||||||||||+OOO|OOOO||||||||||||||||||||<||||||||||||||||||||||||||||||,<DRRW<RRT<,|||||||||||||||||||||||||",
"||||||||||||||||||||/A|||/|||||||||||||||||||||||||||||||||||||i31|{{||||||||||||||||||||||||||||||||||||||||||OOOO|OOOO||||||||||||||||||||<||||||||||||H|||||||||||||||||,<~TRW<RRL<,|||||||||... .|||||||||||",
"|||||||||||||||||||mnnSnmbb||||||||||||||||||||||||||||||||||||/{H>||||||||||||||||||||||||||||||||||||||||||||OOOO|OOOO|||||||||||||||||||<<1||||||||||H||||||||||||||||||1<DDWW<KKK<,|||||||||v$$0x|||||||||||",
"|||||||||||||||||||vmmbbnbVh||||||||^}||||||||||||||||||||||||''w{23|||||||||||||||||||||||||||ia||a|||||||||||OOOO|OOOO||||||||||||||||||<<,<<<||||||||H||||||||||||||||||1<<<<<<<<<<,|||||||||bbbbM|||||||||||",
"|||||||||||||||||lkvMMcvNVbh}|||||||9|s||||||||||||||||||||:>|{~^{|||||||||||||||||||||||||||||ai4a||||||||||||OOOO|OOOO|||||||||||||||<,<,<,<|||||||||||HH||||||||||||||||,<<<<<<<<<<,|||||||||bbbbM|||||||||||",
"|||||||||||||||||Zgbmhjhhvbhl|||||||||Z|||||||||||||||||||||{^^{{|||||||||||||||||||||||||||||222aq4|||||||||||OOOO|OOOO|||||||||||||||<<<1||||||||||||||H|||||||||||||||||,<<<<<<<<<<,|||||||||nnbbM|||||||||||",
"|||||||||||||||||kgnMkkhkvbjj|||||||||H||||||||||||||||||||||:u^p;|||||||||||||||||||||||||||||22|22|||||||||||OOOO|OOOO|||||||||||||||,<||||||||||||||||H|||||||||||||||||-:::>::::::-|||||||||MMMM0|||||||||||",
"||||||||||uyyJ|||g@nMhhggvnhh|||||||||p||Jyyy|||||)))_||||||| vo;;oo||||||||||||||)))_|||czNC||22a22||xx|||xx||OOOO|OOOO|cNzc||||IIPI||<||||||||||||||||HHH||||||IIPI||||#dddddd+ddddddddddddddd+++dd+O|||||||||",
"||||||||||uuuy|||@gmnggg@jbkh||||||1-;t:|yuuu|||||]]]]|||||||<>;:{oo|||||||||||||_]]])|||cVCB||24a22||x||xx|x||||||||||||NBBB||||PPPP|<||||||||||||||||HHHHHH||||PPPI||||#dddddd+dddd+ddddddd+ddd+ddddO|||||||||",
"||||||k||puuuJ|||@@nMggf@0mgj||||||->;-:-iuuu|||||[]])|||||||<<-p^=G|||||||||||||`]]])|||cBVB||22|22|||xx|xxx||||||||||||NBBC||||PPPI||||||||||||||H|HHHHHH|H||||PPPP||||#ddddddddddddddddddddd+++dd+dO|||||||||",
"||||llg$5|uuuy|||@@Mnfg@gjmgh|||||||>-o->yuuu|||||[[]]|||||||<<<<-=o|||||||||||||_]]])|||cBBV|||||||||xxx|xxxx|||||||||||NBBB||||PPPP|||||||||||||||HHHHH||||||||PPPP||||#ddddddddddddddddddd+ddddddd+O|||||||||",
"|||kllg@*gyuus||||@mn@ff@jnk||||||||;pt;|yuuu|||||]][]||||||{4<<,4;o|||||||||||||_]]]_|||cVVB|||||||||xxx|xxx||||||||||||NVVB||||PPPP|||||||||||||||HH|||||||||||PPPP||||#+ddddddddddddddd+ddd+dddddd+#|||||||||",
"||||kk|*lktuyyyyyuuysaatasyyyyuyuyyyyysyyyuyy|||||])]__]_]])[]]]]]]]])])_]]]_]__))]]]_|||cCNCCCCCCNMCCzNNMzzzCCCCCCCCNCCCNCNN||||PPPPPPPPPPPPPPPPPPPLLPPPPPPPIPPPPPPI||||KKKKKKKKKKKKKKKKKKKKKKKKKKKKKKKp|||||||",
"||||||||Ultuuuuuuuuuuuuuuuuuuuuuuuuuuuuuuuuuu|||||]]]]]]]][]]]]]]][]]][]]]]]]]]]]]]]]_|||cVBVBVBVVBBBVBBBBBBVBVBBBVBBBBBVBVBV||||PPPPPPPPPPPPPPPPPPPPPPPPPPPPPIIPPPPP||||EYYRERRRYERRRRRRRRRTTTTYRYRYRRRa ||||||",
"||||||||kk@uy8w8iuuuuuuuuuuuuuuuuuuyt8tuuuuuuAmmmS]](8e6`]]]][[]]]]]]]]]]]][`pZ`]]][]'bmmNVVz00vVBVBBBBBBBBVBBBBBBBBB00vBBVVCmmmbPPIU*&IPPPPPPPPPPPPPPPPPPPPI%*UPPPPIbmmZERD%%KRYRRD%%KRRRT%99%TYEEEYYRRt ||||||",
"||||||||@@$i7wweriuuuuuuuuuuuuuuuuy6wew8uuuuu|||||['9eww7`]]]]]]][][][]]]][Zrew9!]]]]]|||cVv7wew0VVVVBBBBBBBBBBBBBBz6eee6BVBB||||PP5wee9UPPPPPPPPPPPPPPPPPPkqeew&PPPI||||YpAAAA!(~Zerw7DYTpewewpRFFFTTYYt  |||||",
"|||||||||%Xaww9we8uuuuuuuuuuuuuuuu8eerwwtuuuu|||||[5ee9wep]]]][]]]]]]]]]]]_wrwewr]]]])|||NV6weerevVVBBBVBVBBBVBVBBV0wewew0VVC||||PUwwewe6PPPPPPPPPPPPPPPPPP9weewwIPPP||||K9r7r77~~AAAAAA(LxeeeweDFFFTTULt   ||||",
"|||||||||||9ww 8w6||||||||||||||||rrr.we5||||||||||7w6 6w6||||||||||||||||%eeX5wr||||||||||ww5Xre5|||||||||||||||||6e6.ww9||||||||$ee.9ew||||||||||||||||||we$$ee||||||||$ew $ew||we.Xew||ee$&AA^FFF|6ew||||||||",
"|||||||||||8wwXww8||||||||||||||||rw9.9w6||||||||||5w9$9e6|||||||||||||||||rwX$er||||||||||wwXXee5|||||||||||||||||6e6.ew7||||||||5we.99w||||||||||||||||||reXXew||||||||$er$7ee||we56wr||ew55er|FFF%8 75|||||||",
"||||||||||||ewwww|||||||||||||||||5eeeww||||||||||||wwewr||||||||||||||||||rwwew9||||||||||7weewe||||||||||||||||||5eeeww5|||||||||weeee9||||||||||||||||||weeeer|||||||||rwwwe8||wweww9||6ewre6|FFF|w$r||||||||",
"|||||||||||||7ww|||||||||||||||||||5eee5|||||||||||||7w7||||||||||||||||||||rew7||||||||||||7wew||||||||||||||||||||5eee5||||||||||$rwe6||||||||||||||||||||9eex||||||||||$ewe9||||wee7||||5we5|||||||5$||||||||",
"||||||||||||||||||||||||||||||||||||||||||||||||||||||||||||||||||||||||||||||||||||||||||||||||||||||||||||||||||||||||||||||||||||||||||||||||||||||||||||||||||||||||||||||||||||||||||||||||||||||||||||||||",
"||||||||||||||||||||||||||||||||||||||||||||||||||||||||||||||||||||||||||||||||||||||||||||||||||||||||||||||||||||||||||||||||||||||||||||||||||||||||||||||||||||||||||||||||||||||||||||||||||||||||||||||||"
};
