/* XPM */
/* -copyright-
#-# 
#-# plasmasnow: Let it snow on your desktop
#-# Copyright (C) 1984,1988,1990,1993-1995,2000-2001 Rick Jansen
#-# 	      2019,2020,2021,2022,2023 Willem Vermin
#-# 
#-# This program is free software: you can redistribute it and/or modify
#-# it under the terms of the GNU General Public License as published by
#-# the Free Software Foundation, either version 3 of the License, or
#-# (at your option) any later version.
#-# 
#-# This program is distributed in the hope that it will be useful,
#-# but WITHOUT ANY WARRANTY; without even the implied warranty of
#-# MERCHANTABILITY or FITNESS FOR A PARTICULAR PURPOSE.  See the
#-# GNU General Public License for more details.
#-# 
#-# You should have received a copy of the GNU General Public License
#-# along with this program.  If not, see <http://www.gnu.org/licenses/>.
#-# 
*/
XPM_TYPE *AltSanta4[] = {
/* columns rows colors chars-per-pixel */
"208 40 92 1 ",
"  c #020104",
". c #0F0E13",
"X c #2D201D",
"o c #780809",
"O c #5E3227",
"+ c #076D04",
"@ c #037803",
"# c #097D10",
"$ c #117109",
"% c #2D692B",
"& c #76452F",
"* c #536120",
"= c #67695C",
"- c #364D40",
"; c #980F09",
": c #B20805",
"> c #A43431",
", c #FB0202",
"< c #E91012",
"1 c #D22E33",
"2 c #C90808",
"3 c #914D2C",
"4 c #AA562C",
"5 c #B75C32",
"6 c #B1582F",
"7 c #B86433",
"8 c #9C6B1A",
"9 c #CC6633",
"0 c #D16834",
"q c #C9612E",
"w c #C45C28",
"e c #B43547",
"r c #BD3E64",
"t c #D33E42",
"y c #D13452",
"u c #EC396A",
"i c #FD3467",
"p c #E12D5A",
"a c #A44958",
"s c #9C6055",
"d c #D35759",
"f c #018101",
"g c #4D9136",
"h c #6BA638",
"j c #69B242",
"k c #5CA05C",
"l c #79CA6D",
"z c #A98D0D",
"x c #B6892B",
"c c #B88C32",
"v c #9BAA22",
"b c #FFB616",
"n c #F4AE13",
"m c #FEB527",
"M c #D7A91B",
"N c #BAC303",
"B c #CBCB02",
"V c #CFD100",
"C c #FFC628",
"Z c #97986E",
"A c #E69965",
"S c #DC9C63",
"D c #FFCD75",
"F c #0166CC",
"G c #5353A8",
"H c #FF36A3",
"J c #9C6C85",
"K c #688DB5",
"L c #47B7B9",
"P c #4CAAAD",
"I c #46908C",
"U c #6D98C8",
"Y c #729ECD",
"T c #729FD0",
"R c #72A2D3",
"E c #6EA4D7",
"W c #5B9AC8",
"Q c #D79697",
"! c #F9CBA0",
"~ c #B1BAC6",
"^ c #B8EAF2",
"/ c #B5E5EA",
"( c #B3CCD4",
") c #C9CACB",
"_ c #D6D5D8",
"` c #CBFDFE",
"' c #D1FFFF",
"] c #DCE0E2",
"[ c #EAEBF3",
"{ c #D5D8E0",
"} c #A9C398",
"| c None",
/* pixels */
"||||||||||||||||||||||||||||||||||||||||||||||||||||||||||||||||||||||||||||||||||||||||||||||||||||||||||||||||||||||||||||||||||||||||||||||||||||||||||||||||||||||||||||||||||||||||||||||||||||||||||||||||",
"||||||||||||||||||||||||||||||||||||||||||||||||||||||||||||||||||||||||||||||||||||||||||||||||||||||||||||||||||||||||||||||||||||||||||||||||||||||||||||||||||||||||||||||||||||||||||||||||||||||||||||||||",
"|||||||||||||||||||||||||||||||||||||||||||||||||||||||||||||||||||||||||||||||||||||||||||||||||||||||||||||||||||||||||||||||||||||||||||||||||||||||||||||||||||||||||||||||||||||||||(_)))||||||||||||||||||",
"|||||||||||||||||||||||||||||||||||||||||||||||||||||||||||||||||||||||||||||||||||||||||||||||||||||||||||||||||||||||||||||||||||||||||||||||||||||||||||||||||||||||||||||||||||||||||)))_))|||||||||||||||||",
"|||||||||||||||||||||||||||||||||||||||||||||||||||||||||||||||||||||||||||||||||||||||||||||||||||||||||||||||||||||||||||||||||||||||||||||||||||||||||||||||||||||||||||||||||||||||||~)))))|||||||||||||||||",
"|||||||||||||||||||||||||||||||||||||||||||||||||||||||||||||||||||||||||||||||||||||||||||||||||||||||||||||||||||||||||||||||||||||||||||||||||||||||||||||||||||||||||||||||||||||||||||~))||||||||||||||||||",
"||||||||||||||||||||||||||||||||||||||||||||||||||||||||||||||||||||||||||||||||||||||||||||||||||||||||||||||||||||||||||||||||||||||||||||||||||||||||||||||||||||||||||||||||||||||||||||||||||||||||||||||||",
"|||||||||||||||||||||||||||||||||||||||||||||||||||||||||||||||||||||||||||||||||||||||||||||||||||||||||||||||||||||||||||||||||||||||||||||||||||||||||||||||||||||||||||||||||||||||||||||(]]]_||||||||||||||",
"|||||||||||||||||||||||||||||||||||||||||||||||||||||||||||||||||||||||||||||||||||||||||||||||||||||||||||||||||||||||||||||||||||||||||||||||||||||||||||||||||||||||||||||||||||||||||||||][]][||||||||||||||",
"||||||||||||||||||||||||||||||||||||||||||||||||||||||||||||||||||||||||||||||||||||||||||||||||||||||||||||||||||||||||||||||||||||||||||||||||||||||||||||||||||||||||||||||||||||||||||||||][[]||||||||||||||",
"||||||||||||||||||||||||||||||||||||||||||||||||||||||||||||||||||||||||||||||||||||||||||||||||||||||||||||||||||||||||||||||||||||||||||||||||||||||||||||||||||||||||||||||||||||||||||||||||||||||||||||||||",
"||||||||||||||||||||||||||||||||||||||||||||||||||||||||||||||||||||||||||||||||||||||||||||||||||||||||||||||||||||||||||||||||||||||||||||||||||||||||||||||||||||||||||||s777qq9777s7||||||||||||||||||||||||",
"||||||||||||||||||||||||||||||||||||||||||||||||||||||||||||||||||||||||||||||||||||||||||||||||||||||||||||||||||||||||||||||||||||||||||||||||||||||||||||||||||||||||||||,,,,,,,,,,,|||||||||{{{/||||||||||||",
"||||||||||||||||||||||||||||||||||||||||||||||||||||||||||||||||||||||||||||||||||||||||||||||||||||||||||||||||||||||||||||||||||||||||||||||||||||||||||||||||||||||||||||,,,,,,,,,,,||||||||{[[[[[|||||||||||",
"||||||||||||||||||||||||||||||||||||||||||||||||||||||||||||||||||||||||||||||||||||||||||||||||||||||||||||||||||||||||||||||||||||||||||||||||||||||||||||||||||||||||||||,1WWWa,,,,,|||||||||^[[[{|||||||||||",
"||||||||||||||||||||||||||||||||||||||||||||||||||||||||||||||||||||||||||||||||||||||||||||||||||||||||||||||||||||||||||||||||||||||||||||||||||||||||||||||||||||||||||||,1RRTa1UUJ,|||||||||||||||||||||||||",
"||||||||||||||||||||||||||||||||||||||||||||||||||||||||||||||||||||||||||||||||||||||||||||||||||||||||||||||||||||||||||||||||||||||||||||||||||||||||||||||||||||||||||||,1TTRa1EUJ,|||||||||||||||||||||||||",
"||||||||||||||||||||||||||||||||||||||||||||||||||||||||||||||||||||||||]|||||||||||||||||||||||||||||||||||||||||||||||||||||||||||||||||||||||||||||||||||||||||||||||||||,1TREa1ETJ,|||||||||||||||||||||||||",
"|||||||||||||||||||||||||||||||||||||||||||||||||||||||||||||||||||QQ,<|[||||||||||||||||||||||||||||||||||||||||||||||||||||||||||||||||||<<||||||||||||H||||||||||||||||||,1TETa1ETJ,|||||||||.    .||||||||||",
"|||||||||||||||||||||||||||||||||||||||||||||||||||||||||||||||||||]_[<,|||||||||||||||||||||||||||||||||||||||$$||||+$|||||||||||||||||||||||||||||||||||||||||||||||||||||,<aaay<aae,||||||||||Mx7MM||||||||||",
"||||||||||||||||||D||||||||||||||||||||||||||||||||||||||||||||||||[1![<|||||||||||||||||||||||||||||||||||||||||$||+||||||||||||||||||||||<|||||||||||||HH|||||||||||||||||,,,,,,,,,,,||||||||||bbbbM||||||||||",
"||||||||||||||||||Amb||mC||||||||||||||Q||||||||||||||||||||||||<Q[]s[||||||||||||||||||||||||||||||||cc|||cc|||+++++$|||||||||||||||||||||,,,|||||||||||HH|||||||||||||||||,,,,,,,,,,,||||||||||bbbbM||||||||||",
"||||||||||||||||||nnmmnnb|||||||||||||||Q|||||||||||||||||||||||)Qt[[Q||||||||||||||||||||||||||||||||c|c|c|c|++$+||$+++|||||||||||||||||||,<||||||||||||H||||||||||||||||||,,,,,,,,,,,||||||||||mbbbn||||||||||",
"||||||||||||||||ggMmnmbbbgg||||||||||||Q|||||||||||||||||||||||||:1Q6;o|||||||||||||||||||||||t|||t||||cccc|||++++|+++++|||||||||||||||||||,,||||||||||||HH|||||||||||||||||;;;;;;:;;;;O|||||||||zzz8*||||||||||",
"|||||||uuiuu|||lZhnMvhjvMBl}||||||;2;|Q|uuuu||||^```/||||||||||||.z*:a;o|||||||||```^||||BBBv||ttt|||xxxc|xxx|++++|+++++|BBBB||||LLLL||||||,,|||||||||||HHH||||||LLLL|||||@fffffffffffffffffffffffffff@f||||||||",
"|||||||diiiu|||ZkvbvjjghMMjl|||||||::d||iiiu||||^```/||||||||||||,,:2Q;-o||||||||'``^||||VBBN|ddttt1|cxcc|ccc|++++|++++||BBBB||||LLLL|||||,,,<,<|||||||HHHHHH||||LLLL|||||+f@fffffffffffffffffffffff@f#f||||||||",
"||k|k||Jiiiu|||kghbhgjggnMjj||||||;;o:||iiiu||||^```^||||||||||||,,2o_:F;||||||||```^||||BBBM|tt|ttd||xxx|xxx|$+++|++++||BBVB||||LLLL<|<,,,<,<,||||HHHHHHHH|H||||LLLL|||||@ffffffffffff@fffffff@ff@ff@@f||||||||",
"|kllg*>Hiiiu|||gghnvggggMBjj||||||ado|2|iiiu||||^```/||||||||||||,,,,<oOo||||||||```^||||BBBv|1ttt1|||xxx|xxx|++++|++++||BBBB||||LLLL|,,,,,,||<|||||HHHHH||||||||LLLL|||||+ffff@fffffff#fffffff@ffffff@f||||||||",
"|kklg%=kyiiu|||%%vnvgg%gMBjj||||||Q>;2;|uiiu||||/```/|||||||||||[Q<<<tJ;|||||||||```^||||BBBv|yttt1t||xxc|xxx|$+++|++++||BBBB||||LLLL|<,<|||||||||||HH|||||||||||LLLL|||||$f####ff$###$#f###########f##|||||||||",
"||k||klk>iiiiiiipiupuuiuiuuuiiiiiiiiuuiiiiuu||||^```````'```````''``'''`````````````^||||BBBBBBBNBBBVBBBBBBBBBBNNNBNNNNBBBBBB||||LLLLLPPLLLLLLLLLLLLLPLLLLLLLLLLLLLLL||||UUUUTUUTRUUUUYYUUUUUUUUUUUUYYUUEe||||||",
"||||||llsiiiuuiiiiiiiiiiiiiiiiiiiiiiiiiiiiiu||||^```^/````````````'`''``````````````^||||VBBVVBVBBBBBBBBBBVBBBVBBBBBBVVBVBBBV||||LLLLLLLLLLLLLLLLLLLLLLLLLLLLLLLLLLLL||||UYREYRTTTTYREERRTTTTKUTYTYTTTTTEe.|||||",
"||||||gk=iy396>iiiiiiiiiiiiiiiiiiie4>uiiiiiuCbmb/``sq03/``'```'````'''`````~ss~`````]nCbMVBB888BVBBBBBBBVBBBBBBBBBBBv88zBBBVBmmmSLLLk&=PLLLLLLLLLLLLLLLLLLLLP===LLLLLSCbmUYK=a=TRTTY=3=URTRK495=RYTTYYTTEe |||||",
"||||||%%=p500q9eiiiiiiiiiiiiiiiii30097tiiiiu||||^'sq0007```````````'``````Zq00qZ'```^||||Bv79906NBBBVBBBBVBVBBBBBVVz79998VVVV||||LLs0q97ILLLLLLLLLLLLLLLLLLI70007WLLL||||YJq9908EEK7q005KUKq9999sUFFFETREy  ||||",
"|||||||sO>906004iiiiiiiiiiiiiiiiy090994iiiiu||||//99q799}``````'``'``'```~w90005/`'`^||||Vw990998BBVBVVVBBBVBVVVBVB599099zVVB||||L=090993LLLLLLLLLLLLLLLLLL799009kLLL||||K=99690=Ks907q03Us005906WFFFKK=Ke   |||",
"|||||||||305 3q9||||||||||||||||309X&90|||||||||||99O 993||||||||||||||||&q9OO99&|||||||||599X097||||||||||||||||||09OO90&||||||||399.490||||||||||||||||||906.093||||||||69& 004|697 7q7|500 O05|FFF|q97|||||||",
"|||||||||300&705||||||||||||||||399O399|||||||||||996390||||||||||||||||||99OO00||||||||||597.995||||||||||||||||||99OO993||||||||307X499||||||||||||||||||094X093||||||||6q53003|600sASS!AAAZSAS|FFFs6 6&||||||",
"||||||||||q0q0q3|||||||||||||||||q00994|||||||||||399905||||||||||||||||||500006||||||||||3000003||||||||||||||||||600009||||||||||990993||||||||||||||||||400009|||||||||7AAAAQ!!AAAS0d4||5qqq03|FFF|q&0|||||||",
"|||||||||||405&|||||||||||||||||||0005|||||||||||||3q04||||||||||||||||||||090q||||||||||||49093||||||||||||||||||||q090|||||||||||30906||||||||||||||||||||4000&||||||||||40003|||30003||||409&|||||||4||||||||",
"||||||||||||||||||||||||||||||||||||||||||||||||||||||||||||||||||||||||||||||||||||||||||||||||||||||||||||||||||||||||||||||||||||||||||||||||||||||||||||||||||||||||||||||||||||||||||||||||||||||||||||||||",
"||||||||||||||||||||||||||||||||||||||||||||||||||||||||||||||||||||||||||||||||||||||||||||||||||||||||||||||||||||||||||||||||||||||||||||||||||||||||||||||||||||||||||||||||||||||||||||||||||||||||||||||||"
};
