/* XPM */
/* -copyright-
#-# 
#-# plasmasnow: Let it snow on your desktop
#-# Copyright (C) 1984,1988,1990,1993-1995,2000-2001 Rick Jansen
#-# 	      2019,2020,2021,2022,2023 Willem Vermin
#-# 
#-# This program is free software: you can redistribute it and/or modify
#-# it under the terms of the GNU General Public License as published by
#-# the Free Software Foundation, either version 3 of the License, or
#-# (at your option) any later version.
#-# 
#-# This program is distributed in the hope that it will be useful,
#-# but WITHOUT ANY WARRANTY; without even the implied warranty of
#-# MERCHANTABILITY or FITNESS FOR A PARTICULAR PURPOSE.  See the
#-# GNU General Public License for more details.
#-# 
#-# You should have received a copy of the GNU General Public License
#-# along with this program.  If not, see <http://www.gnu.org/licenses/>.
#-# 
*/
XPM_TYPE *AltSantaRudolf1[] = {
/* columns rows colors chars-per-pixel */
"208 40 91 1 ",
"  c #161418",
". c #75060A",
"X c #653825",
"o c #523527",
"O c #046A02",
"+ c #007B00",
"@ c #12730F",
"# c #30702B",
"$ c #78432A",
"% c #5D6420",
"& c #4D4E4F",
"* c #69675C",
"= c #480A6E",
"- c #A51B19",
"; c #D40708",
": c #CA0C0F",
"> c #FA0101",
", c #EA090A",
"< c #D11C25",
"1 c #D4373D",
"2 c #904C2B",
"3 c #A7552C",
"4 c #B35A30",
"5 c #BB6135",
"6 c #AF6923",
"7 c #96711E",
"8 c #C45025",
"9 c #CB6633",
"0 c #D26934",
"q c #CE622E",
"w c #D33A45",
"e c #DD396D",
"r c #FD3467",
"t c #EA3A6D",
"y c #E6305D",
"u c #945771",
"i c #A36053",
"p c #CC4B55",
"a c #E14F6B",
"s c #B63042",
"d c #008100",
"f c #3B8635",
"g c #509435",
"h c #68A437",
"j c #5CA455",
"k c #76CC77",
"l c #B9B712",
"z c #B7892B",
"x c #B88D33",
"c c #B1B929",
"v c #95A318",
"b c #C7AC17",
"n c #FEB615",
"m c #FDAF11",
"M c #FEB724",
"N c #DD9F1E",
"B c #BBC217",
"V c #CCCC00",
"C c #C0C411",
"Z c #EFAE7C",
"A c #D0A071",
"S c #FFC75E",
"D c #94B075",
"F c #687A95",
"G c #0367CC",
"H c #0E10CF",
"J c #FF36A2",
"K c #8A6D90",
"L c #FE45A9",
"P c #678BB8",
"I c #47B7B8",
"U c #49AFB5",
"Y c #569398",
"T c #729FCF",
"R c #6E9BCB",
"E c #72A1D2",
"W c #72A3D3",
"Q c #5A93C5",
"! c #3EA3A3",
"~ c #95979A",
"^ c #AEB2B1",
"/ c #9D9A9D",
"( c #DAA698",
") c #BBEDF4",
"_ c #ABD9E2",
"` c #CAFDFE",
"' c #D1FEFF",
"] c #F3F3F3",
"[ c #E2DAD4",
"{ c #ECC299",
"} c None",
/* pixels */
"}}}}}}}}}}}}}}}}}}}}}}}}}}}}}}}}}}}}}}}}}}}}}}}}}}}}}}}}}}}}}}}}}}}}}}}}}}}}}}}}}}}}}}}}}}}}}}}}}}}}}}}}}}}}}}}}}}}}}}}}}}}}}}}}}}}}}}}}}}}}}}}}}}}}}}}}}}}}}}}}}}}}}}}}}}}}}}}}}}}}}}}}}}}}}}}}}}}}}}}}}}}}}}}}",
"}}}}}}}}}}}}}}}}}}}}}}}}}}}}}}}}}}}}}}}}}}}}}}}}}}}}}}}}}}}}}}}}}}}}}}}}}}}}}}}}}}}}}}}}}}}}}}}}}}}}}}}}}}}}}}}}}}}}}}}}}}}}}}}}}}}}}}}}}}}}}}}}}}}}}}}}}}}}}}}}}}}}}}}}}}}}}}}}}}}}}}}}}}}}}}}}}}}}}}}}}}}}}}}}",
"}}}}}}}}}}}}}}}}}}}}}}}}}}}}}}}}}}}}}}}}}}}}}}}}}}}}}}}}}}}}}}}}}}}}}}}}}}}}}}}}}}}}}}}}}}}}}}}}}}}}}}}}}}}}}}}}}}}}}}}}}}}}}}}}}}}}}}}}}}}}}}}}}}}}}}}}}}}}}}}}}}}}}}}}}}}}}}}}}}}}}}}}}}}}}}}}}}}}}}}}}}}}}}}}",
"}}}}}}}}}}}}}}}}}}}}}}}}}}}}}}}}}}}}}}}}}}}}}}}}}}}}}}}}}}}}}}}}}}}}}}}}}}}}}}}}}}}}}}}}}}}}}}}}}}}}}}}}}}}}}}}}}}}}}}}}}}}}}}}}}}}}}}}}}}}}}}}}}}}}}}}}}}}}}}}}}}}}}}}}}}}}}}}}}}}}}}}}&&&&&}}}}}}}}}}}}}}}}}}}",
"}}}}}}}}}}}}}}}}}}}}}}}}}}}}}}}}}}}}}}}}}}}}}}}}}}}}}}}}}}}}}}}}}}}}}}}}}}}}}}}}}}}}}}}}}}}}}}}}}}}}}}}}}}}}}}}}}}}}}}}}}}}}}}}}}}}}}}}}}}}}}}}}}}}}}}}}}}}}}}}}}}}}}}}}}}}}}}}}}}}}}}}*&&&&&&}}}}}}}}}}}}}}}}}}",
"}}}}}}}}}}}}}}}}}}}}}}}}}}}}}}}}}}}}}}}}}}}}}}}}}}}}}}}}}}}}}}}}}}}}}}}}}}}}}}}}}}}}}}}}}}}}}}}}}}}}}}}}}}}}}}}}}}}}}}}}}}}}}}}}}}}}}}}}}}}}}}}}}}}}}}}}}}}}}}}}}}}}}}}}}}}}}}}}}}}}}}}}*&&&&}}}}}}}}}}}}}}}}}}}",
"}}}}}}}}}}}}}}}}}}}}}}}}}}}}}}}}}}}}}}}}}}}}}}}}}}}}}}}}}}}}}}}}}}}}}}}}}}}}}}}}}}}}}}}}}}}}}}}}}}}}}}}}}}}}}}}}}}}}}}}}}}}}}}}}}}}}}}}}}}}}}}}}}}}}}}}}}}}}}}}}}}}}}}}}}}}}}}}}}}}}}}}}}}}}}}}}}}}}}}}}}}}}}}}}",
"}}}}}}}}}}}}}}}}}}}}}}}}}}}}}}}}}}}}}}}}}}}}}}}}}}}}}}}}}}}}}}}}}}}}}}}}}}}}}}}}}}}}}}}}}}}}}}}}}}}}}}}}}}}}}}}}}}}}}}}}}}}}}}}}}}}}}}}}}}}}}}}}}}}}}}}}}}}}}}}}}}}}}}}}}}}}}}}}}}}}}}}}}}}}}}}}}}}}}}}}}}}}}}}}",
"}}}}}}}}}}}}}}}}}}}}}}}}}}}}}}}}}}}}}}}}}}}}}}}}}}}}}}}}}}}}}}}}}}}}}}}}}}}}}}}}}}}}}}}}}}}}}}}}}}}}}}}}}}}}}}}}}}}}}}}}}}}}}}}}}}}}}}}}}}}}}}}}}}}}}}}}}}}}}}}}}}}}}}}}}}}}}}}}}}}}}}}}}}}}~~~~~}}}}}}}}}}}}}}}",
"}}}}}}}}}}}}}}}}}}}}}}}}}}}}}}}}}}}}}}}}}}}}}}}}}}}}}}}}}}}}}}}}}}}}}}}}}}}}}}}}}}}}}}}}}}}}}}}}}}}}}}}}}}}}}}}}}}}}}}}}}}}}}}}}}}}}}}}}}}}}}}}}}}}}}}}}}}}}}}}}}}}}}}}}}}}}}}}}}}}}}}}}}}}}/~/~~}}}}}}}}}}}}}}}",
"}}}}}}}}}}}}}}}}}}}}}}}}}}}}}}}}}}}}}}}}}}}}}}}}}}}}}}}}}}}}}}}}}}}}}}}}}}}}}}}}}}}}}}}}}}}}}}}}}}}}}}}}}}}}}}}}}}}}}}}}}}}}}}}}}}}}}}}}}}}}}}}}}}}}}}}}}}}}}}}}}}}}}}}}}}}}}}}}}}}}}}}}}}}}}}~~}}}}}}}}}}}}}}}}",
"}}}}}}}}}}}}}}}}}}}}}}}}}}}}}}}}}}}}}}}}}}}}}}}}}}}}}}}}}}}}}}}}}}}}}}}}}}}}}}}}}}}}}}}}}}}}}}}}}}}}}}}}}}}}}}}}}}}}}}}}}}}}}}}}}}}}}}}}}}}}}}}}}}}}}}}}}}}}}}}}}}}}}}}}}}}}0i995995i}}}}}}}}}}}}}}}}}}}}}}}}}}}",
"}}}}}}}}}}}}}}}}}}}}}}}}}}}}}}}}}}}}}}}}}}}}}}}}}}}}}}}}}}}}}}}}}}}}}}}}}}}}}}}}}}}}}}}}}}}}}}}}}}}}}}}}}}}}}}}}}}}}}}}}}}}}}}}}}}}}}}}}}}}}}}}}}}}}}}}}}}}}}}}}}}}}}}}}}}48888188<888i}}}}}}}}}}}}}}}}}}}}}}}}}",
"}}}}}}}}}}}}}}}}}}}}}}}}}}}}}}}}}}}}}}}}}}}}}}}}}}}}}}}}}}}}}}}}}}}}}}}}}}}}}}}}}}}}}}}}}}}}}}}}}}}}}}}}}}}}}}}}}}}}}}}}}}}}}}}}}}}}}}}}}}}}}}}}}}}}}}}}}}}}}}}}}}}}}}}}}};>>>>>>>>>>>}}}}}}}}^^^^^}}}}}}}}}}}}}",
"}}}}}}}}}}}}}}}}}}}}}}}}}}}}}}}}}}}}}}}}}}}}}}}}}}}}}}}}}}}}}}}}}}}}}}}}}}}}}}}}}}}}}}}}}}}}}}}}}}}}}}}}}}}}}}}}}}}}}}}}}}}}}}}}}}}}}}}}}}}}}}}}}}}}}}}}}}}}}}}}}}}}}}}}}};>puuu<>>>>>}}}}}}}}^^^^^}}}}}}}}}}}}}",
"}}}}}}}}}}}}}}}}}}}}}}}}}}}}}}}}}}}}}}}}}}}}}}}}}}}}}}}}}}}}}}}}}}}}}}}}}}}}}}}}}}}}}}}}}}}}}}}}}}}}}}}}}}}}}}}}}}}}}}}}}}}}}}}}}}}}}}}}}}}}}}}}}}}}}}}}}}}}}}}}}}}}}}}}}};>uWWW<sii,>}}}}}}}}}}^^}}}}}}}}}}}}}}",
"}}}}}}}}}}}}}}}}}}}}}}}}}}}}}}}}}}}}}}}}}}}}}}}}}}}}}}}}}}}}}}}}}}}}}}}}}}}}}}}}}}}}}}}}}}}}}}}}}}}}}}}}}}}}}}}}}}}}}}}}}}}}}}}}}}}}}}}}}}}}}}}}}}}}}}}}}}}}}}}}}}}}}}}}}};>uWWW<uEW<>}}}}}}}}}}}^}}}}}}}}}}}}}}",
"}}}}}}}}}}}}}}}}}}}}}}}}}}}}}}}}}}}}}}}}}}}}}}}}}}}}}}}}}}}}}}}}}}}}}}}}}}}}}}}}}}}}}}}}}}}}}}}}}}}}}}}}}}}}}}}}}}}}}}}}}}}}}}}}}}}}}}}}}}}}}}}}}}}}}}}}}}}}}}}}}}}}}}}}}};>uWWW<uEE:>}}}}}}}}}}}}}}}}}}}}}}}}}}",
"}}}}}}}}}}}}}}}}}}}}}}}}}}}}}}}}}}}}}}}}}}}}}}}}}}}}}}}}}}}}}}}}}}}}p,}}]}}}}}}}}}}}}}}}}}}}}}}}}}}}}}}}}}}}}}}}}}}}}}}}}}}}}}}}}}}}}}}}}}},}}}}}}}}}}}}L}}}}}}}}}}}}}}}}};>uWWW<uEW<>}}}}}}}}}     }}}}}}}}}}}}",
"}}}}}}}}}}}}}}}}}}}}}}}}}}}}}}}}}}}}}}}}}}}}}}}}}}}}}}}}}}}}}}}}}}}[[],}}}}}}}}}}}}}}}}}}}}}}}}}}}}}}}}}}}}}}}}}}}}}}}}}}}}}}}}}}}}}}}}}}},}}}}}}}}}}}}}}}}}}}}}}}}}}}}}}};>uQRQ<*RQ:>}}}}}}}}}77%7x}}}}}}}}}}}}",
"}}}}}}}}}}}}}}}}}}}}}}}}}}}}}}}}}}}}}}}}}}}}}}}}}}}}}}}}}}}}}}}}}}}]a{[>}}}}}}}}}}}}}}}}}}}}}}}}}}}}}}}}}}}}}}O}@}}}@}O}}}}}}}}}}}}}}}}}}},}}}}}}}}}}}}}J}}}}}}}}}}}}}}}}};>>>>>>>>>>>}}}}}}}}}NMnnn}}}}}}}}}}}}",
"}}}}}}}}}}}}}}}}}}}{S}}}SS}}}}}}}}}}}}}/(}}}}}}}}}}}}}}}}}}}}}}};-}]2[[}}}}}}}}}}}}}}}}}}}}}}}}}}}}}}}}}}}}}}}}O}@@O}O}}}}}}}}}}}}}}}}}}}},>>}}}}}}}}}}}JJ>>}}}}}}}}}}}}}};>>>>>>>>>>>}}}}}}}}}NMnnn}}}}}}}}}}}}",
"}}}}}}}}}}}}}}}}}}}MmMMNMm}}}}}}}}}}}}}}(}}}}}}}}}}}}}}}}}}}}}}}(]s]]]}}}}}}}}}}}}}}}}}}}}}}}}}}}}}}}x}x}}x}x}}@@@}@@@}}}}}}}}}}}}}}}}}}}}},}}}}}}}}}}}}JJ}>}}}}}}}}}}}}}};>>>>>>>>>>>}}}}}}}}}Nmmnn}}}}}}}}}}}}",
"}}}}}}}}}}}}}}}}}}gNmmmmmmfh}}}}}}}}}}}}(}}}}}}}}}}}}}}}}}}}}}}}}<,((-.}}}}}}}}}}}}}}}}}}}}}}}}}}}}}}}}xxxx}}}OOOO}OOOO}}}}}}}}}}}}}}}}}}}}>}}}}}}}}}}}}JJ}}}}}}}}}}}}}}}}-;;;;;;;;;;;}}}}}}}}}6NNNN}}}}}}}}}}}}",
"}}}}}}}}}tete}}}jDhxMchvbnBk}}}}}}}-;}}pKttta}}}})))_}}}}}}}}}}}} %%;--.}}}}}}}}})))_}}}}BBBc}}p}p}}}xzzxxzzz}O@@O}@@O@}clCB}}}}!IUI}}}}}},>}}}}}}}}}}}}JJ}}}}}}UUUU}}}}}ddddddd+dddddddddddddddOddddO}}}}}}}}}}",
"}}}}}}}}}rrrt}}}DjvmvhhghnCj}}}}}}};--(}trrre}}}}```)}}}}}}}}}}}},,:-puo.}}}}}}}}'``)}}}}VVVcwwwp11}}xxzx}zxx}OOOO}OOOO}cVVV}}}}IIII}}}}},>>,,,}}}}}}}}JJJJJ}}}}IIII}}}}}ddddddd+dddddddddddddddd++ddO}}}}}}}}}}",
"}}}}}j}}ptrrr}}}jgvMhjhfgmBh}}}}}}}-.--}trrre}}}}````}}}}}}}}}}}},>,.[sH.}}}}}}}}```)}}}}VVVc}18}11}}zzzxxzzz}OOOO}OOOO}BVVV}}}}IIIIu}},>,>,>>}}}}J}JJJJJJJL}}}}IIII}}}}}+ddddddddddd+d+dddd+dddd+dd+O}}}}}}}}}}",
"}}}Dkj%5prrra}}}ggvnhhgggncg}}}}}}}su-;}errre}}}}```)}}}}}}}}}}}},>>>>.=.}}}}}}}}``')}}}}VVVc}w1w11}}zzzzzzzz}OOOO}OOOO}BVVV}}}}IIII},>>,>>,}}}}}}}LJJJJJ}}J}}}}IIII}}}}}dddd+d+ddddddd+dddddddddddd+O}}}}}}}}}}",
"}}#kkj#&*ytrr}}}f#vmhhgfgncj}}}}}}((::--trrre}}}}```)}}}}}}}}}}}}{>>,,p.}}}}}}}}}'``)}}}}VVVc}11w11}}zzzxzzzz}O+O+}OOOO}BVVV}}}}IIII}}>>}}}}}}}}}}}LJJ}}}}}}}}}}IIII}}}}}+O++d++dd+ddd++dd+++d+dd+d+dO}}}}}}}}}}",
"}}}jj}}kk$tttttrpppapppppapaatttreaeeyyttttta}}}})``)`)`)``)`)```'````'````))`)`)```)}}}}CCVCCbbbbbbCCCblBBbBBvvvvBvvvvBCVCC}}}}IIIIUUYYIUIUIIUIIIIPPUUUIIIIIIIIIIII}}}}PRPRPPPPPPPPPPPPPPPPPPPPPPPPPPPK}}}}}}}}",
"}}}}}}}kkurrrrrrrrrrrrrrrrrrrrrrrrrrtrrrrrrrt}}}}``````````````''``'``````````'`````)}}}}VVVVVVVVVVVVVVVVVVVVVVVVVVVVVVVVVVV}}}}IIIIIIIIIIIIIIIIIIIIIIIIIIIIIIIIIIII}}}}EERTEEETWTEWEEETETTRRWWTEETTTTEK>}}}}}}}",
"}}}}}}}gjgyy394srrrrrrrrrrrrrrrrrrrs3srrrrrraMMMn`'_i54^'``````'`````'`'```_Du_'````[mMnbVVC77zVVVVVVVVVVVVVVVVVVVVVv77VVVVVBMMMUII!*i!IIIIIIIIIIIIIIIIIIIII**jIIIIIAnMNEEP**FEETTP**FETEEF49$RTTTTTTEEK>1}}}}}}",
"}}}}}}}##&y49099wrrrrrrrrrrrrrrrrr39903yrrrra}}}}``4qqq4^`````'```````````^q008/'```)}}}}Vl40996VVVVVVVVVVVVVVVVVVV60005lVVV}}}}II*9905jUIIIIIIIIIIIIIIIII!4090iIIII}}}}RFq0qq*RTF6904iTRF0q903RGGGQWWWK>>}}}}}}",
"}}}}}}}}*%s095993rrrrrrrrrrrrrrrrs99990srrrre}}}}`D899995``'````'`''`'```_49q0q4)'``)}}}}V609990zVVVVVVVVVVVVVVVVVb000096VVV}}}}IY999995IIIIIIIIIIIIIIIIII499900YIII}}}}P5qq900PP4qqq9qYT3q95qq*GGGQPPPK,,<}}}}}",
"}}}}}}}}}}395 29q}}}}}}}}}}}}}}}}395 q95}}}}}}}}}}29p 399}}}}}}}}}}}}}}}}}9q2o09*}}}}}}}}}594o002}}}}}}}}}}}}}}}}}290 594}}}}}}}}}90X$99}}}}}}}}}}}}}}}}}}994 002}}}}}}}}ZZAA(Z{{(ZZA(Z({ZZZA(ZZGGG^i092}}}}}}}}",
"}}}}}}}}}}209X395}}}}}}}}}}}}}}}}2q5 495}}}}}}}}}}290X495}}}}}}}}}}}}}}}}}qq2 9q}}}}}}}}}}502 092}}}}}}}}}}}}}}}}}390 404}}}}}}}}}90Xo99}}}}}}}}}}}}}}}}}}903 002}}}}}}}}8q23qq}}qq3XqqX}383Xqq2GGG}4 X4}}}}}}}}",
"}}}}}}}}}}}99999$}}}}}}}}}}}}}}}}}000002}}}}}}}}}}}999002}}}}}}}}}}}}}}}}}4000q5}}}}}}}}}}409090}}}}}}}}}}}}}}}}}}}9909q3}}}}}}}}}999905}}}}}}}}}}}}}}}}}}499000}}}}}}}}}500999}}50q099}}299999}GGG}4253}}}}}}}}",
"}}}}}}}}}}}}39q$}}}}}}}}}}}}}}}}}}20903}}}}}}}}}}}}}499$}}}}}}}}}}}}}}}}}}}9000}}}}}}}}}}}}3009$}}}}}}}}}}}}}}}}}}}29993}}}}}}}}}}}9999}}}}}}}}}}}}}}}}}}}}3090$}}}}}}}}}}4909}}}}40q9$}}}$903}}}}}}}32}}}}}}}}}",
"}}}}}}}}}}}}}}}}}}}}}}}}}}}}}}}}}}}}}}}}}}}}}}}}}}}}}}}}}}}}}}}}}}}}}}}}}}}}}}}}}}}}}}}}}}}}}}}}}}}}}}}}}}}}}}}}}}}}}}}}}}}}}}}}}}}}}}}}}}}}}}}}}}}}}}}}}}}}}}}}}}}}}}}}}}}}}}}}}}}}}}}}}}}}}}}}}}}}}}}}}}}}}}}}",
"}}}}}}}}}}}}}}}}}}}}}}}}}}}}}}}}}}}}}}}}}}}}}}}}}}}}}}}}}}}}}}}}}}}}}}}}}}}}}}}}}}}}}}}}}}}}}}}}}}}}}}}}}}}}}}}}}}}}}}}}}}}}}}}}}}}}}}}}}}}}}}}}}}}}}}}}}}}}}}}}}}}}}}}}}}}}}}}}}}}}}}}}}}}}}}}}}}}}}}}}}}}}}}}}"
};
