/* XPM */
/* -copyright-
#-# 
#-# plasmasnow: Let it snow on your desktop
#-# Copyright (C) 1984,1988,1990,1993-1995,2000-2001 Rick Jansen
#-# 	      2019,2020,2021,2022,2023 Willem Vermin
#-# 
#-# This program is free software: you can redistribute it and/or modify
#-# it under the terms of the GNU General Public License as published by
#-# the Free Software Foundation, either version 3 of the License, or
#-# (at your option) any later version.
#-# 
#-# This program is distributed in the hope that it will be useful,
#-# but WITHOUT ANY WARRANTY; without even the implied warranty of
#-# MERCHANTABILITY or FITNESS FOR A PARTICULAR PURPOSE.  See the
#-# GNU General Public License for more details.
#-# 
#-# You should have received a copy of the GNU General Public License
#-# along with this program.  If not, see <http://www.gnu.org/licenses/>.
#-# 
*/
XPM_TYPE *AltSanta3[] = {
/* columns rows colors chars-per-pixel */
"208 40 92 1 ",
"  c #07070B",
". c #241C1E",
"X c #67261D",
"o c #056B02",
"O c #027C02",
"+ c #10710D",
"@ c #34742C",
"# c #095208",
"$ c #70452E",
"% c #626420",
"& c #726858",
"* c #79625D",
"= c #490669",
"- c #9E130F",
"; c #D60506",
": c #C60000",
"> c #E70201",
", c #F90101",
"< c #E80F15",
"1 c #D3383C",
"2 c #934E2C",
"3 c #B05830",
"4 c #BC6135",
"5 c #AC6026",
"6 c #9C7017",
"7 c #C35129",
"8 c #CB6633",
"9 c #D16834",
"0 c #CC602B",
"q c #BA3647",
"w c #EC3A6D",
"e c #FE3366",
"r c #EB396C",
"t c #D8364D",
"y c #AD485A",
"u c #B66D4A",
"i c #945A5F",
"p c #CD794A",
"a c #D15263",
"s c #008100",
"d c #4A8F34",
"f c #60A338",
"g c #51924E",
"h c #68B357",
"j c #76C765",
"k c #BBB715",
"l c #B48B30",
"z c #ADB72B",
"x c #98961B",
"c c #DB9B15",
"v c #DAAA1B",
"b c #FEB616",
"n c #FCAE13",
"m c #FFB724",
"M c #D2A724",
"N c #BAC116",
"B c #CCCC00",
"V c #C0C411",
"C c #D0D200",
"Z c #9A8C66",
"A c #DB824E",
"S c #F2CB6C",
"D c #617798",
"F c #0467CC",
"G c #000BF0",
"H c #FF37A2",
"J c #89799D",
"K c #6689B9",
"L c #688DB4",
"P c #47B6B8",
"I c #45ABB4",
"U c #4F93A4",
"Y c #729DCC",
"T c #729FD0",
"R c #6B9CCF",
"E c #72A0D1",
"W c #76A1CF",
"Q c #5E9DCD",
"! c #3DA5A6",
"~ c #979899",
"^ c #999EA3",
"/ c #DAA19F",
"( c #B0BBC9",
") c #B8EBF3",
"_ c #B5D1D3",
"` c #CCCCCD",
"' c #CAFDFE",
"] c #D5F3F5",
"[ c #ECEBEA",
"{ c #DFDBD9",
"} c #CBD095",
"| c None",
/* pixels */
"||||||||||||||||||||||||||||||||||||||||||||||||||||||||||||||||||||||||||||||||||||||||||||||||||||||||||||||||||||||||||||||||||||||||||||||||||||||||||||||||||||||||||||||||||||||||||||||||||||||||||||||||",
"||||||||||||||||||||||||||||||||||||||||||||||||||||||||||||||||||||||||||||||||||||||||||||||||||||||||||||||||||||||||||||||||||||||||||||||||||||||||||||||||||||||||||||||||||||||||||||||||||||||||||||||||",
"||||||||||||||||||||||||||||||||||||||||||||||||||||||||||||||||||||||||||||||||||||||||||||||||||||||||||||||||||||||||||||||||||||||||||||||||||||||||||||||||||||||||||||||||||||||||||||||||||||||||||||||||",
"||||||||||||||||||||||||||||||||||||||||||||||||||||||||||||||||||||||||||||||||||||||||||||||||||||||||||||||||||||||||||||||||||||||||||||||||||||||||||||||||||||||||||||||||||||||~^~~~~||||||||||||||||||||",
"||||||||||||||||||||||||||||||||||||||||||||||||||||||||||||||||||||||||||||||||||||||||||||||||||||||||||||||||||||||||||||||||||||||||||||||||||||||||||||||||||||||||||||||||||||||^~~~^~~|||||||||||||||||||",
"|||||||||||||||||||||||||||||||||||||||||||||||||||||||||||||||||||||||||||||||||||||||||||||||||||||||||||||||||||||||||||||||||||||||||||||||||||||||||||||||||||||||||||||||||||||||~~~~~||||||||||||||||||||",
"||||||||||||||||||||||||||||||||||||||||||||||||||||||||||||||||||||||||||||||||||||||||||||||||||||||||||||||||||||||||||||||||||||||||||||||||||||||||||||||||||||||||||||||||||||||||||||||||||||||||||||||||",
"||||||||||||||||||||||||||||||||||||||||||||||||||||||||||||||||||||||||||||||||||||||||||||||||||||||||||||||||||||||||||||||||||||||||||||||||||||||||||||||||||||||||||||||||||||||||||||||||||||||||||||||||",
"|||||||||||||||||||||||||||||||||||||||||||||||||||||||||||||||||||||||||||||||||||||||||||||||||||||||||||||||||||||||||||||||||||||||||||||||||||||||H||||||||||||||||||||||||||||||||||(````|||||||||||||||||",
"||||||||||||||||||||||||||||||||||||||||||||||||||||||||||||||||||||||||||||||||||||||||||||||||||||||||||||||||||||||||||||||||||||||||||||||||||||||||||||||||||||||||||||||||||||||||||(````(||||||||||||||||",
"||||||||||||||||||||||||||||||||||//|||||||||||||||||||||||||||||||||||||||||||||||||||||||||||||||||||||||||o+o|||o+o||||||||||||||||||||||||||||||||HHH|||||||||||||||||||||||||||||||||||((||||||||||||||||||",
"||||||||||||||||||||||||||||||||||||/|||||||||||||||||||||||||||||||||||||||||||||||||||||||||||||||||||||||||o|+++|o+|||||||||||||||||||||||||||||||||H|||||||||||||||||||uu4p98up4||||||||||||||||||||||||||||",
"||||||||||||||||||||||||||||||||||||/||||||||||||||||||||||||||||||||||||||||||||||||||||||||||||||||||||||||||+o++o+||||||||||||||||||||||||||||||||||H|||||||||||||||||717777777777u||||||||||||||||||||||||||",
"||||||||||||||||||||||||||||||||||||^||||||||||||||||||||||||||||||||||||||||||||||||||||||||||||||||||||||||oooo|ooooo|||||||||||||||||||,|||||||||||HH|||||||||||||||||>,,,,,,,,,,>||||||||{{[[{||||||||||||||",
"|||||||||||||||||SS||||S|||||||||||/|||||||||||||||||||||||||||||||||||||||||||||||||||||||||||||||||||||||||+o++|+o++|||||||||||||||||||<||||||||||||HHH||||||||||||||||;,yiii,,,,,>||||||||{[[{]||||||||||||||",
"|||||||||||||||||mmm||mm|||||||||:---;|||||||||||||||||||||||||||||||||||||||||||||||||||||||||||||||||||||||oooo|oooo|||||||||||||||||||,<||||||||||HHHHHH||||||||||||||>,JETR,yyy,>|||||||||_[{|||||||||||||||",
"|||||||||||||||||mnmbbbb|||||||||::-X:-||||||||||||||||||||||||||||||||||||||||||||||||||||||||||||||||||||||oooo|oooo||||||||||||||||||||,<|||||HHHHHHHH|H||||||||||||||;,JWEQ,TTL,>||||||||||`||||||||||||||||",
"|||||||||||||||ggAAmvvbbfh||||||||-a-||||||||||||||||||||||||||||||||||||||||||||||||||||||||||||||||||||||||oooo|oooo||||||||||||||||||||,|||||||HHHH|||||||||||||||||||>,JEEQ,YTY,>|||||||||||||||||||||||||||",
"|||||||||||||||}xnvghdfvbh}||||||||/-||||||||||||||||||||t,||[|||||||||||||||||||||||||||||||||||||||||||||||oooo|oooo||||||||||||||||||||,|||||||HH|||||||||||||||||||||>,JWRR,YTY,>|||||||||  . .|||||||||||||",
"|||||||||||||||dfbzffdfvChh||||||||i||||||||||||||||||||{{[>||||||||||||||||||||||||||||||||||a||a|||||||||||oooo|oooo|||||||||||||||||||,>,||||||H||||||||||||||||||||||>,DQKU,KLL,>|||||||||l%%6l|||||||||||||",
"|||||||||||||||dfnzffddvChh||||||||/||||||||||||||||||||[9/{>||||||||||||||||||||||||||||||||11|11|||||||||||+Ooo|oooo||||||||||||||||||,>,,><|||H|||||||||||||||||||||||>,,,,,,,,,,>|||||||||bbmbc|||||||||||||",
"|||||||||||||||gfnxfdddvvfh||||||||J|||||||||||||||||;-|{i{`||||||||||||||||||||||||||||||||t11|11||||||||||||||||||||||||||||||||||<>,,,,>,|||||H|||||||||||||||||||||||;,,,,,,,,,,>|||||||||bbmbc|||||||||||||",
"|||||||||||||||@fnxddddlbfj||||||||||||||||||||||||||/[a[[{||||||||||||||||||||||||||||||||||71|11|||||||||||||||||||||||||||||||||||,>,>||||||||||||||||||||||||||||||||<,,,,,,,,,,>|||||||||bbbbc|||||||||||||",
"|||||||||||||||@%nx@d@dcvff|||||||||||||||||||||||||||7<//--|||||||||||||||||||||||||||||||||t1|11|||||||||||||||||||||||||||||||||||>,||||||||||||||||||||||||||||||||||:;;;;;;;;;;-|||||||||ccccl|||||||||||||",
"||||||||rrra|||@%mxdd@@Mvd||||||||||||||rrw|||||')])|| %%;-X-|||||||||||||||||||))))|||zVNN||11|11|||||||||||||||||||||zNkk||||IPPI||,|||||||||||||||||||||||||IPII||||#ssssssssOsssssssssssssssOOsOo|||||||||||",
"||||||||eeww||||||x@@@d||||||||||||||||awee|||||''''||>,::Ai$X||||||||||||||||||''''|||zCCB||||||||||||||||||||||||||||NBBB||||PPPP|,||||||||||||||||||||||||||PPPP||||#sssssOssssssssssssssOssssOsOo|||||||||||",
"||||g|||eeew|||||||||||||||||||||||||||weee|||||''''||>,;X[:GX||||||||||||||||||''''|||zBBB|||||||||ll|||ll||||||||||||NBBB||||PPPP||||||||||||||||||||||||||||PPPI||||#sssssssOssssssssOsssssOssssso|||||||||||",
"||j}h%3|eeer|||||||||||||||||||||||||||aeee|||||''''||>,,,>X=X||||||||||||||||||''''|||zBBB|||||||||l|l|l|l||||||||||||NBBB||||PPPP||||||||||||||||||||||||||||PPPP||||#sssssssssssssOsOsssssssOsOsOo|||||||||||",
"|ghjg@$gteer|||||||||||||||||||||||||||aeee|||||''''||/,,>,yX|||||||||||||||||||''''|||zBBC||||||||||lllll|||||||||||||NCCB||||PPPP||||||||||||||||||||||||||||PPPP||||#ssssssssssOsssssssOOOOssOOOO#|||||||||||",
"||gg|gjjirrrwwwwwwwwwwwwwwwwwwwwrrwwwwwrwwe|||||')')'''''''']''])''')''')''')'')''')|||zVVNNVVNNVVVkMNNMNMkMVVVVVVVVkkVNVVN||||IPPPPPPPPPPIPPPPPPPPPPPPPPPPPPPPPPPI||||LLLKKKKKKKKKKKKKKKKKKKKKKKKKRLLi|||||||||",
"||||||!j*eeeeeeeeeeeeeeeeeeeeeeeeeeeeeeeeee|||||'')''''''''']'''''''''''''''''''''')|||zCBCNCCCBCBBBBBCCBBBBBCBBBBCBBBCBCBV||||PPPPPPPPPPPPPPPPPPPPPPPPPPPPPPPPPPPP||||WWTWTTEEEEYYYTTTWTTYRYYYTYYEEEWy ||||||||",
"||||||gh&tr374qeeeeeeeeeeeeeeeeeeeqyqeeeeeepbmmS'')3p9^'''''''''''''''''''_Zi_'''''{mmmkCBv66xCCBBBBBBCBBBBBBBBBBBBx6xBBBBBmmbbPP!U&&IPPPPPPPPPPPPPPPPPPPP!&&UPPPPPbmmZWWUi*KEEEEL*&KTTTT&4u*YEWWWEEEWy ||||||||",
"||||||@@$w39888qeeeeeeeeeeeeeeeee58883reeeea||||')48880('''''''''''''''''^4800~'''''|||zBk39996CBBBBBBBBBBBCBBBBCV58995NBBV||||PP&9994UPPPPPPPPPPPPPPPPPPg4897&PPPP||||Yi7888DR~*0884*TRi88p8iRFFFWWYWa  |||||||",
"||||||||$y888887eeeeeeeeeeeeeeeeq988882eeee|||||'i900985'''''''''''''''''408999_''''|||zB599899xBCBBBBBBCNBBBBBBC6880096BBB||||PU999994PPPPPPPPPPPPPPPPPP4p8998UPPI||||L893084RL888884RL084388DFFFYYLKy   ||||||",
"|||||||||2p9 288||||||||||||||||599.883||||||||||388 284|||||||||||||||||08$$88||||||||||882X482||||lllZlll||||||584.383||||||||$99.299||||||||||||||||||89$X88*|||||||$88 $8p|ZAA$&AA|upA$$pp*FFF|390||||||||||",
"||||||||||89$484||||||||||||||||398.493||||||||||288$382|||||||||||||||||88X$98||||||||||08$.882||||lll|lll||||||293.888|||||||||99.298||||||||||||||||||89$$48||||||||$98230p||AAupAp||AAAuAAZFFF&3 42|||||||||",
"||||||||||88p882|||||||||||||||||889892|||||||||||88888||||||||||||||||||488988||||||||||299988||||||||||||||||||$999992|||||||||888888||||||||||||||||||49988A|||||||||888883||888884||299983|FFF|8$8||||||||||",
"|||||||||||3782||||||||||||||||||28992|||||||||||||388$|||||||||||||||||||8898||||||||||||39992|||||||||||||||||||29892||||||||||$8983||||||||||||||||||||5998||||||||||$8884||||8884||||2903|||||||2$||||||||||",
"||||||||||||||||||||||||||||||||||||||||||||||||||||||||||||||||||||||||||||||||||||||||||||||||||||||||||||||||||||||||||||||||||||||||||||||||||||||||||||||||||||||||||||||||||||||||||||||||||||||||||||||||",
"||||||||||||||||||||||||||||||||||||||||||||||||||||||||||||||||||||||||||||||||||||||||||||||||||||||||||||||||||||||||||||||||||||||||||||||||||||||||||||||||||||||||||||||||||||||||||||||||||||||||||||||||"
};
