/* XPM */
XPM_TYPE* mAmericanFlag[] = {

    "96 66 6 1",

    "  c None",
    "@ c black",
    "w c white",

    "- c #a8a8a8",
    "% c #dbdbdb",
    ", c #b4b4b4",

"      @@@@                                                                                      ",
"     @wwww@                                                                                     ",
"    @wwwwww@                                                                                    ",
"    @wwwwww@                                                                                    ",
"    @wwwwww@                                                                                    ",
"    @wwwwww@                                                                                    ",
"     @wwww@                                                                                     ",
"      @@@@                  @@@@@@@@@@@@                                                        ",
"       ww             @@@@@@,@@@@,,@@@,@@@@@                                                    ",
"     @@@@@@      @@@@@@,,@@@,,@@@,,@@@,,@@,@@                                                   ",
"     @@@@@@    @@@,@@@@,,@@@@@@@@@@@,@@@@@,,@@                                                  ",
"      @@@@     @@,,@@@@@@@,,@@@,,@@@,,@@,,@@@,@                                                 ",
"       @@@      @,,@@,@@@@,,@@@,,@@@@@@@@,@@@,,@                                                ",
"       @@@      @@@@,,@@@@@@@,,@@@,,@@@,,@@,@,,@                        @@@@@@@@@@@@@@@@@@      ",
"       @@@      @@@@@@@,,,@@@,,@@@,,@@@,,@@,,,,@@                @@@@@@@@%%%%%%%%%%%%%%%%%@@    ",
"       @@@@     @@,,@@@,,@@@@@@@,,@@@,,@@,,@@@@,@@         @@@@@@%%%%%%%%%%%@@@@@@@%%%%%%%%%@@  ",
"        @@@     @@,,@@@@@@,,@@@@,,@@@,,@@,,@@@,,,@       @@@%%%%%%%%%%@@@@@@%%%%%%%@@@@@@@@%%@  ",
"        @@@     @@,@@,,@@@@,@@@@@@@,,@@@,@@@@@@,,@@    @@@%%%%%%%@@@@@%%%%%%%%%%%%%%%%%%%%%@@@  ",
"        @@@     @@@@@,,@@@@@@,,,@@@,,@@@,@@@,,,,@,@ @@@@%%%%%@@@@%%%%%%%%%%%%%%%%%%%%%%%%%%%%@  ",
"        @@@     @@@@@@@@,,@@@@,,@@@@@@,@@@@@@,@@@@@@%%%%%%@@@%%%%%%%%%@@@@@@@%%%%%%%%%%%%%%%@@  ",
"        @@@     @@@,@@@@,,@@@@@@,,,@@@,,@@,,@@@,@,@%%@@@@@%%%%%%@@@@@@%%%%%%%@@@@@@@@@@%%%%%@   ",
"         @@@     @,,@@@@@@@,,@@@@,,@@@@@@,@,@@@@,@@@@%%%%%%@@@@@%%%%%%%%%%%%%%%%%%%%%%%@@@%%@   ",
"         @@@     @@@@@,,@@@,,@@,@@@,,,@@,,@@@,@@@,,@%%%@@@@%%%%%%%%%%%%%%%%%%%%%%%%%%%%%%%@@@   ",
"         @@@     @@@@@,,@,@@@@,,@@@@,,@@@,@@@,,@,@,@%%%%%%%%%%%%%%%%%%@@@@@@@%%%%%%%%%%%%%%%@   ",
"         @@@     @@@@@@@,,,@@@@,@@,,@@@,,@@,,@@@,@,@@%%%%%%%%%%%@@@@@@%%%%%%%@@@@@@@@%%%%%%%@   ",
"         @@@     @@,,@@@@,,@,,@@@,,,@@@,@@@@,@@@@@@,@%%%%%%@@@@@%%%%%%%%%%%%%%%%%%%%%@%%%%%%@   ",
"          @@@    @@,,@@@@@@@,,@@@@,@@,@@@,,@@@,@,,,@@%%@@@@%%%%%%%%%%%%%%%%%%%%%%%%%%%@@@@%@@   ",
"          @@@    @@,@@,,@@@@@@@,,@@@,,,@@@,@@@,,@,@,@%%%%%%%%@@@@@%%%%%%%%%%%%%%%%%%%%%%%%%%@   ",
"          @@@    @@@@@,,@@,@@@@,,@@@@@@@@@@@@@@@@@@@@@%%%@@@@%%%%%%%%%%%%%%%%%%%%%%%%%%%%%%@@   ",
"          @@@    @@@@@@@@,,@@@@@@@@@------------@@@@@@%%%%%%%%%%%%%%%%%%@@@@@@@%%%%%%%%%%%%%@   ",
"          @@@    @@@,,@@@@@@@@@----------------------@%%%%%%%%%%%%@@@@@@%%%%%%%@@@@@@@@@%%%%@   ",
"          @@@     @,,,@@----------------@@@@@@@------@%%%%%%%@@@@@%%%%%%%%%%%%%%%%%%%%%%@@@%@   ",
"           @@@    @@@@-------------@@@@@-------@@@---@%%%@@@@%%%%%%%%%%%%%%%%%%%%%%%%%%%%%%%@   ",
"           @@@    @@-----------@@@@------------------@@%%%%%%%%%%%%%%%%%%@@@@@@@%%%%%%%%%%%@@   ",
"           @@@    @--------@@@@-----------@@@@@@------@%%%%%%%%%%%%@@@@@@%%%%%%%@@@@@@@@@%%@    ",
"           @@@    @----@@@@---------@@@@@@------@@@@@-@%%%%%%%@@@@@%%%%%%%%%%%%%%%%%%%%%%@%@    ",
"           @@@     @@@@---------@@@@------------------@@%%@@@@%%%%%%%%%%%%%%%%%%%%%%%%%%%%%@    ",
"            @@@    @@-------@@@@------------@@@@@@@@---@%%%%%%%%%%%%%%%%%@@@@@@@%%%%%%%%%%%@    ",
"            @@@    @----@@@@----------@@@@@@--------@@-@%%%%%%%%%%%@@@@@@%%%%%%%@@@@@@@@@%%@    ",
"            @@@    @--@@----------@@@@-----------------@%%%%%%@@@@@%%%%%%%%%%%%%%%%%%%%%%@%@    ",
"            @@@     @@--------@@@@----------------@@---@%%@@@@%%%%%%%%%%%%@@%%@@%%%%%%%%%%%@    ",
"            @@@     @-----@@@@---------@@@@@@@@@@@--@@-@%%%%%%%%%%%%@@@@@@%%@@%%%@@@@@@@@@%@    ",
"            @@@      @--@@---------@@@@----------------@@%%%%%%@@@@@%%%%%%%%%%%%%%%%%%%%%%%@    ",
"             @@@     @--------@@@@----------------------@%%@@@@%%%%%%%%%%%%%%%%%%%%%%%%%%%%@    ",
"             @@@     @----@@@@---------@@@@@@@@@@@@@@---@%%%%%%%%%%%%%%%%@@@@@@@%%%%%%%%%%%@    ",
"             @@@      @-@@---------@@@@--------------@@-@%%%%%%%%%%@@@@@@%%%%%%%@@@@@@@@@%%@    ",
"             @@@      @--------@@@@--------------------@@%%%%%@@@@@%%%%%%%%%%%%%%%%%%%%%%@%@    ",
"             @@@       @---@@@@--------------@@@@@@----@%%@@@@%%%%%%%%%%%@@@@@@@%%%%%%%%%%%@    ",
"              @@@      @-@@------------@@@@@@------@@-@@%%%%%%%%%%%@@@@@@%%%%%%%@@@@@@@@@%%@    ",
"              @@@      @@------@@@@@@@@--------------@@%%%%%%%@@@@@%%%%%%%%%%%%%%%%%%%%%%@@@    ",
"              @@@      @---@@@@---------------@@@@@@-@%%%%@@@@%%%%%%%%%%%@@@@@%%%%%%%%%%%%@     ",
"              @@@      @@@@-------------@@@@@@      @@%%%%%%%%%%%%@@@@@@%%%%%%%@@@@@@@@@%%@     ",
"              @@@       @---@@@@@@@@@@@@             @%%%%%%%@@@@@%%%%%%%%%%%%%%%%%%%%%%%%@     ",
"              @@@@     @--@@@@@@                    @@%%%%%@@%%%%%%%%%%%%%%%%%%%%%%%%%%%%%@     ",
"               @@@     @@@@@@                      @@%%%%%@%%%%%%%%%%%%@@@@@@@@@@@@@@@@@%@@     ",
"               @@@    @@@@                         @@@@@@@ @%%%%%%@@@@@                 @@@     ",
"               @@@                                @@        @@@@@@                              ",
"               @@@                                                                              ",
"               @@@                                                                              ",
"                @@@                                                                             ",
"                @@@                                                                             ",
"                @@@                                                                             ",
"                @@@                                                                             ",
"                @@@                                                                             ",
"                 @@@                                                                            ",
"                 @@@                                                                            "};
