/* XPM */
/* -copyright-
#-# 
#-# plasmasnow: Let it snow on your desktop
#-# Copyright (C) 1984,1988,1990,1993-1995,2000-2001 Rick Jansen
#-# 	      2019,2020,2021,2022,2023 Willem Vermin
#-#          2024 Mark Capella
#-# 
#-# This program is free software: you can redistribute it and/or modify
#-# it under the terms of the GNU General Public License as published by
#-# the Free Software Foundation, either version 3 of the License, or
#-# (at your option) any later version.
#-# 
#-# This program is distributed in the hope that it will be useful,
#-# but WITHOUT ANY WARRANTY; without even the implied warranty of
#-# MERCHANTABILITY or FITNESS FOR A PARTICULAR PURPOSE.  See the
#-# GNU General Public License for more details.
#-# 
#-# You should have received a copy of the GNU General Public License
#-# along with this program.  If not, see <http://www.gnu.org/licenses/>.
#-# 
*/
XPM_TYPE *BigSantaRudolf4[] = {
/* width height num_colors chars_per_pixel */
"   176    34       19            1",
/* colors */
". c #ffffff",
"# c #ff9933",
"a c #ff0000",
"b c #f1f1f1",
"c c #cccccc",
"d c #cc9999",
"e c #cc9933",
"f c #cc6633",
"g c #cc0000",
"h c none",
"i c #b2b2b2",
"j c #993333",
"k c #990000",
"l c #663300",
"m c #33cc00",
"n c #111111",
"o c #009900",
"p c #0066cc",
"q c #003399",
/* pixels */
"hhhhhhhhhhhhhhhhhhhhhhhhhhhhhhhhhhhhhhhhhhhhhhhhhhhhhhhhhhhhhhhhhhhhhhhhhhhhhhhhhhhhjhhhhhhhhhhhhhhhhhhhhhhhhhhhhhhhhhhhhhhhhhhhhhhhhhhhhhhhhhhhhhhhhhhhhhhhhhjhhhjhhhhhhhhhhhhh",
"hhhhhhhhhhhhhhhhhhhhhhhhhhhhhhhhhhhhhhhhhhhhhhhhhhhhhhhhhhhhhhhhhhhhhhhhhhhhhhhjhhhhjhjjjhhhhhhhhhhhhhhhhhhhhhhhhhhhhhhhhhjhhhjhhhhhhhhhhhhhhhhhhhhhhhhhhhhhhhjjhhjjhjjjhhhhhhhh",
"hhhhhhhhhhhhhhhhhhhhhhhhhhhhhhhhhhhhhhhhhhhhhhhhhhhhhhhhhhhhhhhhhhhhhhhhhhhhhhhjjhhhjjjhhhhhhhhhhhhhhhhhhhhhhhhhhhhhhhhhhhjjhhjjhhhhhhhhhhhhhhhhhhhhhhhhhhhhhhhjjhhjjjhhhhhhhhhh",
"hhhhhhhhhhhhhhhhhhhhhhhhhhhhhhhhhhhhhhhhhhhhhhhhhhhhhhhhhhhhhhhhhhhhhhhhhhhhhhhhjjjhjjhhhhhhhhhhhhhhhhhhhhhhhhhhhhhhhhhhhhhjjhhjjjjhhhhhhhhhhhhhhhhhhhhhhhhhhhhhjjjjhhhhhhhhhhhh",
"hhhhhhhhhhhhhhhhhhhhhhhhhhhhhhhhhhhhhhhhhhhhhhhhhhhhhhhhhhhhhhhhhhhhhhhhhhhhhhhhhhjjjhhhhhhhhhhhhhhhhhhhhhhhhhhhhhhhhhhhhhhhjjjjhhhhhhhhhhhhhhhhhhhhhhhhhhhhhhhhhhjjhhhhhhhhhhhh",
"hhhhhhhhhhhhhhhhhhhhhhgggghhhhhhhhhhhhhhhhhhhhhhhhhhhhhhhhhhhhhhhhhhhhhhhhhhhhhhhhhhjhhhhhhhhhhhhhhhhhhhhhhhhhhhhhhhhhhhhhhhhjjhhhhhhhhhhhhhhhhhhhhhhhhhhhhhhhhhhhhjjhhhhhhhhhhh",
"hhhhhhhhhhhhhhhhhhhhggkgggghhhhhhhhhhhhhhhhhhhhhhhhhhhhhhhhhhhhhhhhhhhhhhhhhhhhhhhhhjjhhhhhhjhhhhhhhhhhhhhhhhhhhhhhhhhhhhhhhhhjhhhhhhhhhhhhhhhhhhhhhhhhhhhhhhhhhhhhjjhhhhhhjhhhh",
"hhhhhhhhhhhhhhhhhhhkgkgggggghhhhhhhhhhhhhhhhhhhhhhhhhhhhhhhhhhhhhhhhhhhhhhhhhhhhhhhhhjjhhhhhjjjjhhhhhhhhhhhhhhhhhhhhhhhhhhhhhhjjhhhhhhhjhhhhhhhhhhhhhhhhhhhhhhhhhhhhjjhhhhhjhjjh",
"hhhhhhhhhhhhhhhhhhggkggkgggggbhhhhhhhhhhhhhhhhhhhhhhhhhhhhhhhhhhhhhhhhhhhhhhhhhhhhhhhhjjhhhhjjjhhhhhhhhhhhhhhhhhhhhhhhhhhhhhhhhjjhhhhhjjjjhhhhhhhhhhhhhhhhhhhhhhhhhhhjjhhhhjjjhh",
"hhhhhhhhhhhhhhhhhgkkgkkgkgggchhhhhhhhhhhhhhhhhhhhhhhhhhhhhhhhhhhhhhhhhhhhhhhhhhhhhhhhhhjjjjjjjhhhhhhhhhhhhhhhhhhhhhhhhhhhhhhhhhhjjjhhjjjjhhhhhhhhhhhhhhhhhhhhhhhhhhhhhjjjjjjjhhh",
"hhhhhhhhhhhhhhhhgkhhhggkggdbdhhhhhhhhhhhhhhhhhhhhhhhhhhhhhhhhhhhhhhhhhhhhhhhhhhhhhhhhhhhhjjhhhhhhhhhhhhhhhhhhhhhhhhhhhhhhhhhhhhhhhjjjjhhhhhhhhhhhhhhhhhhhhhhhhhhhhhhhhhhjjhhhhhh",
"hhhhhhhhhhhhhhh.khhhhhkggdbnddhhhhhhhhhhhhhhhhhhhhhhhhhhhhhhhhhhhhhhhhhhhhhhhhhhhhhhhhhjfffffhhhhhhhhhhhhhhhhhhhhhhhhhhhhhhhhhhhhffffffhhhhhhhhhhhhhhhhhhhhhhhhhhhhhhhjffffhhhhh",
"hhhhhhhhhhhhhh...hhhhhgcbcdddddhhhhhhhhhhhhhhhhhhhhhhhhhhhhhhhhhhhhhhhhhhhhhhhhhhhhhnnfjjlljffhhhhhhhhhhhhhhhhhhhhhhhhhhhhhhhhffljjfjffhhhhhhhhhhhhhhhhhhhhhhhhhhhhhffljjfjffhhh",
"hhhhhhhhhhhhhhh.hhhhhhcccbcdccddhhhhhhhhhhhhhhhhhhhhhhhhhhhhhhhhhhhhffffffhhhhhhffffnnflllffnffhhhhhhhhhhhhffffffffhhhhhhffnnfffljlffnffhhhhhhhhhhhffffffhhhhhhfffnnnffllffnffhh",
"hhhhhhhhhhhhhhhhkgghhhhcccbbcbbdhhhhhhhhhhhhhhhhhhhhhhhhhhhhhhhhhffffffffffffffffffffnnfffffffffhhhhhhhhhfffffffffffffffffffnnffffffffffhhhhhhhhfffffffffffffffffffnnffffffffaaa",
"hhhhhhhhhhhhhhhhggghhhhcbcccbcbhhhnhhhhhhhhhhhhhhhhhhhhhhhhhhhhhhfffffffffffffffffffffnnffjjjfflhhhhhhhhhffffffffffffffffffffnnfffjjfffffnhnhnhnffffffffffffffffffffnnfffjjffaaa",
"hhhhhhhhhhhhhhhckgkjjhhkkkcbccbhhgghhhhhhhhhhhhhhhhhhhhhhhhhhhhhfffffffffffffffffffffffnnjjjjjflnhnhnhnhfffffffffffffffffffffffnjjjjfffflhhhhfffffffffffffffffffffffnnnjjjfjfaaa",
"hhhhhhhbhbhhmgoccccjjhkgkkkkbiggbggghhhhhhhhhhhhhhhhhhhhhhhhhhnhffffffffffjjjfffffffffjfnnhhhjjhhhhhhhhhffffffffffjjjfffffffffjfnjjhhhfflhhhhffffffffffjjjfffffffffjffnnjhhhjfhh",
"hhhchpcpbpghmg##g#gjjhkggggkggggbgggnnnhnhnhnnhnhnhnhnnhnhnhnhhhjfffffffffjjjfffffffjjfjjnnnhhhhhhhhhhhhjfffffffffjjjfffffffjjfjnnhhhhhhhhhhhjfffffffffjjjfffffffjjfjjfnhhhhhhhh",
"hhhcccppggqgbgm##gghjjkggggggkkkhhhhhhhhhhhhhhhhhhhhhhhhhhhhhhhhfffffffffffjjfffffffjjjfnnnnnnnnnnnnnnnnfffffffffffjjfffffffjjjfnnnnhhhhhhnnnfffffffffffjjfffffffjjjfjfhhhhhhhhh",
"hoo#coooggqggppq#pqpjjkkgkgkkkgbhhhhjjhhhhhhhhhhhhhhhhhhhhhnnnnnjffffffffffjfjjjfffffjjhhhhhnnnnnnnnnnnnjffffffffffjfjjjfffffjjhnnnnnnnnnnnnnjffffffffffjfjjjfffffjjhhhhhhhhhhhh",
"hoeoceoogbqggppp#pppjjkkggkkggggbhhjhjnnnnnnnnnnnnnnnnnnnnnnnnnnjjffffffffjjfjjfffffffjhhhhhhhhhhhhhhhhhjjffffffffjjfjjfffffffjhhhhhnnnnnnnhhjjffffffffjjfjjfffffffjhhhhhhhhhhhh",
"hooocooeggqghppp#pqpjjkkkggggggggbhhhjjnnnnnnnnnnnnnnnnnnnnhhhhhhjjffffffjjffjjjjffffffhhhhhhhhhhhhhhhhhhjjffffffjjffjjjjffffffhhhhhhhhhhhhhhhjjffffffjjffjjjjffffffhhhhhhhhhhhh",
"hjeoceoohhhhhppq#pppjjjkkkgggggggbhhhhjjhhhhhhhhhhhhhhhhhhhhhhhhhhhhfffffjhhhhhhjjjffffhhhhhhhhhhhhhhhhhhhhhfffffjhhhhhhjjjffffhhhhhhhhhhhhhhhhhhfffffjhhhhhhjjjffffhhhhhhhhhhhh",
"j#ooco#ohhhhhppp#qpphjjkkkkkggggggbhhhjjhhhhhhhhhhhhhhhhhhhhhhhhhhhffffjjhhhhhhhhhhfffjhhhhhhhhhhhhhhhhhhhhffffjjhhhhhhhhhhfffjhhhhhhhhhhhhhhhhhffffjjhhhhhhhhhhfffjhhhhhhhhhhhh",
"jhhhhhhhhhhhhhhhhhhhhjjhkkkkkkggggbhhhjjhhhhhhhhhhhhhhhhhhhhhhhhhhhfffjhhhhhhhhhhhhhfffhhhhhhhhhhhhhhhhhhhhfffjhhhhhhhhhhhhhfffhhhhhhhhhhhhhhhhhfffjhhhhhhhhhhhhhfffhhhhhhhhhhhh",
"hjjjjjjjjjjjjjjjjjjjjjjjjjjjjjjjjjjjjjjjhhhhhhhhhhhhhhhhhhhhhhhhhhfffjjhhhhhhhhhhhhhffffhhhhhhhhhhhhhhhhhhfffjjhhhhhhhhhhhhhffffhhhhhhhhhhhhhhhfffjjhhhhhhhhhhhhhffffhhhhhhhhhhh",
"hllllllllllllllllllllllllllllllllllllljjhhhhhhhhhhhhhhhhhhhhhhhhhhffjjhhhhhhhhhhhhhhhfffhhhhhhhhhhhhhhhhhhffjjhhhhhhhhhhhhhhhfffhhhhhhhhhhhhhhhffjjhhhhhhhhhhhhhhhfffhhhhhhhhhhh",
"hhhhhllhhhhhhhhhhhhhhhhhhhllkkkkkkbhhhjjhhhhhhhhhhhhhhhhhhhhhhhhhhffjjhhhhhhhhhhhhhhhjffhhhhhhhhhhhhhhhhhhffjjhhhhhhhhhhhhhhhjffhhhhhhhhhhhhhhhffjjhhhhhhhhhhhhhhhjffhhhhhhhhhhh",
"hhhhhllhhhhhhhhhhhhhhhhhhhllbbbbbbnnhhjjhhhhhhhhhhhhhhhhhhhhhhhhhhnfjnhhhhhhhhhhhhhhhjffhhhhhhhhhhhhhhhhhhnfjnhhhhhhhhhhhhhhhjffhhhhhhhhhhhhhhhnfjnhhhhhhhhhhhhhhhjffhhhhhhhhhhh",
"hhjhhllhhhhhhhhhhhhhhhhhhhllhhnnnnnnhjjjhhhhhhhhhhhhhhhhhhhhhhhhhhnnhhhhhhhhhhhhhhhhjjffhhhhhhhhhhhhhhhhhhnnhhhhhhhhhhhhhhhhjjffhhhhhhhhhhhhhhhnnhhhhhhhhhhhhhhhhjjffhhhhhhhhhhh",
"hjhhhllhhhhhhhhhhhhhhhhhhhllhhhnnnhhjjjhhhhhhhhhhhhhhhhhhhhhhhhhhhhhhhhhhhhhhhhhhhhhnnfnhhhhhhhhhhhhhhhhhhhhhhhhhhhhhhhhhhhhnnfnhhhhhhhhhhhhhhhhhhhhhhhhhhhhhhhhhnnfnhhhhhhhhhhh",
"hhjjjjjjjjjjjjjjjjjjjjjjjjjjjjjjjjjjjjhhhhhhhhhhhhhhhhhhhhhhhhhhhhhhhhhhhhhhhhhhhhhhhhnnhhhhhhhhhhhhhhhhhhhhhhhhhhhhhhhhhhhhhhnnhhhhhhhhhhhhhhhhhhhhhhhhhhhhhhhhhhhnnhhhhhhhhhhh",
"hhhhhhhhhhhhhhhhhhhhhhhhhhhhhhhhhhhhhhhhhhhhhhhhhhhhhhhhhhhhhhhhhhhhhhhhhhhhhhhhhhhhhhhhhhhhhhhhhhhhhhhhhhhhhhhhhhhhhhhhhhhhhhhhhhhhhhhhhhhhhhhhhhhhhhhhhhhhhhhhhhhhhhhhhhhhhhhh"
};
