/* XPM */
/* -copyright-
#-# 
#-# plasmasnow: Let it snow on your desktop
#-# Copyright (C) 1984,1988,1990,1993-1995,2000-2001 Rick Jansen
#-# 	      2019,2020,2021,2022,2023 Willem Vermin
#-# 
#-# This program is free software: you can redistribute it and/or modify
#-# it under the terms of the GNU General Public License as published by
#-# the Free Software Foundation, either version 3 of the License, or
#-# (at your option) any later version.
#-# 
#-# This program is distributed in the hope that it will be useful,
#-# but WITHOUT ANY WARRANTY; without even the implied warranty of
#-# MERCHANTABILITY or FITNESS FOR A PARTICULAR PURPOSE.  See the
#-# GNU General Public License for more details.
#-# 
#-# You should have received a copy of the GNU General Public License
#-# along with this program.  If not, see <http://www.gnu.org/licenses/>.
#-# 
*/
XPM_TYPE *BigSanta3[] = {
/* width height num_colors chars_per_pixel */
"   176    34       17            1",
/* colors */
". c #ffffff",
"# c #ff9933",
"a c #f1f1f1",
"b c #cccccc",
"c c #cc9999",
"d c #cc9933",
"e c #cc6633",
"f c #cc0000",
"g c none",
"h c #993333",
"i c #990000",
"j c #663300",
"k c #33cc00",
"l c #111111",
"m c #009900",
"n c #0066cc",
"o c #003399",
/* pixels */
"gggggggggggggggggggggggggggggggggggggggggggggggggggggggggggggggggggggggggggggggggggggghggggggggggggggggggggggggggggggggggggggggggggggggggggggggggggggggggggggggggggggggggggggggg",
"ggggggggggggggggggggggggggggggggggggggggggggggggggggggggggggggggggggggggggggggggghgggghghhhggggggggggggggggggggggggggggggggggggggggggggggggggggggggggggggggggggghggghggggggggggg",
"ggggggggggggggggggggggggggggggggggggggggggggggggggggggggggggggggggggggggggggggggghhggghhhggggggggggggggggggggggggggggggggggghggghggggggggggggggggggggggggggggggghhgghhghhhgggggg",
"gggggggggggggggggggggggggggggggggggggggggggggggggggggggggggggggggggggggggggggggggghhhghhgggggggggggggggggggggggggggggggggggghhgghhggggggggggggggggggggggggggggggghhgghhhgggggggg",
"gggggggggggggggggggggggggggggggggggggggggggggggggggggggggggggggggggggggggggggggggggghhhgggggggggggggggggggggggggggggggggggggghhgghhhhggggggggggggggggggggggggggggghhhhgggggggggg",
"gggggggggggggggggggggffffggggggggggggggggggggggggggggggggggggggggggggggggggggggggggggghggggggggggggggggggggggggggggggggggggggghhhhgggggggggggggggggggggggggggggggggghhgggggghggg",
"gggggggggggggggggggffiffffgggggggggggggggggggggggggggggggggggggggggggggggggggggggggggghhgggghgggggggggggggggggggggggggggggggggghhggggggghgggggggggggggggggggggggggggghhggggghghh",
"ggggggggggggggggggififfffffgggggggggggggggggggggggggggggggggggggggggggggggggggggggggggghhggghhhhgggggggggggggggggggggggggggggggghgggggghhhhgggggggggggggggggggggggggghhggggghhhg",
"gggggggggggggggggffiffifffffaggggggggggggggggggggggggggggggggggggggggggggggggggggggggggghggghhhggggggggggggggggggggggggggggggggghhgggghhhhgggggggggggggggggggggggggggghhgggghhgg",
"ggggggggggggggggfiifiififffbgggggggggggggggggggggggggggggggggggggggggggggggggggggggggggghhhhhhggggggggggggggggggggggggggggggggggghhggghgggggggggggggggggggggggggggggggghhghhgggg",
"gggggggggggggggfigggffiffcacgggggggggggggggggggggggggggggggggggggggggggggggggggggggggggggghhgggggggggggggggggggggggggggggggggggggghhhhhggggggggggggggggggggggggggggggggghhhggggg",
"gggggggggggggg.igggggiffcalccgggggggggggggggggggggggggggggggggggggggggggggggggggggggggggheeeeeggggggggggggggggggggggggggggggggggggeeeeeegggggggggggggggggggggggggggggggheeeegggg",
"ggggggggggggg...gggggfbabcccccgggggggggggggggggggggggggggggggggggggggggggggggggggggggllehhjjheeggggggggggggggggggggggggggggggggeejhheheegggggggggggggggggggggggggggggeejhheheegg",
"gggggggggggggg.giffggbbbabcbbccggglggggggggggggggggggggggggggggggggggeeeeeeggggggeeeellejjjeeleeggggggggggggeeeeeeeggggggeeelleeejhjeeleegggggggggggeeeeeeggggggeeellleejjeeleeg",
"ggggggggggggggggfffgggbbbaabaacggffgggggggggggggggggggggggggggggggeeeeeeeeeeeeeeeeeeeelleeeeeeeeegggggggggeeeeeeeeeeeeeeeeeeelleeeeeeeeeeggglglggeeeeeeeeeeeeeeeeeeelleeeeeeeeee",
"ggggggggaongkggbifigggbabbbabafg.fffggglglglglglglglglggggggggggggeeeeeeeeeeeeeeeeeeeeelleehhheejggllglglleeeeeeeeeeeeeeeeeeeelleeehheeeeelgggggleeeeeeeeeeeeeeeeeeeelleeehheeej",
"gggggggaanooofmbbbbhhggiibabbfff.ffflllgggggggggggggggglgglglggggeeeeeeeeeeeeeeeeeeeeeeellhhhhhejlgggggggeeeeeeeeeeeeeeeeeeeeeellhhhheeeejggggggeeeeeeeeeeeeeeeeeeeeeellhhheheej",
"gggbgnbnffofaf##f#fhhgifiiiaffffgggggggggggggggggggggggggggggglgleeeeeeeeeeeeeeeeeeeeeehellggghhgggggggggeeeeeeeeeeeeeeeeeeeeeeellhhgggeejggggggeeeeeeeeeeeeeeeeeeeeeeellhgggheg",
"gggbbbnnffofffk##ffhhgiffffiffffgggggggggggggggggggggggggggggggggeeeeeeheeeeeeeeeeeeehhehhlggggggggggggggeeeeeeheeeeeeeeeeeeehhehhlgggggggggggggeeeeeeheeeeeeeeeeeeehhehhlgggggg",
"gmm#bmmmfaoffnno#nonhhiffffffiiggggggggggggggggggggggggggggggggggeeeeeeehhheeeeeeeeeehhhellllggggggggggggeeeeeeehhheeeeeeeeeehhhellllllllllllllgeeeeeeehhheeeeeeeeeehhhelllggggg",
"gmdmbdmmffofgnnn#nnnhhiififiiifagggghhggggggggggggggggggggggllllleeeeeeehhhhhhhheeeeehhhggllllllllllllllleeeeeeehhhhhhhheeeeehhhgglllllllllllllleeeeeeehhhhhhhheeeeehhhggllggggg",
"gmmmbmmdgggggnnn#nonhhiiffiiffffagghghllllllllllllllllllllllllllleeeeeeeehhhhhhhheeeeehhggggglllllllllllleeeeeeeehhhhhhhheeeeehhgggggggggggggggleeeeeeeehhhhhhhheeeeehhggggggggg",
"gmdmbdmmgggggnno#nnnhhiiiffffffffaggghhlllllllllllllllllllllggggggeeeeeeehghhhhhhheeeeehggggggggggggggggggeeeeeeehghhhhhhheeeeehgggggggggggggggggeeeeeeehghhhhhhheeeeehggggggggg",
"ghmmbm#mgggggnnn#onnhhhiiifffffffagggghhgggggggggggggggggggggggggggeeeeehhggggggggggeeehhggggggggggggggggggeeeeehhggggggggggeeehhgggggggggggggggggeeeeehhggggggggggeeehhgggggggg",
"hgggggggggggggggggggghhiiiiiffffffaggghhgggggggggggggggggggggggggggeeeehhggggggggggggeeeehhggggggggggggggggeeeehhggggggggggggeeeehhgggggggggggggggeeeehhggggggggggggeeeehhgggggg",
"hgggggggggggggggggggghhgiiiiiiffffaggghhggggggggggggggggggggggggggeeeeehggggggggggggggeeeeehggggggggggggggeeeeehggggggggggggggeeeeehgggggggggggggeeeeehggggggggggggggeeeeehggggg",
"ghhhhhhhhhhhhhhhhhhhhhhhhhhhhhhhhhhhhhhhgggggggggggggggggggggggggeeeehhgggggggggggggggggehelgggggggggggggeeeehhgggggggggggggggggehelggggggggggggeeeehhgggggggggggggggggehelggggg",
"gjjjjjjjjjjjjjjjjjjjjjjjjjjjjjjjjjjjjjhhgggggggggggggggggggggggggeeehggggggggggggggggggggellgggggggggggggeeehggggggggggggggggggggellggggggggggggeeehggggggggggggggggggggellggggg",
"gggggjjgggggggggggggggggggjjiiiiiiallghhggggggggggggggggggggggggeeehhgggggggggggggggggggggggggggggggggggeeehhggggggggggggggggggggggggggggggggggeeehhgggggggggggggggggggggggggggg",
"gggggjjgggggggggggggggggggjjaaaaaalllghhggggggggggggggggggggggggeehhhgggggggggggggggggggggggggggggggggggeehhhggggggggggggggggggggggggggggggggggeehhhgggggggggggggggggggggggggggg",
"gghggjjgggggggggggggggggggjjggglllllghhhggggggggggggggggggggggggeeghlgggggggggggggggggggggggggggggggggggeeghlggggggggggggggggggggggggggggggggggeeghlgggggggggggggggggggggggggggg",
"ghgggjjgggggggggggggggggggjjgggggggghhhggggggggggggggggggggggggglegllggggggggggggggggggggggggggggggggggglegllgggggggggggggggggggggggggggggggggglegllgggggggggggggggggggggggggggg",
"gghhhhhhhhhhhhhhhhhhhhhhhhhhhhhhhhhhhhggggggggggggggggggggggggggllggggggggggggggggggggggggggggggggggggggllgggggggggggggggggggggggggggggggggggggllggggggggggggggggggggggggggggggg",
"gggggggggggggggggggggggggggggggggggggggggggggggggggggggggggggggggggggggggggggggggggggggggggggggggggggggggggggggggggggggggggggggggggggggggggggggggggggggggggggggggggggggggggggggg"
};
