/* XPM */
/* -copyright-
#-# 
#-# plasmasnow: Let it snow on your desktop
#-# Copyright (C) 1984,1988,1990,1993-1995,2000-2001 Rick Jansen
#-# 	      2019,2020,2021,2022,2023 Willem Vermin
#-#          2024 Mark Capella
#-# 
#-# This program is free software: you can redistribute it and/or modify
#-# it under the terms of the GNU General Public License as published by
#-# the Free Software Foundation, either version 3 of the License, or
#-# (at your option) any later version.
#-# 
#-# This program is distributed in the hope that it will be useful,
#-# but WITHOUT ANY WARRANTY; without even the implied warranty of
#-# MERCHANTABILITY or FITNESS FOR A PARTICULAR PURPOSE.  See the
#-# GNU General Public License for more details.
#-# 
#-# You should have received a copy of the GNU General Public License
#-# along with this program.  If not, see <http://www.gnu.org/licenses/>.
#-# 
*/
XPM_TYPE *BigSantaRudolf1[] = {
/* width height num_colors chars_per_pixel */
"   176    34       18            1",
/* colors */
". c #ffffff",
"# c #ff9933",
"a c #ff0000",
"b c #f1f1f1",
"c c #cccccc",
"d c #cc9999",
"e c #cc9933",
"f c #cc6633",
"g c #cc0000",
"h c none",
"i c #993333",
"j c #990000",
"k c #663300",
"l c #33cc00",
"m c #111111",
"n c #009900",
"o c #0066cc",
"p c #003399",
/* pixels */
"hhhhhhhhhhhhhhhhhhhhhhhhhhhhhhhhhhhhhhhhhhhhhhhhhhhhhhhhhhhhhhhhhhhhhhhhhhhhhhhhhhhhhhhhhhhhhhhhhhhhhhhhhhhhhhhhhhhhhhhhhhhhhhhhhhhhhhhhhhhhhhhhhhhhhhhhhhhhhhhhhhhhhhhhhhhhhhhh",
"hhhhhhhhhhhhhhhhhhhhhhhhhhhhhhhhhhhhhhhhhhhhhhhhhhhhhhhhhhhhhhhhhhhhhhhhhhhhhhhhhhhhhihhhhhhhhhhhhhhhhhhhhhhhhhhhhhhhhhhhhhihhhihhhhhhhhhhhhhhhhhhhhhhhhhhhhhhhihhhihhhhhhhhhhhh",
"hhhhhhhhhhhhhhhhhhhhhhhhhhhhhhhhhhhhhhhhhhhhhhhhhhhhhhhhhhhhhhhhhhhhhhhhhhhhhhhhihhhhihiiihhhhhhhhhhhhhhhhhhhhhhhhhhhhhhhhhiihhiihhhhhhhhhhhhhhhhhhhhhhhhhhhhhhiihhiihiiihhhhhhh",
"hhhhhhhhhhhhhhhhhhhhhhhhhhhhhhhhhhhhhhhhhhhhhhhhhhhhhhhhhhhhhhhhhhhhhhhhhhhhhhhhiihhhiiihhhhhhhhhhhhhhhhhhhhhhhhhhhhhhhhhhhhiihhiiiihhhhhhhhhhhhhhhhhhhhhhhhhhhhiihhiiihhhhhhhhh",
"hhhhhhhhhhhhhhhhhhhhhhhhhhhhhhhhhhhhhhhhhhhhhhhhhhhhhhhhhhhhhhhhhhhhhhhhhhhhhhhhhiiihiihhhhhhhhhhhhhhhhhhhhhhhhhhhhhhhhhhhhhhiiiihhhhhhhhhhhhhhhhhhhhhhhhhhhhhhhhiiiihhhhhhhhhhh",
"hhhhhhhhhhhhhhhhhhhhhhhgggghhhhhhhhhhhhhhhhhhhhhhhhhhhhhhhhhhhhhhhhhhhhhhhhhhhhhhhhiiihhhhhhihhhhhhhhhhhhhhhhhhhhhhhhhhhhhhhhhiihhhhhhhhhhhhhhhhhhhhhhhhhhhhhhhhhhhiihhhhhhihhhh",
"hhhhhhhhhhhhhhhhhhhhhggjgggghhhhhhhhhhhhhhhhhhhhhhhhhhhhhhhhhhhhhhhhhhhhhhhhhhhhhhhhhihhhhhhiiiihhhhhhhhhhhhhhhhhhhhhhhhhhhhhhhihhhhhhhihhhhhhhhhhhhhhhhhhhhhhhhhhhhiihhhhhihiih",
"hhhhhhhhhhhhhhhhhhhhjgjgggggghhhhhhhhhhhhhhhhhhhhhhhhhhhhhhhhhhhhhhhhhhhhhhhhhhhhhhhhiihhhhhiiihhhhhhhhhhhhhhhhhhhhhhhhhhhhhhhhiihhhhhiiiihhhhhhhhhhhhhhhhhhhhhhhhhhiihhhhhiiihh",
"hhhhhhhhhhhhhhhhhhhggjggjgggggbhhhhhhhhhhhhhhhhhhhhhhhhhhhhhhhhhhhhhhhhhhhhhhhhhhhhhhhiihhhhihhhhhhhhhhhhhhhhhhhhhhhhhhhhhhhhhhhiihhhiiiihhhhhhhhhhhhhhhhhhhhhhhhhhhhiihhhhiihhh",
"hhhhhhhhhhhhhhhhhhgjjgjjgjgggchhhhhhhhhhhhhhhhhhhhhhhhhhhhhhhhhhhhhhhhhhhhhhhhhhhhhhhhhiiiiihhhhhhhhhhhhhhhhhhhhhhhhhhhhhhhhhhhhhiihhihhhhhhhhhhhhhhhhhhhhhhhhhhhhhhhhiihiihhhhh",
"hhhhhhhhhhhhhhhhhgjhhhggjggdbdhhhhhhhhhhhhhhhhhhhhhhhhhhhhhhhhhhhhhhhhhhhhhhhhhhhhhhhhhhhiihhhhhhhhhhhhhhhhhhhhhhhhhhhhhhhhhhhhhhhiiiihhhhhhhhhhhhhhhhhhhhhhhhhhhhhhhhhiiihhhhhh",
"hhhhhhhhhhhhhhhh.jhhhhhjggdbmddhhhhhhhhhhhhhhhhhhhhhhhhhhhhhhhhhhhhhhhhhhhhhhhhhhhhhhhhifffffhhhhhhhhhhhhhhhhhhhhhhhhhhhhhhhhhhhhffffffhhhhhhhhhhhhhhhhhhhhhhhhhhhhhhhiffffhhhhh",
"hhhhhhhhhhhhhhh...hhhhhgcbcdddddhhhhhhhhhhhhhhhhhhhhhhhhhhhhhhhhhhhhhhhhhhhhhhhhhhhhmmfiikkiffhhhhhhhhhhhhhhhhhhhhhhhhhhhhhhhhffkiififfhhhhhhhhhhhhhhhhhhhhhhhhhhhhhffkiififfhhh",
"hhhhhhhhhhhhhhhh.hhhhhhcccbcdccddhhhhhhhhhhhhhhhhhhhhhhhhhhhhhhhhhhhffffffhhhhhhffffmmfkkkffmffhhhhhhhhhhhhffffffffhhhhhhffmmfffkikffmffhhhhhhhhhhhffffffhhhhhhfffmmmffkkffmffhh",
"hhhhhhhhhhhhhhhhhhhhhhhhcccbbcbbdhhhhhhhhhhhhhhhhhhhhhhhhhhhhhhhhffffffffffffffffffffmmfffffffffhhhhhhhhhfffffffffffffffffffmmffffffffffhhhhhhhhfffffffffffffffffffmmffffffffaaa",
"hhhhhhhhhhhhhhhhjgghhhhhcbcccbcbhhhhhhhhhhhhhhhhhhhhhhhhhhhhhhhhhfffffffffffffffffffffmmffiiiffkhhhhhhhhhffffffffffffffffffffmmfffiifffffmhmhhhhffffffffffffffffffffmmfffiiffaaa",
"hhhhhhhhhhhhhhhhgggiihhjjbjcbccbhhhhhhhhhhhhhhhhhhhhhhhhhhhhhhhhfffffffffffffffffffffffmmiiiiifkmhhhhhhhfffffffffffffffffffffffmiiiiffffkhhhmhmfffffffffffffffffffffffmiiififaaa",
"hhhhhhhhhhhhhhhcjgjiihjgjjjbjbhhhhhhhhhhhhhhhhhhhhhhhhhhhhhhhmhmffffffffffffffffffffffifmmhhhiihhmhmhmhmffffffffffffffffffffffifmiihhhffkhhhhhhffffffffffffffffffffffifmihhhifhh",
"hhhhhhhbhbhhlgncccciihjggggjggghhhmhhhhhhhhhhhhhhhhhhhmhmhmhhhhhffffffifffffffffffffiifiimhhhhhhhhhhhhhhffffffifffffffffffffiifimmhhhhhhhhhhhhhffffffifffffffffffffiifimhhhhhhhh",
"hhhchocoboghlg##g#ghiijgggggggjjhggmmmhmhmhmhmhmhmhmhmhhhhhhhhhhfffffffiiifffffffffffifhhmmmhhhhhhhhhhhhfffffffiiifffffffffffifhmmmmmmmmmmmmmmmfffffffiiifffffffffffifhhhhhhhhhh",
"hhhcccoobpohlgl##gghiijjgjgjggggbggghhhhhhhhhhhhhhhhhhhhhhhmmmmmifffffffiiiiiiiifffffffhhmmmmmmmmmmmmmmmifffffffiiiiiiiifffffffhmmmmmmmmmmmmmmmifffffffiiiiiiiifffffffhhhhhhhhhh",
"hnn#cnnnbopppoop#opoiijjggjjjjggbgggmmmmmmmmmmmmmmmmmmmmmmmmmmhhiifffffffiiiiiiiffffffihhhhhmmmmmmmmmmmmiifffffffiiiiiiiffffffihhhhhhhhhhhhhhhhiifffffffiiiiiiiffffffihhhhhhhhhh",
"hhencennggpgbooo#oooiijjjgggggjjgghhhmmmmmmmmmmmmmmmmmmmmmmhhhhhhfffffffffiiiiiifffffihhhhhhhhhhhhhhhhhhhfffffffffiiiiiifffffihhhhhhhhhhhhhhhhhhfffffffffiiiiiifffffihhhhhhhhhhh",
"hinncnneggpggooo#opoiiijjjgggggggbhhhhiihhhhhhhhhhhhhhhhhhhhhhhhhhhhffffffhhhhhhhfffihhhhhhhhhhhhhhhhhhhhhhhffffffhhhhhhhfffihhhhhhhhhhhhhhhhhhhhhhffffffhhhhhhhfffihhhhhhhhhhhh",
"inencenngbpggoop#ooohiijjjjjggggggbhhhiihhhhhhhhhhhhhhhhhhhhhhhhhhhhhhffffhhhhhhhfffihhhhhhhhhhhhhhhhhhhhhhhhhffffhhhhhhhfffihhhhhhhhhhhhhhhhhhhhhhhhffffhhhhhhhfffihhhhhhhhhhhh",
"i#nncn#nggpgbooo#poohiihjjjjjjggggbhhhiihhhhhhhhhhhhhhhhhhhhhhhhhhhhhhhffihhhhhhhffihhhhhhhhhhhhhhhhhhhhhhhhhhhffihhhhhhhffihhhhhhhhhhhhhhhhhhhhhhhhhhffihhhhhhhffihhhhhhhhhhhhh",
"hiiiiiiiiiiiiiiiiiiiiiiiiiiiiiiiiiiiiiiihhhhhhhhhhhhhhhhhhhhhhhhhhhhhhhfffhhhhhhfffihhhhhhhhhhhhhhhhhhhhhhhhhhhfffhhhhhhfffihhhhhhhhhhhhhhhhhhhhhhhhhhfffhhhhhhfffihhhhhhhhhhhhh",
"hkkkkkkkkkkkkkkkkkkkkkkkkkkkkkkkkkkkkkiihhhhhhhhhhhhhhhhhhhhhhhhhhhhhhhffffhhhhhffiihhhhhhhhhhhhhhhhhhhhhhhhhhhffffhhhhhffiihhhhhhhhhhhhhhhhhhhhhhhhhhffffhhhhhffiihhhhhhhhhhhhh",
"hhhhhkkhhhhhhhhhhhhhhhhhhhkkjjjjjjbhhhiihhhhhhhhhhhhhhhhhhhhhhhhhhhhhhhhiffhhhhhffihhhhhhhhhhhhhhhhhhhhhhhhhhhhhiffhhhhhffihhhhhhhhhhhhhhhhhhhhhhhhhhhhiffhhhhhffihhhhhhhhhhhhhh",
"hhhhhkkhhhhhhhhhhhhhhhhhhhkkbbbbbbmmhhiihhhhhhhhhhhhhhhhhhhhhhhhhhhhhhhhiifmhhhffiihhhhhhhhhhhhhhhhhhhhhhhhhhhhhiifmhhhffiihhhhhhhhhhhhhhhhhhhhhhhhhhhhiifmhhhffiihhhhhhhhhhhhhh",
"hhihhkkhhhhhhhhhhhhhhhhhhhkkhhmmmmmmhiiihhhhhhhhhhhhhhhhhhhhhhhhhhhhhhhhhifmhhhffihhhhhhhhhhhhhhhhhhhhhhhhhhhhhhhifmhhhffihhhhhhhhhhhhhhhhhhhhhhhhhhhhhhifmhhhffihhhhhhhhhhhhhhh",
"hihhhkkhhhhhhhhhhhhhhhhhhhkkhhhmmmhhiiihhhhhhhhhhhhhhhhhhhhhhhhhhhhhhhhhhhhhhhhmmhhhhhhhhhhhhhhhhhhhhhhhhhhhhhhhhhhhhhhmmhhhhhhhhhhhhhhhhhhhhhhhhhhhhhhhhhhhhhmmhhhhhhhhhhhhhhhh",
"hhiiiiiiiiiiiiiiiiiiiiiiiiiiiiiiiiiiiihhhhhhhhhhhhhhhhhhhhhhhhhhhhhhhhhhhhhhhhhhhhhhhhhhhhhhhhhhhhhhhhhhhhhhhhhhhhhhhhhhhhhhhhhhhhhhhhhhhhhhhhhhhhhhhhhhhhhhhhhhhhhhhhhhhhhhhhhh",
"hhhhhhhhhhhhhhhhhhhhhhhhhhhhhhhhhhhhhhhhhhhhhhhhhhhhhhhhhhhhhhhhhhhhhhhhhhhhhhhhhhhhhhhhhhhhhhhhhhhhhhhhhhhhhhhhhhhhhhhhhhhhhhhhhhhhhhhhhhhhhhhhhhhhhhhhhhhhhhhhhhhhhhhhhhhhhhhh"
};
