/* XPM */
XPM_TYPE* EasterChickBulb[] = {

    "64 68 6 1",

    "  c None",
    "b c black",
    "w c white",
    ". c #a8a8a8",
    "@ c #dbdbdb",
    "+ c #b4b4b4",

        "                                                                ",
        "                                  .....                         ",
        "                                 .......                        ",
        "                                ...   ...                       ",
        "                               ...     ..                       ",
        "                      .....   ...      ..                       ",
        "                      ...... ..        ..                       ",
        "                     ..   .....        ..                       ",
        "                     ..   ....        ..                        ",
        "                     ...   ..        ...                        ",
        "                      ..            ...                         ",
        "                      ...          ...                          ",
        "                     ....       .....                           ",
        "                   ....      .........                          ",
        "                  ...        ....   ...                         ",
        "                  ..                 ....                       ",
        "                                      ....                      ",
        "               .                        ..                      ",
        "              ..                        ...                     ",
        "             ...                         ...                    ",
        "            ...                           ...                   ",
        "            ..                             ..                   ",
        "           ..                               ..                  ",
        "          ...                               ...                 ",
        "          ..      ....             ....      ..                 ",
        "         ...      .++.             .++.      ...                ",
        "         ..       .++.             .++.       ..                ",
        "        ..         ...             ...        ...               ",
        "        ..                                     ..               ",
        "       ...                 ...                 ..               ",
        "       ..                .......                ..              ",
        "       ..               ....+....               ..              ",
        "      ..               ...+++++..               ..              ",
        "      ..                ..+++++..                ..             ",
        "      ..                ...+++...                ..             ",
        "     ..                  ..++...                 ..             ",
        "     ..                   .....                  ...            ",
        "     ..                   ....                    ..            ",
        "     ..                     .                     ..            ",
        "    ....                                         ...            ",
        "    .....                                       .....           ",
        "    ..@..                                      ...@..           ",
        "   ..@@@..                                     ..@@...          ",
        "   ..@@@...                                   ..@@@@..          ",
        "  ...@@@@..                                   ..@@@@..          ",
        "  ...@@@@..                                  ..@@@@@...         ",
        "  ....@@@@..                                 ..@@@.....         ",
        "  ....@@@@..                                 ..@@@@....         ",
        " ....@@@@@..                                 ..@@@@@...         ",
        " ...@@@@@@..                                 ..@@@@@@..         ",
        " ..@@@.@@@..                                 ..@@..@@...        ",
        " ..@@...@@..                                 ..@@...@..         ",
        "  .....@@...                                 ..@@@.....         ",
        "  ....@@...              .......             ...@@@....         ",
        "   .......            .............           ........          ",
        "    ......          .....@@@@@@.....           ......           ",
        "        ...        ....@@@@@@@@@@@....        ...               ",
        "         ...      ...@@@@@@@@@@@@@@@...      ...                ",
        "          ...    ...@@@@@@@@@@@@@@@@@..                         ",
        "           ....  ..@@@@@@@@@@@@@@@@@@@..  .                     ",
        "             ......@@@@@@@@@@@@@@@@@@@......                    ",
        "              ......@@@@@@@@@@@@@@@@@@.....                     ",
        "                ........@@@@@@@@@........                       ",
        "                   ...................                          ",
        "                       ...........                              ",
        "                                                                ",
        "                                                                ",
        "                                                                "
    
};

