/* XPM */
XPM_TYPE* EasterSignBulb[] = {

    "74 72 6 1",

    "  c None",
    "b c black",
    "w c white",
    ". c #a8a8a8",
    "@ c #dbdbdb",
    "d c #b4b4b4",

        "                                                                          ",
        "                                                                          ",
        "                                                                          ",
        "                         ..                   ..                          ",
        "                        ....                 ....                         ",
        "                        .....               .....                         ",
        "               ww       ......             ......       ..                ",
        "               ww       .......           .......       ..                ",
        "               ww       ........         .......        ..                ",
        "                         ........       ..... ..            .             ",
        "           www   wwww    ... .....     ..... ...    ....   ...            ",
        "            ww    ww      .  ......   ...... ...     ..    ..             ",
        "               ww             .....   .....  ..         ..                ",
        "               ww             ...... ...... ...         ..                ",
        "               ww          .. ... .. .. ... ...         ..                ",
        "               w           ..  .. .. .. ..  ..           .                ",
        "                           ... .. ..... .. ...                            ",
        "                            ..... ..... .....                             ",
        "                            .................                             ",
        "           .                 ...............                 w            ",
        "           ..                .....     .....                ww            ",
        "           ..                ...         ...                ww            ",
        "           ..                ..           ..                ww            ",
        "           ..               ....         ....               ww            ",
        "           ..               .....       .....               ww            ",
        "     .....    ....          .. ..       .. ..          wwww    wwwww      ",
        "    ......   ......         .. ..       .. ..         wwwwww  wwwwwww     ",
        "                            .....       .....                             ",
        "           ..              ......       ......              ww            ",
        "           ..              ..  ..       ..  ..              ww            ",
        "           ..             ..      .....      ..             ww            ",
        "           ..             ..     .......     ..             ww            ",
        "           ..             ..   ...........   ..             ww            ",
        "                          ..  .....   .....  ..                           ",
        "                          ...... ....... ......                           ",
        "                           ....   .....   ....                            ",
        "                            ...    ...    ...                             ",
        "        @@@@@@@@@@@@@@@@@    ... ....... ...    @@@@@@@    @@@@@@         ",
        "      @@@@@@@@@@@@@@@@@@@     .............     @@@@@@@@  @@@@@@@@@       ",
        "     @@@                        ..     ...                       @@@      ",
        "     @@                                                           @@      ",
        "    @@         .     .      ..     .....   .....   ..    .        @@@     ",
        "    @@        ...   ..     ...     ......  ......  ...  ..         @@     ",
        "    @@         ..   ..     ...     ..  ..  ..  ...  .. ...         @@     ",
        "    @@        ...   ..    .....    ..  ... ..   ..  .....          @@     ",
        "     @        .........   .. ..    ..  ..  ..  ...   ...           @@     ",
        "              .........   .. ...   ......  ......     ..           @@     ",
        "              ...   ...  .......   .....   .....      ..           @@     ",
        "              ...   ..   .......   ..      ..         ..          @@@     ",
        "    @@        ...   ..  ....  ...  ..      ..         ..          @@@     ",
        "    @@         ..    .  ..     ..  ..      ..         ..           @@     ",
        "    @@                                                             @@     ",
        "    @@                                                             @@     ",
        "    @@      .....      .       ....   ......   .....   ....        @@     ",
        "    @@      .....     ...     ......  .......  .....  ......       @@     ",
        "    @@      ..       ....     ..  ..    ..     ..     ... ...      @@     ",
        "    @@      ..       ....     ..        ..     ..     ..   ..     @@@     ",
        "    @@      ...      .. ..    ....      ..     ...    ... ...     @@@     ",
        "    @@      .....   ... ..     .....    ..     .....  ......       @@     ",
        "    @@      ....    ... ...      ...    ..     ....   .....        @@     ",
        "    @@      ..      .......       ...   ..     ..     .....        @@     ",
        "    @@      ..     ........  ...  ..    ..     ..     ..  ..       @@     ",
        "    @@      .....  ..    ...  ......    ..     .....  ..  ...      @@     ",
        "    @@@     .....  .      .    ....      .     .....   .   ..     @@@     ",
        "     @@                                                           @@      ",
        "     @@@@@@@@@@@@@@@@@@@@@@@@@@@@@@@@@@@@@@    @@@@@@@@@@@@@@@@@@@@@      ",
        "      @@@@@@@@@@@@@@@@@@@@@@@@@@@@@@@@@@@@@@  @@@@@@@@@@@@@@@@@@@@@       ",
        "                                                                          ",
        "                                                                          ",
        "                                                                          ",
        "                                                                          ",
        "                                                                          "
    
};

