/* XPM */
XPM_TYPE* FireworksBulb[] = {

    "75 81 6 1",

    ". c None",
    "@ c black",
    "w c white",
    "- c #a8a8a8",
    "  c #dbdbdb",
    ", c #b4b4b4",

        "...........................................................................",
        "...........................................................................",
        "...........................................................................",
        "...........................................................................",
        "...........................................................................",
        "...........................................................................",
        "...........................................................................",
        ".................................  .....................  .................",
        ".............................  ..  ..  ................   ...  ............",
        "..............................         ...........   ..   ..   ............",
        "........................... ..     .   . .........   ..   ..   ............",
        "..........................      ....      .........   ......  .... ........",
        "...........................   ........    ..........  ..........    .......",
        "............................  ......... .......  .........   ..    ........",
        "..........................    .........    ....   ...        ...  .........",
        ".........................     .........    ....    ..        ..............",
        "..........................   ..........   ....... ...        ......  ......",
        "............................  ........  .............    .     ..     .....",
        "...........................   ........    ......  ...   ...     ..   ......",
        "..........................      ....      ....    ...   ...     ...........",
        "..............................     .   . .....    ..           ............",
        ".............................      .   .............         ....  ........",
        ".............................  ..  ..  .............. .      ....    ......",
        ".................................  ..............   .....   ......   ......",
        "..................... ............ .............    .....   ...............",
        ".....................  .........................   ..   ......  ...........",
        ".....................  .............................   ...  ..   ..........",
        "............ ........ ........   ...................   ...  ...  ..........",
        "...........   ................  ...................   ....  ...  ..........",
        "............  ................  ..................   .....  ...............",
        ".....................  ...........................   .....  ...............",
        ".....................  ...........................   ......................",
        "..............  .....  ....   ...................   .......................",
        "..............   ....  ....   ...................   .......................",
        "....   .......   ....  ...   ........  ..........  ........................",
        "....   ........   ... ....   .......   .........   ........................",
        "...... .........  ........  ......... ..........   ........................",
        ".........   ...................    .............  .........................",
        ".........     ....... ........     ............   .........................",
        "...........   ......   .......   ..............  ..........  ..............",
        "....................    ...... ................  ......  ..  ..  ..........",
        ".................          ...................   ......   .  .   ..........",
        "................            ..................   ......          ..........",
        "... ....    ....     ..     ....    .... .....  ....      ....      .......",
        "..   ..      ....   ....   ....      ..   ....  ....    ........    .......",
        "..  ....    .....    ..   ......    ...  ....   .....   ........   ........",
        "..................        ..   ..............   ....   ..........  ........",
        "..................        ..    .............   ...    ..........    ......",
        ".................         ...    ............   ...    ..........    ......",
        "...........   ....  ....  ....    ...........  ....... .......... .........",
        ".........     .................   ..........   ......   ........   ........",
        ".........    ...................   .........   .....     ......     .......",
        "................  ........  .....   ........   .....      ....      .......",
        "....    .......   ........   ....   ........   ........          ..........",
        "....   ........   ...  ...   .....   .......   ........   .  .   ..........",
        "..............   ....  ....   .....   ......   ......... ..  .. ...........",
        "..............  .....  ....   .....   ......  .............  ..............",
        ".....................  ............   ......  .............................",
        ".....................  .............   .....  .............................",
        "............  ................  ....   ....   .............................",
        "...........   ................   ....  ....   .............................",
        "...........  .................   ....   ...   .............................",
        ".....................  ..............   ...  ..............................",
        ".....................  ...............  .... ..............................",
        "..................... ................  ...................................",
        "......................................   ..................................",
        ".......................................  ..................................",
        ".......................................  ..................................",
        ".......................................  ..................................",
        ".......................................   .................................",
        ".......................................   .................................",
        ".......................................   .................................",
        ".......................................   .................................",
        "........................................  .................................",
        "........................................  .................................",
        "........................................  .................................",
        "...........................................................................",
        "...........................................................................",
        "...........................................................................",
        "...........................................................................",
        "..........................................................................."
    
};

