/* XPM */
XPM_TYPE* FlowerVaseBulb[] = {

    "59 75 6 1",

    ". c None",
    "b c black",
    "w c white",
    "B c #a8a8a8",
    "  c #dbdbdb",
    "D c #b4b4b4",

        "...........................................................",
        "...........................................................",
        "...........................................................",
        "...........................................................",
        "...........................................................",
        "...........................................................",
        "...........................................................",
        "...........................................................",
        "......................   .........   ......................",
        ".....................      ......     .....................",
        ".....................       ...       .....................",
        ".....................        ..       .....................",
        ".....................                 .....................",
        ".....................                 .....................",
        "................ ....                 .... ................",
        "................  ...                 ....  ...............",
        "...............   ...                 ....  ...............",
        "......     ....   ...                 ....   ....    ......",
        ".....        .    ...                 ....   ..       .....",
        ".....             ...                 ....            .....",
        "......            ....                ...             .....",
        "......            ....                ...            ......",
        "......            ....               ....            ......",
        ".......            ....              ....            ......",
        ".......            ....             ....            .......",
        ".......             .....          .....            .......",
        "........            ......       ......             .......",
        "........             .......    ......             ........",
        "...........................................................",
        "...........................................................",
        "...........................................................",
        "...........................................................",
        ".........                                   ...............",
        "........                                 ..................",
        "........                              .....................",
        ".........                           .......................",
        ".........                         ..........      .........",
        "..........                      ........         ..........",
        "...........                    .......          ...........",
        "............                  ......            ...........",
        "............                 .....             ............",
        ".............               .....             .............",
        "..............             .....              .............",
        "..............             ....              ..............",
        "...............           ....              ...............",
        "................          ....              ...............",
        "................         ....              ................",
        ".................        ....             .................",
        "..................      ....              .................",
        "..................      ....             ..................",
        "...................     ....            ...................",
        "....................    ....            ...................",
        "....................    ....           ....................",
        ".....................   ...           .....................",
        "......................  ....          .....................",
        "......................  ....         ......................",
        "....................... ....         ......................",
        "....................   .............    ...................",
        "...................    .............    ...................",
        "...................    .............    ...................",
        "....................    ............   ....................",
        ".......................             .......................",
        "......................               ......................",
        "......................               ......................",
        "......................               ......................",
        "......................                .....................",
        ".....................                 .....................",
        ".....................                 .....................",
        ".....................                 .....................",
        ".....................                  ....................",
        "....................                   ....................",
        ".....................                 .....................",
        "...........................................................",
        "...........................................................",
        "..........................................................."
    
};

