/* XPM */
XPM_TYPE *greenTree_xpm[] = {
"100 100 4 1",
" 	c None",
".	c #00BB00",
"+	c #8B4513",
"@	c #006400",
"                                               .                                                    ",
"                                               .                                                    ",
"                                               .      .                                             ",
"                                               ++     .                                             ",
"                                                @    ..                                             ",
"                                             .  @    +.                                             ",
"                                              . +.   +                                              ",
"                                              .@ @....   .                                          ",
"                                               @+ ..    .                                           ",
"                                              . . .     +                                           ",
"                                              @@ @+.   .                                            ",
"                                               . @+   .+                                            ",
"                                          .    .  +. ++                                             ",
"                                          .    @   . +                                              ",
"                                          @. .+@   +@@                                              ",
"                                           .. . .  +@                                               ",
"                                           @++@ @  +@     +..                                       ",
"                                               @   @      .                                         ",
"                                               @.  @     +@.                                        ",
"                                                @ +@     .                                          ",
"                                                 @@@     @                                          ",
"                                                  +@    @@                                          ",
"                                                  @@.   .         .                                 ",
"                                     .           @@ .  +.         .                                 ",
"                                      .          @+ .  .        +..                                 ",
"                                       .   .+   @@@@  +@        @@                                  ",
"                                       .   ..   @+ .  .      @@@@                                   ",
"                                       +.   .   @+@. @@      @                                      ",
"                                     ..@@.  @.    @. .       @                                      ",
"                                         @.  .  @@@  .       @                                      ",
"                                          @. ..  @+  .      ++                                      ",
"                                           @@ @  +. .     @@                                        ",
"                                            @ .   . .    @@                                         ",
"                                            @@+   +.  . ++      .     .                             ",
"                                               .  +.  @@        .    .++..                          ",
"                                 .             .@ .  @@         .   .@                              ",
"                                 .              @ .  @          .  .@                               ",
"                                 .+            .@ . @@          @ .@                                ",
"                                  @.           @ .. @      ..  .@@  .           .                   ",
"                                  @..          @ ++@@    ..+@ @@@  ..          ..                   ",
"                                   @@         .@@+@@    ..+@  ..@@@            @                    ",
"                        .         .@            @+@     .+@   . @             .@                    ",
"                        .+        @.            @++.  ..+@   @@               @@ .                  ",
"                         .         @.      .   @@+.   .@@ .  @               @ @.@                  ",
"                       . ..         @ .. .@@+  @ @    @   . @          .     ..   @.                ",
"                       .. .         @.+   . @+   @+  @@  .+.++         +    .   ..                  ",
"                        .@.           +....  @+  @@+@    ..            +   . @@@+                   ",
"                         @@+             ..   @+ +++. @ @@.            +  .@.                       ",
"                          .@    .         @.  @@@+..  @ @@            @+ .                          ",
"                           @    .          @    @..   @@@             @@@@                          ",
"             .             +..  @          @@    ..   ..     .       @@                             ",
"             .+            + .  @           @  . +   ..     ++       @                              ",
"              .              .@ @++         @  . + +@+      @       @@@..                           ",
"              .               @ ++          @. . + @@@    .@       .                                ",
"              .               @ +            @ .++@      .@  ..   .@                                ",
"              +.    .         .@+             . + @     .@  @@@...@                    .            ",
"              +.    ..         @              @ + @    .@@ @@  ..                     @@@.          ",
"               .     .         @        .     @ ..@@   @ @@   @@  .                   +             ",
"              @..    .         @.       .      . ++@  .@ @   @@  .@              .    +             ",
"          @    @.    @          @.      @.   . . @+  @@ .   @@  .@@              .    .             ",
"           @.+   @@  @           @@..+   .  .. @ @+@ @  @  @   .@               @@    .             ",
"             @.   @@@@+     .      @@++. @   @ @@ +@@@  @ @+@..@                @    @@             ",
"               @     @@     .          @@+.  @@@@+.@     @@@                    @   @@              ",
"            .+ @.    @@.    ..          @@.   .@ +     @@                      @@ @@                ",
"             .+ @       @.   .          @@ @  @@@+  . @@                  .    @@.                  ",
"              . @.      @@@  .          @ @@  @@+   @++++   .             .   .@                    ",
"           .@+.@ @.  .@  .@@ .          @  @  @@+.+ .   .   .             @ .+.                     ",
"             .@.  @   ..@   .@             @@ @  ....   .  .@            @+  @@                     ",
"                . @@    .@  .@              @.@ ..+ .   . @@         .   @   @                      ",
"                ..@+++@@@@@@+@                @   + @  .@ @         .+.  @  @@                      ",
"                            @@.               @   @@@  @@@  .       +.    @@@                       ",
"                             @@ .             @. +@@@  @@ @.@      .+@  @@        .                 ",
"                            .+.@.@            @  +@@  @ @@        .+. @@          .                 ",
"                            .+++@@@          @@  .+ @@@@  @       @+@@            .                 ",
"                                 .@@         @  .@+.  @  @@    . @@@              .                 ",
"                                   @..      .@  ..+   @  .   @@@@@                @  ..             ",
"                                   .@@@@  .  @   @+  @  @   ....                  @@@@.             ",
"                 .                  @+++..+. @@ ...  @ .@ @.@@                    @@                ",
"                ..                   @@@@ + . @ . +  +   @..                      @@                ",
"              ...                        @+   @. ++  +  @@                        .                 ",
"          .     .@.              ...     @.  .@ .@  . @@@                      +..@                 ",
"          ..    @@....             ..     @  @.@ @. .. +                    +@@@                    ",
"           .. @@...                 ..     @  @  +@. @.                +....@                       ",
"            ..@@@@.                  .     @  @  +@  @@               @@@++@@                       ",
"              @@+@@      ..          .@   . @@@ ++@. @              .@@                             ",
"                ++@       .          .@      @  .+     @.     .   .@           .                    ",
"                  +.   .@ .         .@       @   +@  @..     .  .@@          ..+                    ",
"                   ...  @@..        .@     @@@@  +@@..      . .@        @@.....                     ",
"                     @@+@++.         @@@@     @@@+@@       .@@  .       @++@@@                      ",
"                       @@@++.           @       @@+       .@           @@@+@@                       ",
"                        @@..+.          @@@@@@@@@++     .@@        . @@@ @                          ",
"                          @@..                  @+@   .@@          @  @@@@                          ",
"                            @@                   ++@@@@     @  @ @@@@@@@@                           ",
"                              @@.    ...     .   ++@        @  @@                                   ",
"                                ..@@@@ @@@    ..@+++        @@@@                                    ",
"                                         ..     @+++     @. @@@.                                    ",
"                                          .      +++  @@@@@@@                                       ",
"                                          @.@@@@@++++@@                                             ",
"                                                 +++++                                              ",
"                                                +++++                                               "};
