/* XPM */
/* -copyright-
#-# 
#-# plasmasnow: Let it snow on your desktop
#-# Copyright (C) 1984,1988,1990,1993-1995,2000-2001 Rick Jansen
#-# 	      2019,2020,2021,2022,2023 Willem Vermin
#-# 
#-# This program is free software: you can redistribute it and/or modify
#-# it under the terms of the GNU General Public License as published by
#-# the Free Software Foundation, either version 3 of the License, or
#-# (at your option) any later version.
#-# 
#-# This program is distributed in the hope that it will be useful,
#-# but WITHOUT ANY WARRANTY; without even the implied warranty of
#-# MERCHANTABILITY or FITNESS FOR A PARTICULAR PURPOSE.  See the
#-# GNU General Public License for more details.
#-# 
#-# You should have received a copy of the GNU General Public License
#-# along with this program.  If not, see <http://www.gnu.org/licenses/>.
#-# 
*/
XPM_TYPE *huis4_xpm[] = {
/* columns rows colors chars-per-pixel */
"80 64 90 1 ",
"  c #666666",
". c #746663",
"X c #6C6E71",
"o c #6D7073",
"O c #757678",
"+ c #BA5B33",
"@ c #BA663E",
"# c #CD5B08",
"$ c #E75E09",
"% c #FF5F05",
"& c #C0630D",
"* c #FF6308",
"= c #E6641C",
"- c #F06517",
"; c #C25E29",
": c #C15F33",
"> c #C6632F",
", c #DE6422",
"< c #CB6633",
"1 c #D16630",
"2 c #E26420",
"3 c #EE7834",
"4 c #926553",
"5 c #BE6840",
"6 c #A76D54",
"7 c #A96648",
"8 c #8F756C",
"9 c #94786D",
"0 c #897A76",
"q c #B27F6D",
"w c #CC6F41",
"e c #CC754B",
"r c #CC7D57",
"t c #FE952D",
"y c #EEB33C",
"u c #95827D",
"i c #D88155",
"p c #E7844D",
"a c #E68B58",
"s c #CA8769",
"d c #CA946F",
"f c #DD9A78",
"g c #E29369",
"h c #E09770",
"j c #757D82",
"k c #7E8184",
"l c #788391",
"z c #838485",
"x c #898E94",
"c c #8D9298",
"v c #919397",
"b c #AD9D9B",
"n c #B7958C",
"m c #8F98A4",
"M c #969CA3",
"N c #9DA2AC",
"B c #A1A5AB",
"V c #A6ADB5",
"C c #ACB3BC",
"Z c #C99C8A",
"A c #CEAC89",
"S c #D2AF8A",
"D c #D5B28C",
"F c #C7A698",
"G c #D6BE99",
"H c #CAADA3",
"J c #C8BAB7",
"K c #E1C69B",
"L c #C7C2BE",
"P c #ECE1B5",
"I c #F5E8B7",
"U c #AFB7C0",
"Y c #B4BBC6",
"T c #CABFC0",
"R c #BAC2CC",
"E c #BDC6D2",
"W c #C8C3C5",
"Q c #C6CDD7",
"! c #CDD3DD",
"~ c #D0D7DF",
"^ c #E5ECC7",
"/ c #EDF2C9",
"( c #FDFDCD",
") c #EEF4D3",
"_ c #FFFFD2",
"` c #CED6E0",
"' c #D4DAE3",
"] c #DBE1E7",
"[ c #E6E6E7",
"{ c None",
/* pixels */
"{{{{{{{{{{{{{{{{{{{{{{{{{{{{{{{{{{{{{{{{{{{{{{{{{{{{{{{{{{{{{{{{{{{{{{{{{{{{{{{{",
"{{{{{{{{{{{{{{{{{{{{{{{{{{{{{{{{{{{{{{{{{{{{{{{{{{{{{{~~~]~[!{{{{{{{{{{{{{{{{{{{",
"{{{{{{{{{{{{{{{{{{{{{{{{{{{{{{{{{{{{{{{{{{{{{{{{{{{{{[[[[[[[[{{{{{{{{{{{{{{{{{{{",
"{{{{{{{{{{{{{{{{{{{{{{{{{{{{{{{{{{{{{{{{{{{{{{{{{{{{Q'[[[[[''{{{{{{{{{{{{{{{{{{{",
"{{{{{{{{{{{{{{{{{{{{{{{{{{{{{{{{{{{{{'''{{{{{{{{{{{{{'[[[[[[{{{{{{{{{{{{{{{{{{{{",
"{{{{{{{{{{{{{{{{{{{{{{{{{{{{{{{{{{{''~~~!!'{{{{{{{{{{{{Q~~{{{{{{{{{{{{{{{{{{{{{{",
"{{{{{{{{{{{{{{{{{{{{{{{{{{{{{{{{{'!~!!QRQ!`!''{{{{{{{{{{{{{{{{{{{{{{{{{{{{{{{{{{",
"{{{{{{{{{{{{{{{{{{{{{{{{{{{{{{{{`'!!'QCMVQQ!~''{{{{{{{{{{{{{{{{{{{{{{{{{{{{{{{{{",
"{{{{{{{{{{{{{{{{{{{{{{{{{{{{{'''!!!'zzOXOvv'~!'~{{{{<<<N{{{{{{{{{{{{{{{{{{{{{{{{",
"{{{{{{{{{{{{{{{{{{{{{{{{{{{{''``!Q!Vo     jcR!!!{{{{<<<0{{{{{{{{{{{{{{{{{{{{{{{{",
"{{{{{{{{{{{{{{{{{{{{{{{{{{{'!!Q!'Rc        XlY~~'{{{<<<0{{{{{{{{{{{{{{{{{{{{{{{{",
"{{{{{{{{{{{{{{{{{{{{{{{{{''!!!'`Y            Oc~`'{s<<<9{{{{{{{{{{{{{{{{{{{{{{{{",
"{{{{{{{{{{{{{{{{{{{{{{{{''~`Q~QYc         .   OvQ'`n<<19{{{{{{{{{{{{{{{{{{{{{{{{",
"{{{{{{{{{{{{{{{{{{{{{{{'''{!~QVz               XxY'J<<<9{{{{{{{{{{{{{{{{{{{{{{{{",
"{{{{{{{{{{{{{{{{{{{{{''!!!'!Rv                  .vYVe118{{{{{{{{{{{{{{{{{{{{{{{{",
"{{{{{{{{{{{{{{{{{{{{{'~!!!'Vx                     x.@<<8{{{{{{{{{{{{{{{{{{{{{{{{",
"{{{{{{{{{{{{{{{{{{{'''{!`EVO                        .71uV{{{{{{{{{{{{{{{{{{{{{{{",
"{{{{{{{{{{{{{{{{{{''''~!Rmo                           4bQ'{{{{{{{{{{{{{{{{{{{{{{",
"{{{{{{{{{{{{{{{{{''!~`!Rl                              MQ!~'{{{{{{{{{{{{{{{{{{{{",
"{{{{{{{{{{{{{{{{'`!`~!Vx                               .cQ!~'''{{{{{{{{{{{{{{{{{",
"{{{{{{{{{{{{{{''!!!'QM                          .        zV`'~''{{{{{{{{{{{{{{{{",
"{{{{{{{{{{{{{''``!'YzO                                    XC``!`'{{{{{{{{{{{{{{{",
"{{{{{{{{{{{{''``''M                                        OV~'!`{{{{{{{{{{{{{{{",
"{{{{{{{{{{['`'!`!MO                                         XzY`!`['{{{{{{{{{{{{",
"{{{{{{{{{'''`!!Cx                                             OC``!''{{{{{{{{{{{",
"{{{{{{{{'''{``Cj                                              o0Y!!!'{{{{{{{{{{{",
"{{{{{{{]''''`Eo                                                 zNY'`''{{{{{{{{{",
"{{{{{{{''''Rmj                                                   ocY]``''{{{{{{{",
"{{{{{{{'{~Qx                                                      XxM'~`''{{{{{{",
"{{{{{{{'`BzX                                                        jBQ`'{{{{{{{",
"{{{{{{{!Cj                                                          XXxE''{{{{{{",
"{{{{{{''BOjjjjjjOjjjjjjjjjjjjjjjjjjjjjjojjjjjjjjjjjjjjjjjjjjjjjjjjjjjjzBR'{{{{{{",
"{{{{{{''{{{5<<<1<<1<<<<1<1<<<1<<7@1<<<<<<<<<<1<1<<1<<1<<<<<<1<<1<<<6{{{{{{{{{{{{",
"{{{{{{{{{{{51<<<1<<<<<<<<<<1<<<<<<<<<<<<<<<<<<<<<<<<<<<<<<<<<<<<<1<6z{{{{{{{{{{{",
"{{{{{{{{{{{5<<<<<<<<<<<<<1<<<<<<<<<<<1<<<1<1<<<<<1<1<<<<<<<11<<1<<16z{{{{{{{{{{{",
"{{{{{{{{{{{w1<<<<<1<<<<<<<<<1<<<<<1<<<<<1<<<1<<<<<<<<<<<<<<<<<<<<<16z{{{{{{{{{{{",
"{{{{{{{{{{{5<>>>:<>><>>><<<@<>>>><<:<>>>>>@>@>><w:>>>><<>>><<>>>>>>6z{{{{{{{{{{{",
"{{{{{{{{{{{w<<<<<<<<<<<<<<<1<<<<<<<<<<<<<<1>1<<<<<<<<<<<<<<<w<<<<<16z{{{{{{{{{{{",
"{{{{{{{{{{{5<1<<<<<<<<1<<<<<<<<<<<1<<<<<<11<>1<<<<<1<<<<<<<<<<<<<<16z{{{{{{{{{{{",
"{{{{{{{{{{{5<<<<<<<<<<<<<<<1<<<<<<<<<<<<<<<<<esrserrsse<<<<<<<<<1<16z{{{{{{{{{{{",
"{{{{{{{{{{{w<<<<<1<<<<<<11<><<<<1<<<<<<<<<<<1sJHJAsHJJd<<<<<1<<<<<<6k{{{{{{{{{{{",
"{{{{{{{{{{{@;@>>><:<<>>>::>>>>>>>>>>><>>>>>>;FJJLCFLWWJs+<:<>>>>>>16z{{{{{{{{{{{",
"{{{{{{{{{{{5<1<<<<<<<<<<we<r<ewr<r<<<1<<<<<<;S)^/((((/(I+<<<<<<<<<16z{{{{{{{{{{{",
"{{{{{{{{{{{5<<<<<<<<<<<<ZHZHFHFHFHsw<<<<<<<<<A(^/((/()(P+1<<<<<<1<16z{{{{{{{{{{{",
"{{{{{{{{{{{5<<<<<<<<<<<eHJJTJTWWJJZw<<<<<<<<1A/^(/(/(//P+<<<<1<<<<16z{{{{{{{{{{{",
"{{{{{{{{{{{5<1<<<1<<<<1<ia3f3gph3f1<<<<<<<<<1S(/(((((((I+<<<<<<<<<>6z{{{{{{{{{{{",
"{{{{{{{{{{{5<>>>>>>>>><>2*******%*,><>>><>>>;A_/(((((((I+:>>><<>><>6z{{{{{{{{{{{",
"{{{{{{{{{{{w<<<<<<<<<<<<2*********2<<<<<<<<<;S_/(((_(((I+1<<<<<<1<16z{{{{{{{{{{{",
"{{{{{{{{{{{5<<<<<<<<<<<<=*********,<<<<<<<<<<S(/(((((((I+1<<<<<<<116z{{{{{{{{{{{",
"{{{{{{{{{{{5<<<<1<<11<<<=*********=<<<<<<1<<>A(/(((_(((I+<<<1<<<<<16z{{{{{{{{{{{",
"{{{{{{{{{{{w<<<<1<<1<<<>=*********,<1<<<<<<11A_/(((((((I+<<<<<<<<<16z{{{{{{{{{{{",
"{{{{{{{{{{{5>>><@>><>>@>=*********=<:<<:>>>>;A_/(((((((I+>>>>><>+<;6z{{{{{{{{{{{",
"{{{{{{{{{{{5<<<<<<<1<<<1=*********2<<1<<<<<<<S_/((_((((I:<<<<<1<1<16z{{{{{{{{{{{",
"{{{{{{{{{{{5<<<<<<<<1<1<=********%2<<<<<<<<<<dKGKKKKKKKG51<<<<<<<<<6z{{{{{{{{{{{",
"{{{{{{{{{{{5<<<1<1<<<<<<=******#yt2<1<1<<<<<<<w<<w<w<w<w1<<<<1<<<<16z{{{{{{{{{{{",
"{{{{{{{{{{{w1<<<<<<<<<<<=******$&$=<<<<<<<1<<<<<<1<<<<<<<<<<<<<<1<16z{{{{{{{{{{{",
"{{{{{{{{{{{5>>>><>>>@>>>2*********2>>>@><>>>>>>>>>@>@>><:>>>>>@>>>>6z{{{{{{{{{{{",
"{{{{{{{{{{{w<<<<<<<<<1<12*********2<<<<<<<<<<<1<<>1<1<<<<1<<<<1><<<6z{{{{{{{{{{{",
"{{{'{{{{{{{5<<<<1<<<<1<<2*********=<<1<<<<<<<<<<<1<1<<<<<<<<<1<1<<<6z{{{{{'''{{{",
"{[!'`''{{{{5<<<<<<<<<<<<=*********,<<<<<<<<<<<<<<<<<<1<<1<<1<<<<<<<6z{{{{'`!]{{{",
"{!!!Q!!~'`{q<<<<<<<<<<<<=*********2<<<<<<<<<<<<<<<<<<<<<<<<<<<<<<<<6v{'{'~!!~'{{",
"{`!`~QQ'`'!5<w<55<w@w5<<1---------1<<<w55<w5w<@w<55<5w<55<5<<5w55w<6z['{''`'''{{",
"{{!{{~{'{~{{00000000000009999999890000000000000000000000000000000000v{{{'{{{{{{{",
"{{{{{{{{{{{{{{{{{{{{{{{{{{{{{{{{{{{{{{{{{{{{{{{{{{{{{{{{{{{{{{{{{{{{{{{{{{{{{{{{"
};
