/* XPM */
XPM_TYPE* mLightShape[] = {

    "40 57 5 1",   //         0 . 9 + 1 10
    "  c None",    //         9 . 8 + 1  9
    "@ c black",   //        17 - 9 + 1 10 29

    "- c #a8a8a8", // Bright 26 . 11 + 1 12
    "% c #dbdbdb", // Normal 37 . 11 + 1 12
    ", c #b4b4b4", // Dark   48 . 11 + 1 12 36

    // 29 + 36 = 65 + ((40 + 1) * 57) = 2402

"                                        ",
"                                        ",
"                   @@@@@@@@@@           ",
"                 @@@@@@@@@@@@@@@        ",
"                 @@@@     @@@@@@@@      ",
"                @@@@@       @@@@@@@     ",
"                @@@@  @@@     @@@@@     ",
"               @@@@      @@@    @@@@    ",
"               @@@         @@@   @@@    ",
"              @@@@   @@@      @@  @@    ",
"              @@@       @@@       @@    ",
"             @@@           @@@    @@    ",
"             @@@             @@@  @@    ",
"           @@@@@@@@@@@@           @@    ",
"         @@@@@@@@@@@@@@@@@        @@    ",
"        @@@@@%%%%%%%%%@@@@@@     @@@    ",
"        @@@@@%%%%%%%%%%%@@@@@    @@     ",
"       @@@@%%%%%%%%%%%%%%%%@@@   @@     ",
"      @@@@%%%----%%%%%%%%%%%@@@@@@@     ",
"      @@@%%%%-----%%%%%%%%%%%%@@@@      ",
"      @@@%%%------%%%%%%%%%%%%%@@@@     ",
"     @@@@%%%------%%%%%%%%%%%%%%@@@     ",
"     @@@%%%-------%%%%%%%%%%%%%%@@@@    ",
"     @@@%%%-------%%%%%%%%%%%%%%%@@@    ",
"     @@@%%%-------%%%%%%%%%%,,%%%@@@    ",
"     @@@%%--------%%%%%%%%,,,,,%%@@@    ",
"     @@%%%--------%%%%%%,,,,,,%%%@@@    ",
"    @@@%%%-------%%%%%%,,,,,,,%%%@@@    ",
"    @@@%%%------%%%%%%,,,,,@@%%%@@@@    ",
"    @@@%%%-----%%%%%%,,,,,,@@%%%@@@     ",
"    @@@%%%%---%%%%%%,,,,,,@@@%%@@@@     ",
"    @@@%%%%---%%%%%%,,,,,,@@@%%@@@      ",
"    @@@%%%%%%%%%%%%,,,,,,@@@%%@@@@      ",
"    @@@%%%%%%%%%%%,,,,,,,@@%%%@@@       ",
"    @@@%%%%%%%%%%%,,,,,,,@@%%@@@@       ",
"    @@@%%%%%%%%%%,,,,,,,,,%%%@@@        ",
"    @@@%%%%%%%%%,,,,,,,,,%%%@@@@        ",
"    @@@%%%%%%%%,,,,,,@@@%%%@@@@         ",
"    @@@%%%%%%%%,,,,,@@@@%%@@@@          ",
"    @@@%%%%%%%,,,,,,@@@%%%@@@@          ",
"    @@@%%%%%%%,,,,,@@@%%%@@@@           ",
"    @@@%%%%%%,,,,,@@@%%%@@@@            ",
"    @@@%%%%%%,,,,@@@@%%@@@@             ",
"    @@@%%%%%,,,,,@@@%%%@@@@             ",
"    @@@%%%%%,,,,@@@%%%@@@@              ",
"    @@@%%%%,,,,@@@%%%@@@@               ",
"    @@@%%%%,,,@@@@%%@@@@                ",
"    @@@%%%%,,,@@@%%@@@@                 ",
"     @@@%%%,,,@@%%@@@@                  ",
"     @@@%%%,,,@%%@@@@                   ",
"     @@@@%%%,%%%@@@@                    ",
"      @@@%%%%%@@@@@                     ",
"      @@@@%%%@@@@@                      ",
"       @@@@@@@@@                        ",
"        @@@@@@@                         ",
"                                        ",
"                                        "};
