/* XPM */
XPM_TYPE* LobsterBulb[] = {

    "72 74 6 1",

    "  c None",
    "@ c black",
    "# c white",
    "$ c #a8a8a8",
    "+ c #dbdbdb",
    ". c #b4b4b4",

        "                                                                        ",
        "                                                                        ",
        "                                                                        ",
        "                                       ..........                       ",
        "                                   ..............                       ",
        "                                  .............                         ",
        "                                 ............                           ",
        "                                ...........                             ",
        "                               .........                                ",
        "                               ........                                 ",
        "                              ......... .........                       ",
        "                           ...... ..... ........                        ",
        "                          ........ .... .......                         ",
        "                          ............ .......                          ",
        "                          .........   .......                           ",
        "                          ........   ......                             ",
        "                          ........ ......          ++                   ",
        "                          ........ ...            ++                    ",
        "                          .......                 ++                    ",
        "                          ......                 ++                     ",
        "                          ......            ++  ++  ++                  ",
        "                          ......          +++++   +++   +++             ",
        "                           .....           +++   ++++ +++               ",
        "                           .....            ++++++++ +++                ",
        "                           ......     ++++++++++++++ ++                 ",
        "                    .       .....   +++++++++++++++  +        ..    ... ",
        "                    ..       ....  +++++++++++++++           ...    ... ",
        "                    ..       ..  +++++@@++++++++++ ++       ....    ... ",
        "                    ..         +++++++@@@++++++++ +++       ....   .... ",
        "                    ...       +++++++++@@++++++++ ++++     .....   .... ",
        "                     ...     ++++++++++++++++++++ +++     ......  ..... ",
        "                      ...   ++++#+++++++++++++++++        ......  ..... ",
        "                       ...  +++##+++++++++++++++++       ....... ...... ",
        "                       ... ++++##+++++++++++@@@+++       ......  ...... ",
        "                .       ... +++##+++++++++++@@@+++       ....   ......  ",
        "               ..           ++++###++++++++++++++       ...  .........  ",
        "               ..         .. ++++++++++++++++++++       .. ...........  ",
        "                ..       .... ++++++++++++++++++        .. ..........   ",
        "                ...     ...... +++++++++++++++++        .   .........   ",
        "                ....    ....... +++++++++++++++           ...  .....    ",
        "                 ....  ......... +++++++++++++  .      ....... ....     ",
        "                  ...  .......... +++++++++++ .....   .............     ",
        "                   ..   .......... ++++++++++ .................         ",
        "           .         ++  .......... ++++++++  .................         ",
        "           ..       +++++ ..........  ++++++  .................         ",
        "           ..      +++++++ ........... +++      ...............         ",
        "           ..      ++++++++ ..........            ............          ",
        "           ...     +++++++++ ......... ..           .........           ",
        "            ...    ++++++++++ ......   ...                              ",
        "             ... .  ++++++++++ ....    ....                             ",
        "                .... ++++++++++         ....                            ",
        "               ...... +++++++++           ...                           ",
        "   $           ......  +++++++ .           .....                        ",
        "  $$$$$$      ........  +++++  ...          .....                       ",
        "   $$$$       .......... ++    ....                                     ",
        "   $$$$$$$$    .........        ....                                    ",
        "      $$$$$ $$ .........         .....                                  ",
        "      $$$$  $$$  ......            .....                                ",
        "      $$$$$$$$$$  .... ..                                               ",
        "       $$ $$$$$$$      ...                                              ",
        "          $$$$$$$       ....                                            ",
        "          $$$$$$$        .....                                          ",
        "          $$$$$$ $         ....                                         ",
        "            $$  $$$                                                     ",
        "              $$$$$                                                     ",
        "              $$$$$                                                     ",
        "              $$$$ $$                                                   ",
        "                $ $$$                                                   ",
        "                  $$$                                                   ",
        "                  $$$                                                   ",
        "                  $$$                                                   ",
        "                    $                                                   ",
        "                                                                        ",
        "                                                                        "
    
};

