/* XPM */
XPM_TYPE* LobsterUpBulb[] = {

    "70 71 6 1",

    ". c None",
    "@ c black",
    "w c white",
    "- c #a8a8a8",
    "  c #dbdbdb",
    ", c #b4b4b4",

        "......................................................................",
        "......................................................................",
        "......................................................................",
        "......................................................................",
        ".......    ................................................    .......",
        ".... ..     .....   ..............................   .....     ..  ...",
        "...   ..     ....      ........................      ....     ..   ...",
        "...   ..      .....      ....................      ....       ..   ...",
        "...   ...  .   .......     ................     .......   .   ..   ...",
        "..     ..  ..   ........    ..............    ........   ..  ..     ..",
        "..     ..  ...  ..........   ............   ..........  ...  ..     ..",
        "..     ..  ...  ...........   ..........   ...........  ...  ..     ..",
        "..  .      ...   ...........   ..    ..   ...........   ...      .  ..",
        "..  ..     ...   ............            ............   ...     ..  ..",
        "..  ...          .............    ..    .............          ...  ..",
        "..  ....         ............   .....    ............        .....  ..",
        "..  .........    ............  ........  ............    .........  ..",
        "..   .........   ...........   ........   ...........   .........   ..",
        "...  ..........  ..........   ..........   ..........  ..........  ...",
        "...  ..........  ..........  ..  ....  ..  ..........  ..........  ...",
        "...   .........  .........   .    ..    .   .........  .........   ...",
        "....   ........  .........   ..  ....  ..   .........  ........   ....",
        "....    ......   .........  ..............  .........   .......   ....",
        ".....    .....   .........  ..............  .........   .....    .....",
        "......     ..     ........  ..............  ........     ..     ......",
        "........            .....   ..............   .....            ........",
        ".........      ..     ...   ..............   ...     ..      .........",
        "..........    .....    ..   ..............   ..    .....    ..........",
        "...........   .......       ..............        ......   ...........",
        "............   .......     ................     .......   ............",
        ".............    .......    ..............    .......    .............",
        "..............     ......   ..............   ......     ..............",
        "...............      .....   ............   ....       ...............",
        "..................       .     ........     .       ..................",
        ".....................                            .....................",
        "........................     .          .      .......................",
        "..........................  ......  ......  ..........................",
        "..........................   ............   ..........................",
        "..........................   ............   ..........................",
        "...........................   ..........   ...........................",
        "...........................      ...       ...........................",
        "...........................                ...........................",
        "...........................   .        .   ...........................",
        "...........................   ..........   ...........................",
        "...........................   ..........   ...........................",
        "............................   ........   ............................",
        "............................     ...      ............................",
        "............................              ............................",
        "............................   ..     .   ............................",
        "............................   ........  .............................",
        ".............................   .......  .............................",
        ".............................     ..     .............................",
        "..............................          ..............................",
        "..............................          ..............................",
        "..............................  ......   .............................",
        "............................     ....     ............................",
        "...........................                ...........................",
        "..........................   ..        ..   ..........................",
        ".........................   ...   ..   ...   .........................",
        "........................   ....  ....   ...   ........................",
        "........................  ....   ....   ....  ........................",
        "........................  ....  ......  ....  ........................",
        "........................   ..   ......   ..   ........................",
        ".........................      ........      .........................",
        "..........................     ........     ..........................",
        "............................   ........    ...........................",
        "............................   ........   ............................",
        ".............................            .............................",
        "..............................          ..............................",
        "................................     .................................",
        "......................................................................"
    
};

