/* XPM */
/* -copyright-
#-# 
#-# plasmasnow: Let it snow on your desktop
#-# Copyright (C) 1984,1988,1990,1993-1995,2000-2001 Rick Jansen
#-# 	      2019,2020,2021,2022,2023 Willem Vermin
#-# 
#-# This program is free software: you can redistribute it and/or modify
#-# it under the terms of the GNU General Public License as published by
#-# the Free Software Foundation, either version 3 of the License, or
#-# (at your option) any later version.
#-# 
#-# This program is distributed in the hope that it will be useful,
#-# but WITHOUT ANY WARRANTY; without even the implied warranty of
#-# MERCHANTABILITY or FITNESS FOR A PARTICULAR PURPOSE.  See the
#-# GNU General Public License for more details.
#-# 
#-# You should have received a copy of the GNU General Public License
#-# along with this program.  If not, see <http://www.gnu.org/licenses/>.
#-# 
*/
XPM_TYPE *MediumSanta3[] = {
/* width height num_colors chars_per_pixel */
"    88    17       17            1",
/* colors */
". c #ff9933",
"# c #f1f1f1",
"a c #cccccc",
"b c #cc9999",
"c c #cc9933",
"d c #cc6633",
"e c #cc0000",
"f c None",
"g c #c0c0c0",
"h c #993333",
"i c #990000",
"j c #663300",
"k c #111111",
"l c #009900",
"m c #0066cc",
"n c #003399",
"o c #000000",
/* pixels */
"ffffffffffffffffffffffffffffffffffffffffhfhhhfffffffffffffffffffffffffffffffffffffhfffff",
"fffffffffffffffffffffffffffffffffffffffffhhhfffffffffffffffffhhfhhhffffffffffffhhfhhhfff",
"ffffffffffeefffffffffffffffffffffffffffffffhffffffffffffffffffhhhffffffffffffffffhhfffff",
"fffffffffeeeeffffffffffffffffffffffffffffffhhfhhfffffffffffffffhhffhhfffffffffffffhffhhh",
"ffffffffieiiegffffffffffffffffffffffffffffffhhhfffffffffffffffffhhfhfffffffffffffffhfhff",
"ffffffff#fieobffffffffffffffffffffffffffffffdddfffffffffffffffffhdddfffffffffffffffhddff",
"ffffffffefaaaabfffffffffffffffffffffffffddkdjdkdfffffffffffffddkjjddffffffffffffddkjjddf",
"ffffnffaeff#a##fee#kfkfkfkfffffffddddddddddkdhhdkfkfffddddddddddkdhddkfffddddddddddkdhdj",
"fammeee..hfei#eeffffffffffkfkfkfhddddddddddhkffhffffkddddddddddddkfdjffkddddddddddddkfhf",
"l.ll#emnmmheeeifffffffffffffffffhdddhdddddhhkkfffffffdddhhdddddhdkkfffffdddhhdddddhdkkff",
"lllcffmmmmhieieefhhkkkkkkkkkkkkkhdddhhhhdddhffkkkkkkkdddhhhhhddhffkkkkkkdddhhhhhddhfffff",
"hlllffmmnmhiieee#ffhffffffffffffhddhffffffdhhfffffffffdhfffffffdhffffffffdhfffffffdhffff",
"ffffffffffhfiiieeffhfffffffffffffddfffffffffdhfffffffddhffffffffddfffffffdhffffffffddfff",
"jjjjjjjjjjjjjjjjjjjhffffffffffffddfffffffffffkfffffffdhffffffffffhffffffdhffffffffffhfff",
"fffjfffffffffjff##fhfffffffffffdfhffffffffffffffffffdfhffffffffffffffffdfhffffffffffffff",
"fffjfffffffffjfffohffffffffffffdfkffffffffffffffffffkfkffffffffffffffffkfkffffffffffffff",
"hhhhhhhhhhhhhhhhhhffffffffffffffffffffffffffffffffffffffffffffffffffffffffffffffffffffff"
};
