/* XPM */
XPM_TYPE* PlainEasterEggBulb[] = {

    "54 58 6 1",

    "  c None",
    "@ c black",
    "w c white",
    "- c #a8a8a8",
    "% c #dbdbdb",
    ", c #b4b4b4",

        "                         @@@@                         ",
        "                      @@@@@@@@@@                      ",
        "                     @@,,,,,,,,@@                     ",
        "                    @@,,,,,,,,,,@@                    ",
        "                   @@,,,,,,,,,,,,@@                   ",
        "                  @@,,,,,,,,,,,,,,@@                  ",
        "                 @@,,,,,,,,,,,,,,,,@@                 ",
        "                @@,,,,,,,,,,,,,,,,,,@@                ",
        "               @@,,,,,,,,,,,,,,,,,,,,@                ",
        "               @@,,,,,,,,,,,,,,,,,,,,@@               ",
        "              @@,,,,,,,,,,,,,,,,,,,,,,@@              ",
        "              @,,,,,,,,,,,,,,,,,,,,,,,,@              ",
        "             @@,,,,,,,,,,,,,,,,,,,,,,,,,@             ",
        "             @,,,,,,,,,,,,,,,,,,,,,,,,,,@             ",
        "            @@,,,,,,,,,,,,,,,,,,,,,,,,,,,@            ",
        "            @,,,,,,,,,,,,,,,,,,,,,,,,,,,,@            ",
        "           @@,,,,,,,,,,,,,,,,,,,,,,,,,,,,,@           ",
        "           @,,,,,,,,,,,,,,,,,,,,,,,,,,,,,,@           ",
        "           @,,,,,,,,,,,,,,,,,,,,,,,,,,,,,,@           ",
        "          @@,,,,,,,,,,,,,,,,,,,,,,,,,,,,,,,@          ",
        "          @@,,,,,,,,,,,,,,,,,,,,,,,,,,,,,,,@          ",
        "          @,,,,,,,,,,,,,,,,,,,,,,,,,,,,,,,,@          ",
        "          @,,,,,,,,,,,,,,,,,,,,,,,,,,,,,,,,@          ",
        "         @,,,,,,,,,,,,,,,,,,,,,,,,,,,,,,,,,,@         ",
        "         @,,,,,,,,,,,,,,,,,,,,,,,,,,,,,,,,,,@         ",
        "         @,,,,,,,,,,,,,,,,,,,,,,,,,,,,,,,,,ww@        ",
        "        @-www,,,,,,,,,,,,,,,,,,,,,,,,,,,,www-@        ",
        "        @---wwww,,,,,,,,,,,,,,,,,,,,,,wwwww--@        ",
        "        @-----wwwww,,,,,,,,,,,,,,,,wwwwww----@        ",
        "        @-------wwwwwwwwwwwwwwwwwwwwww-------@        ",
        "        @------------wwwwwwwwwwwww-----------@        ",
        "        @------------------------------------@        ",
        "        @-----------------------------------w@        ",
        "        @ww--------------------------------ww@        ",
        "        @%wwww----------------------------ww%@        ",
        "        @%%%wwwww----------------------wwww%%@        ",
        "        @%%%%%%wwwwwwwwwwwwwwwwwwwwwwwwww%%%%@        ",
        "        @%%%%%%%%%%%%%%%%%%%%%%%%%%%%%%%%%%%%@        ",
        "        @%%%%%%%%%%%%%%%%%%%%%%%%%%%%%%%%%%%%@        ",
        "        @%%%%%%%%%%%%%%%%%%%%%%%%%%%%%%%%%%%%@        ",
        "        @%%%%%%%%%%%%%%%%%%%%%%%%%%%%%%%%%%%%@        ",
        "        @%%%%%%%%%%%%%%%%%%%%%%%%%%%%%%%%%%%%@        ",
        "        @@%%%%%%%%%%%%%%%%%%%%%%%%%%%%%%%%%%@@        ",
        "         @%%%%%%%%%%%%%%%%%%%%%%%%%%%%%%%%%%@         ",
        "         @%%%%%%%%%%%%%%%%%%%%%%%%%%%%%%%%%%@         ",
        "         @@%%%%%%%%%%%%%%%%%%%%%%%%%%%%%%%%@          ",
        "          @%%%%%%%%%%%%%%%%%%%%%%%%%%%%%%%%@          ",
        "          @@%%%%%%%%%%%%%%%%%%%%%%%%%%%%%%@@          ",
        "           @%%%%%%%%%%%%%%%%%%%%%%%%%%%%%@@           ",
        "           @%%%%%%%%%%%%%%%%%%%%%%%%%%%%%@            ",
        "            @%%%%%%%%%%%%%%%%%%%%%%%%%%%@@            ",
        "             @%%%%%%%%%%%%%%%%%%%%%%%%%@@             ",
        "              @%%%%%%%%%%%%%%%%%%%%%%%@@              ",
        "               @%%%%%%%%%%%%%%%%%%%%%@@               ",
        "                @@%%%%%%%%%%%%%%%%%%@                 ",
        "                  @@%%%%%%%%%%%%%%@@                  ",
        "                    @@@@%%%%%%@@@@                    ",
        "                      @@@@@@@@@                       "
    
};

