/* XPM */
XPM_TYPE* mPumpkin[] = {

    "76 70 6 1",

    "  c None",
    ". c black",
    "; c white",

    "- c -a8a8a8",
    "% c -dbdbdb",
    ", c -b4b4b4",

"                                                                            ",
"                                                                            ",
"                                       ..                                   ",
"                                      ....                                  ",
"                                     ......                                 ",
"                                     .....                                  ",
"                                     ....                                   ",
"                                      ...                                   ",
"                                      ...                                   ",
"                  .......            ....                                   ",
"              ..................   .......   .............                  ",
"            ....,,,,,,,,,,,,,,,,........... ..,,,,,,,,,,,,..                ",
"           ..,,,,,,,,,,,,,,,,,,,....%%%.....,,,,,,,,,,,,,,,,.               ",
"         ..,,,,,,,,,,,,,,,,,,,----%%%%%%.....,,,,,,,,,,,,,,,,.              ",
"        ..,,,,,,,,,,,,,,,,,------%%%%%%%%%--.,,,,,,,,,,,,,,,,,..            ",
"       ..,,,,,,,,,,,,,,,,-------%%%%%%%%%%%----,,,,,,,,,,,,,,,,..           ",
"      ..,,,,,,,,,,,,,,,,-------%%%%%%%%%%%%%-----,,,,,,,,,,,,,,,..          ",
"     ..,,,,,,,,,,,,,,,--------%%%%%%%%%%%%%%------,,,,,,,,,,,,,,,..         ",
"     .,,,,,,,,,,,,,,,--------%%%%%%%%%%%%%%%%------,,,,,,,,,,,,,,,..        ",
"    ..,,,,,,,,,,,,,----------%%%%%%%%%%%%%%%%%-------,,,,,,,,,,,,,,.        ",
"    .,,,,,,,,,,,,,---------%%%%%%%%%%%%%%%%%%%--------,,,,,,,,,,,,,,.       ",
"   ..,,,,,,,,,,,,,---------%%%%%%%%%%%%%%%%%%%%--------,,,,,,,,,,,,,..      ",
"   .,,,,,,,,,,,,,----------%%%%%%%%%%%%%%%%%%%%---------,,,,,,,,,,,,,.      ",
"  .,,,,,,,,,,,,,----------%%%%%%%%%%%%%%%%%%%%%----------,,,,,,,,,,,,..     ",
"  .,,,,,,,,,,,,-----------%%%%%%%%%%%%%%%%%%%%%%---------,,,,,,,,,,,,,.     ",
"  .,,,,,,,,,,,,---------;%%%%%%%%%;%%%%%%%%;%%%%-----;----,,,,,,,,,,,,.     ",
"  .,,,,,,,,,,,----------;;%%%%%%;;;%%%%%%%%;;%%%---;;;-----,,,,,,,,,,,..    ",
"  .,,,,,,,,,,-----------%;;;%%%;;;%%%%%%%%%%;;;%--;;;------,,,,,,,,,,,,.    ",
"  .,,,,,,,,,,-----------%;;;;;;;;;%%%%%%%%%%;;;;;;;;;-------,,,,,,,,,,,.    ",
" .,,,,,,,,,,,-----------%;;;;;;;;;%%%%%%%%%%;;;;;;;;;--------,,,,,,,,,,.    ",
" .,,,,,,,,,,,-----------%;;;;;;;;;%%%%%%%%%%;;;;;;;;;--------,,,,,,,,,,.    ",
" .,,,,,,,,,,------------%;;;;;;;;;%%%%%%%%%%;;;;;;;;;--------,,,,,,,,,,.    ",
" .,,,,,,,,,,-----------%;;;;;;;;;;;%%%%%%%%;;;;;;;;;;;-------,,,,,,,,,,.    ",
" .,,,,,,,,,,-----------;;;;;;;;;;;;;%%%%%%;;;;;;;;;;;;;------,,,,,,,,,,,.   ",
" .,,,,,,,,,,----------;;;;;;;;;;;;;;;%%%%;;;;;;;;;;;;;;;------,,,,,,,,,,.   ",
" .,,,,,,,,,,---------;;;;;;;;;;;;;;;%%%%;;;;;;;;;;;;;;;-------,,,,,,,,,,.   ",
" .,,,,,,,,,------------%%%%;;;;;%%%%%%%%%%%%%%;;;;;-----------,,,,,,,,,,.   ",
" .,,,,,,,,,------------%%%%%;;;%%%%%%%%%%%%%%%%;;;------------,,,,,,,,,,.   ",
" .,,,,,,,,,------------%%%%%;;;%%%%%%%%%%%%%%%%;;;------------,,,,,,,,,,.   ",
"  .,,,,,,,,------------%%%%%%;;%%%%%%%;%%%%%%%%%;;------------,,,,,,,,,,.   ",
"  .,,,,,,,,------------%%%%%%;%%%%%%%;;;%%%%%%%%;-------------,,,,,,,,,,.   ",
"  .,,,,,,,,,-----------%%%%%%;%%%%%%;;;;;%%%%%%%;-------------,,,,,,,,,,.   ",
"  .,,,,,,,,,-----------%%%%%%%%%%%%%;;;;;%%%%%%%%------------,,,,,,,,,,,.   ",
"  .,,,,,,,,,------------%%%%%%%%%%%;;;;;;;%%%%%%%------------,,,,,,,,,,,.   ",
"  .,,,,,,,,,------------%%%%%%%%%%%%%%%%%%%%%%%%%------------,,,,,,,,,,,.   ",
"  ..,,,,,,,,,-----------%%%%%%%%%%%%%%%%%%%%%%%%-------------,,,,,,,,,,,.   ",
"   .,,,,,,,,,-------;;;--%%%%%%%%%%%%%%%%%%%%%%%-------------,,,,,,,,,,.    ",
"   .,,,,,,,,,----;;;;;;;;;;;;;;;%%%%%%%%%%%%%%%%------------,,,,,,,,,,,.    ",
"   ..,,,,,,,,,---;;;-;;;;;;;;;;;;;;;;;;%%%%%%%%%------------,,,,,,,,,,,.    ",
"    .,,,,,,,,,----;--;-;--;%;%;;;;;;;;;;;;;;;;%%-----------,,,,,,,,,,,,.    ",
"    .,,,,,,,,,,---;----;--;%;%;%;%%;%;;;;;;;;;;;;;;;-------,,,,,,,,,,,.     ",
"     .,,,,,,,,,------------%%%%%;%%;%;%;%;%%;;;;;;;;;;;;;--,,,,,,,,,,,.     ",
"     .,,,,,,,,,,-----------%%%%%%%%%%%%;%;%%;%;-;-;-;;;;;-,,,,,,,,,,,,.     ",
"      .,,,,,,,,,-----------%%%%%%%%%%%%%%%%%%,;-;-;--;-;--,,,,,,,,,,,.      ",
"      .,,,,,,,,,,-----------%%%%%%%%%%%%%%%%%%%------;-;-,,,,,,,,,,,,.      ",
"       .,,,,,,,,,,----------%%%%%%%%%%%%%%%%%%----------,,,,,,,,,,,,.       ",
"       .,,,,,,,,,,,----------%%%%%%%%%%%%%%%%%---------,,,,,,,,,,,,..       ",
"        .,,,,,,,,,,,---------%%%%%%%%%%%%%%%%---------,,,,,,,,,,,,,.        ",
"        .,,,,,,,,,,,,---------%%%%%%%%%%%%%%---------,,,,,,,,,,,,,.         ",
"         .,,,,,,,,,,,,--------%%%%%%%%%%%%%%--------,,,,,,,,,,,,..          ",
"          .,,,,,,,,,,,,,-------%%%%%%%%%%%%-------,,,,,,,,,,,,,..           ",
"           .,,,,,,,,,,,,,------%%%%%%%%%%%-------,,,,,,,,,,,,..             ",
"            .,,,,,,,,,,,,,,-----%%%%%%%%%------,,,,,,,,,,,,,.               ",
"             ..,,,,,,,,,,,,,,,,--%%%%%%......,,,,,,,,,,,,,...               ",
"               ..,,,,,,,,,,,,,.........      .............                  ",
"                 .............                                              ",
"                                                                            ",
"                                                                            ",
"                                                                            ",
"                                                                            "
};
