/* XPM */
XPM_TYPE* RocketBulb[] = {

    "67 74 6 1",

    "  c None",
    "@ c black",
    "w c white",
    ", c #a8a8a8",
    "% c #dbdbdb",
    "- c #b4b4b4",

        "                                                                www",
        "                                                              ww@@w",
        "                                                             ww@@@w",
        "                                                           ww@@%%@w",
        "                                                          w@@%%%-@w",
        "                                                        ww@@ww%%-@w",
        "                                                      ww@@%ww%%%-@w",
        "                                                     w@@%www%%%--@w",
        "                                                   ww@@%ww%%%%%--@w",
        "                                                 ww@@%www%%%%%%--@w",
        "                                                w@@%www%%%%%%%%--@w",
        "                                              ww@@%ww%%%%%%%%%%--@w",
        "                                            ww@@@%ww%%%%%%%%%%---@w",
        "                                             ww@@%%ww%%%%%%%%%---@w",
        "                                              w@@@@%ww%%%%%%%%---@w",
        "                                             w@@@@@@%ww%%%%%%----@w",
        "                                            w@@%----@%%%%%%%%----@w",
        "                                            w@%%%----@@%%%%%-----@w",
        "                                           w@@%ww%----@@%--------@w",
        "                                          w@@%ww%%%%----@@-------@w",
        "                                          w@%ww%%%%%%%---@@------@w",
        "                                         w@%%w%%%%%%%%%---@@@----@w",
        "                                        w@@%ww%%%%%%%%%%%---@@---@w",
        "                                        w@%ww%%%%%%%%%%%%%%--@@--@w",
        "                                       w@%ww,,,,,,,,,,%%%%----@@-@w",
        "                                      w@,ww,,,,,,,,,,,,,,----@@w@@w",
        "                                      w@w,,,,,,,,,,,,,,,,,,--@w w@w",
        "                                     w@,,,,,,,,,,,,,,,,,,,,,@w   ww",
        "                                    w@,,,%%%%%%%%%%%%%%,,,,@w     w",
        "                                   w@@@@%%%%%%%%%%%%%---,,,@w      ",
        "                                   w@@@@%%%%%%%%%%%%------@w       ",
        "                                  w@@@@%%%%%%%%%%%%------@w        ",
        "                                 ww@@@%%%%%%%%%%%%%-----@w         ",
        "                                 w@@@%%%%%%%%%%%%%------@w         ",
        "                                w@@@%%%%%%%%%%%%%------@w          ",
        "                                w@@@%%%%%%%%%%%%------@w           ",
        "                               w@@@%%,,,,,,,,,,,------@w           ",
        "                              w@@@,,,,,,,,,,,,,,,,---@w            ",
        "                             w@@@,,,,,,,,,,,,,,,,,,,@w             ",
        "                             w@@,,,,,%%%%%%%%%-,,,,,@w             ",
        "       %%                   w@@@,%%%%%%%%%%%%---,,,@w              ",
        "                           w@@@@%%%%%%%%%%%------,@w               ",
        "                           w@@@%%%%%%%%%%%%-------@w               ",
        "         %    %%          w@@@%%%%%%%%%%%%-------@w                ",
        "         %%    %         w@@@@@@@%%%%%%%%%------@w                 ",
        "                        w@@@@@---@@%%%%%%-------@w                 ",
        "    % %    %  ,,        w@@@ww@@@--@@%%%-------@w                  ",
        "     %%   %% ,,,       w@@@wwwww@@---@--------@w                   ",
        "    %%%%  %%  ,       ww@@@ww   ww@,,-@@-----@w                    ",
        "     %%   %%          w@@@ww    ww,,---@@----@w                    ",
        "           %         w@@@ww   www,,ww,,-@@--@w                     ",
        "  ,      %    ,,    ww@@@w   ww,,,ww,,@--@-@w                      ",
        "  ,,         ,,,    w@@@ww  ww,,,ww,,,w@@@@@w                      ",
        "      %%%%   ,,,,  w@@@wwwwww,,,ww,,,wwwww@w                       ",
        "      %%%      ,  w@@@ww,,,,,,,ww,,ww     w                        ",
        "       % %        w@@@ww,,,,,,ww,,w                                ",
        "                 w@@@w wwwwwwww,,,w                                ",
        "   ,,,,  % ,    w@@@w         w,,w                                 ",
        "   ,,,   % ,,   w@@@w %%     ,www   %%%                            ",
        "    ,,   %%  , w@@@w  %%%%  ,,,,    %%%%                           ",
        "          %%  w@@@ww  %%    ,,,     %%%                            ",
        "      ,,,  %%w@@@w       ,, , ,                                    ",
        "      ,,     w@@w     ,,,      %%                                  ",
        "      ,,,   w@@@w          ,                                       ",
        "           w@@@w   %%%%    ,,   %                                  ",
        "          w@@@w    %%%%   ,,,   %                                  ",
        "          w@@w      %%                                             ",
        "          www      %  %          ,,                                ",
        "                                ,,,                                ",
        "                               ,,,,                                ",
        "                                 ,,                                ",
        "                                                                   ",
        "                                                                   ",
        "                                                                   "
    
};

