/* XPM */
XPM_TYPE* SantaBootsBulb[] = {

    "73 68 6 1",

    "  c None",
    "b c black",
    "w c white",
    "d c #a8a8a8",
    ". c #dbdbdb",
    "+ c #b4b4b4",

        "                                                                         ",
        "                                                                         ",
        "                                                                         ",
        "                                                                         ",
        "        ...........................................................      ",
        "       .............................................................     ",
        "      ...                                                         ...    ",
        "      ..                                                           ..    ",
        "     ..                                      ..                    ...   ",
        "     ..                     ..              ....                   ...   ",
        "     ..                     ..     .   .   ......                   ..   ",
        "     ..                     ..    .......  ..  ..                   ..   ",
        "     ..                             ....                            ..   ",
        "     ..                                                             ..   ",
        "     ..                                                             ..   ",
        "     ..                                                             ..   ",
        "     ..                                                             ..   ",
        "      ..                                                           ..    ",
        "      ...                                                         ...    ",
        "       ....................................................   ......     ",
        "        ...................................................   .....      ",
        "                ...++++++...                 ...++++++..                 ",
        "                ..+++++++..                  ..+++++++..                 ",
        "                ...........                  .......+...                 ",
        "                 ..........                   ..........                 ",
        "                   ......                        .....                   ",
        "                     ..                           ..                     ",
        "                     ..                           ..                     ",
        "                     ..                           ..                     ",
        "                     ..                           ..                     ",
        "                     ..      ..                   ..      ..             ",
        "                     ..  .......                  ..  .......            ",
        "                     ........+...                 ............           ",
        "                  ........+++++..              ...............           ",
        "              ........+++++++++..          ...................           ",
        "            ......++++++++++++++..       ......................          ",
        "            ...+++++++++++++++++..       ......................          ",
        "           ..+++++++++++++++++++..      .......................          ",
        "            ..+++++++++++++++....       ......................           ",
        "            ..+++++++++++........        .....................           ",
        "            ..++++++++...........        .................+...           ",
        "            ..++++...............        ..............+++++..           ",
        "             ....................         .........+++++++++..           ",
        "             ....................         .....+++++++++++++..           ",
        "               ..................           ...++++++++++++++..          ",
        "                ..................           ..++++++++++++++..          ",
        "                ..................           ..++++++++++++++..          ",
        "                ..................           ..++++++++++++++..          ",
        "                ...................           ..++++++++++++++..         ",
        "                 ..................           ..++++++++++++++..         ",
        "                 ..................           ..++++++++++++++..         ",
        "                 ..................           ..++++++++++++....         ",
        "                 ...................          ...++++++++++......        ",
        "                ................++..         ...++++++++++.......        ",
        "             ..................+++..      ......+++++++++........        ",
        "            ..................++++..     .....++++++++++.........        ",
        "           ..................++++++..   ...++++++++++++...........       ",
        "          ..................++++++...  ...+++++++++++++...........       ",
        "          ..................++++++..   ..++++++++++++++..........        ",
        "          ..................++++++..   ..++++++++++++++..........        ",
        "         ..................++++++...  ..++++++++++++++...........        ",
        "         ..................+++++...   ..++++++++++++++..........         ",
        "          .................++++...     ..+++++++++++++.........          ",
        "          .......................      ..+++++++++++++........           ",
        "          .....................        ...+++++++++++.......             ",
        "           .................            ...+++++.++.....                 ",
        "            ............                 ...........                     ",
        "              ......                       ......                        "
    
};

