/* XPM */
XPM_TYPE* SnowFlakeBulb[] = {

    "59 63 6 1",

    "  c None",
    "b c black",
    "w c white",
    "# c #a8a8a8",
    "+ c #dbdbdb",
    "@ c #b4b4b4",

        "                                                           ",
        "                                                           ",
        "                                                           ",
        "                             w                             ",
        "                             w                             ",
        "                             w                             ",
        "                      ww    ww     ww                      ",
        "                       ww   www   ww                       ",
        "                        ww  ww   ww                        ",
        "                         ww  ww ww                         ",
        "                          wwwwwww                          ",
        "                           wwwww                           ",
        "           ++               www               ++           ",
        "           ++               www               ++           ",
        "            +                w               ++            ",
        "            ++               ww              ++            ",
        "      ++    ++        ++     w     ++        ++    ++      ",
        "      +++   ++      +++++    w    ++++       ++   +++      ",
        "       ++++ +++     ++++++  +w   ++++++     +++ ++++       ",
        "         ++++++      ++@+++ +w  +++#++      ++++++         ",
        "           ++++      ++@@+++++++++##++      ++++           ",
        "          ++++++     ++@@@+++++++###++     ++++++          ",
        "       +++++++++++    +@@@@+++++###++    +++++++++++       ",
        "     +++++      ++++  ++@@@@+++####++  ++++      +++++     ",
        "     ++           ++++++@@@@@+#####++++++           ++     ",
        "                    ++++@@@@@+#####+++++                   ",
        "                    +++++@@@++####+++++                    ",
        "                 ++++++++++@+++#++++++++++                 ",
        "              +++++++####+++++++++@@@@+++++++              ",
        "              +++##########+++++@@@@@@@@@@+++              ",
        "              ++###########+++++@@@@@@@@@@@++              ",
        "              ++++++#####+++++++++@@@@@++++++              ",
        "                +++++++++++@@+##+++++++++++                ",
        "                    +++++@@@@+###++++++                    ",
        "                    ++++@@@@@+####+++++                    ",
        "     w            www+++@@@@@+#####+++www            w     ",
        "     wwwww      wwww  ++@@@@+++####++  wwww      wwwww     ",
        "      wwwwwwww www    ++@@@+++++###++    www wwwwwww       ",
        "          wwwwwww    ++@@@+++++++###++     wwwwww          ",
        "           wwww      ++@@+++++++++##++      wwww           ",
        "         wwwwww      ++@+++ ++  +++#++      wwwwww         ",
        "        www www     ++++++  +++  ++++++     ww  www        ",
        "      wwww  ww      +++++   ++    +++++      ww  wwww      ",
        "      ww    ww        ++     +     ++        ww    ww      ",
        "            ww               +               ww            ",
        "            ww               +               ww            ",
        "           ww               +++               ww           ",
        "           ww               +++               ww           ",
        "                           +++++                           ",
        "                          +++++++                          ",
        "                         ++ ++++++                         ",
        "                        +++  +  +++                        ",
        "                       +++  ++    ++                       ",
        "                      +++    +     ++                      ",
        "                      +      +                             ",
        "                            ++                             ",
        "                             +                             ",
        "                                                           ",
        "                                                           ",
        "                                                           ",
        "                                                           ",
        "                                                           ",
        "                                                           "
    
};

