/* XPM */
XPM_TYPE* SparklyCandleBulb[] = {

    "51 87 6 1",

    "  c None",
    "b c black",
    "w c white",
    "@ c #a8a8a8",
    "# c #dbdbdb",
    "+ c #b4b4b4",

        "                                                   ",
        "                                                   ",
        "                                                   ",
        "                                                   ",
        "                                ww                 ",
        "                               www                 ",
        "                                ww                 ",
        "                                ww                 ",
        "                                                   ",
        "                           +++      ++++           ",
        "                          ++++     +++++           ",
        "                          ++++      ++++           ",
        "                                                   ",
        "     ++                         @@                 ",
        "     +++                        @@                 ",
        "    ++++                       @@@                 ",
        "     +++                        @@                 ",
        "     ++                         @@                 ",
        "                       @@                          ",
        "@@@      wwww         @@@@                         ",
        "@@@@     wwww        @@@@@                         ",
        "@@@      wwww        @@@@@@                        ",
        "                    @@@@@@@@                       ",
        "     ++             @@@ww@@@                       ",
        "    ++++           @@@@ww@@@@                      ",
        "    ++++           @@@wwww@@@                      ",
        "     ++           @@@wwwww@@@@                     ",
        "                  @@@wwwwww@@@           @@        ",
        "                 @@@wwwwwww@@@@          @@@       ",
        "                 @@@wwwwwwww@@@         @@@@       ",
        "                 @@@wwwwwwww@@@          @@@       ",
        "                 @@@wwwwwwww@@@           @        ",
        "                 @@@@wwwwww@@@                     ",
        "                  @@@@wwww@@@@     ++++      ++++  ",
        "                  @@@@@@@@@@@      +++++    +++++  ",
        "                   @@@@@@@@@@       +++      +++   ",
        "                     @@@@@@                        ",
        "                      @@@@               @@        ",
        "                       @@               @@@@       ",
        "                      ###               @@@@       ",
        "                 ##############          @@        ",
        "                ################                   ",
        "                ################                   ",
        "                ################                   ",
        "                ################                   ",
        "                ################                   ",
        "                ################                   ",
        "                ################                   ",
        "                ################                   ",
        "                ################                   ",
        "                ################                   ",
        "                ################                   ",
        "                ################                   ",
        "                ################                   ",
        "                ################                   ",
        "                ################                   ",
        "                ################                   ",
        "                ################                   ",
        "                ################                   ",
        "                ################                   ",
        "                ################                   ",
        "                ################                   ",
        "                ################                   ",
        "                ################                   ",
        "                ################                   ",
        "                ################                   ",
        "                ################                   ",
        "                ################                   ",
        "                ################                   ",
        "                ################                   ",
        "        ####   ################## #### #           ",
        "     ######################################        ",
        "     ######################################        ",
        "     ############+++#####+##########+#+####        ",
        "     ###++++++++++++++++++++++++++++++++###        ",
        "     ###++++++++++++++++++++++++++++++++###        ",
        "     ####++++++++++++++++++++++++++++++####        ",
        "      ####++++++++++++++++++++++++++++####         ",
        "       ####++++++++++++++++++++++++++####          ",
        "       ######++++++++++++++++++++++######          ",
        "        ################################           ",
        "          ############################             ",
        "             ######################                ",
        "                                                   ",
        "                                                   ",
        "                                                   ",
        "                                                   "
    
};

