/* XPM */
XPM_TYPE * tannenbaum_xpm[] = {
"100 100 2 1",
" 	c None",
".	c #000000",
"                                                                                                    ",
"                                                                                                    ",
"                                               .                                                    ",
"                                              ..                                                    ",
"                                              ..                                                    ",
"                                              ..                                                    ",
"                                              ..                                                    ",
"                                              ..                                                    ",
"                                              ..                                                    ",
"                                              ..                                                    ",
"                                              ..                                                    ",
"                                              ..                                                    ",
"                                              ..                                                    ",
"                                              ..                                                    ",
"                                              ..                                                    ",
"                                              ..                                                    ",
"                                             .  ..                                                  ",
"                                             .  ..                                                  ",
"                                             .  ..                                                  ",
"                                             .  ..                                                  ",
"                                             .  ..                                                  ",
"                                            .     .                                                 ",
"                                           ..     ..                                                ",
"                                           ..     ..                                                ",
"                                           .      ..                                                ",
"                                         ..         .                                               ",
"                                         ..         ..                                              ",
"                                         ..         ..                                              ",
"                                         .           .                                              ",
"                                       ..             .                                             ",
"                                      ..               .                                            ",
"                                     ..                 .                                           ",
"                                    .. ...........       ..                                         ",
"                                   ... ...........       ..                                         ",
"                                .......    ..   ..............                                      ",
"                               ........    .     ..............                                     ",
"                             .....       ..       ..         .....                                  ",
"                            .....        ..        .          .....                                 ",
"                           .             ..         ..            ..                                ",
"                                        .           ..                                              ",
"                                       ..           ..                                              ",
"                                       ..            ..                                             ",
"                                       ..             .                                             ",
"                                      .      .        .                                             ",
"                                     ..      ..       ..                                            ",
"                                     ..      .         ..                                           ",
"                                     .      .          ..                                           ",
"                                    ..     ..          ..                                           ",
"                                  ....                   .                                          ",
"                                  ...                    ..                                         ",
"                                  ..    .           .    ...                                        ",
"                                  .     .           .     ...                                       ",
"                                ..                         ..                                       ",
"                                .                           .                                       ",
"                              ..           .....             .                                      ",
"                            ...       .....   .....           ..                                    ",
"                           ...        .....    .....           .                                    ",
"                         ....     ....              .           ...                                 ",
"                         ...      ....              ..          ....                                ",
"                      ...       .....                 ...............                               ",
"                     ...        .....                 ................                              ",
"                  .....       ..  ..                   ..       .........                           ",
"                 .......    ....  ..                     .        . ........                        ",
"                ..     ..  .....  ..     ..              ..           .......                       ",
"               .    .      ..   ..      .                ..                                         ",
"              ..    .      .    ..     ..                ..                                         ",
"                               .                  .        .                                        ",
"                              ..                  .        ..                                       ",
"                             ...  ..                         .                                      ",
"                            ...                              ..                                     ",
"                           ..                                ...                                    ",
"                        ...                                     .                                   ",
"                       ....                                     ..                                  ",
"                      ....                                        ...                               ",
"                     ....                                         ....                              ",
"                .....             ..........               .        ...                             ",
"                .....             ...........              .        ....                            ",
"         .......               ...         .....                       ......                       ",
"        .........             ...          ......                       .....                       ",
"...........  ........      ...             ..   .....                        .......                ",
"                   ........                ..  .     .....                  ................        ",
"                    .......                .. ..      .....                ..................       ",
"                                           .. ..           ................                         ",
"                                           .. ..           ................                         ",
"                                           .. ..                                                    ",
"                                           ..  .                                                    ",
"                                           ..                                                       ",
"                                                                                                    ",
"                                                                                                    ",
"               .                                                                                    ",
"              ..                                                                                    ",
"                                                                                      .             ",
"                                                                                      .             ",
"                                                                                                    ",
"                                                                                                    ",
"                                                         ..                                         ",
"                                                                                                    ",
"                                                                                                    ",
"                             .                                                                      ",
"                             .                                                                      "};
