/* XPM */
XPM_TYPE* TurkeyLeftBulb[] = {

    "92 97 6 1",

    ". c None",
    "@ c black",
    "w c white",
    "- c #a8a8a8",
    "  c #dbdbdb",
    ", c #b4b4b4",

        "............................................................................................",
        "............................................................................................",
        "............................................................................................",
        "............................................................................................",
        "............................................................................................",
        "............................................................................................",
        "......................................................   ...................................",
        ".....................................................      .................................",
        ".....................................................          .............................",
        ".....................................................           ............................",
        ".....................................................     ..      ..........................",
        "......................................................   ....      .........................",
        "......................................................    .....     ........................",
        "......................................................    ......       .....................",
        ".......................................................   .......        ...................",
        ".......................................................   ........         .................",
        ".......................................................    .......           ...............",
        "........................................................   ........   ..      ..............",
        ".........................      .........................   ........    ...     .............",
        "......................            ......................   .........   ....    .............",
        ".....................              .....................   .........   .....    ............",
        "....................      ....      ....................   .........   ......   ............",
        "...................    ..........    ....................  .........   ......   ............",
        "..................    ............    ...................  .........   .......   ...........",
        ".................    ..............   ...................   ........   .......   ...........",
        ".................    ....     .....    ..................   ........   .......    ..........",
        "................    ....       .....   ..................   ........   .......    ..........",
        ".............      .....       .....    .................   ........   .......     .........",
        "............       ....   .    .....    .................   ........   .......     .........",
        "............       .....  ...  ......   .................   ........   .......      ........",
        "...........        ..................   .................   ........   ......       ........",
        "........           ..................   .................   ........   ......       ........",
        ".....              ..................   .................   ........   ......   .    .......",
        "....               ..................   .................   ........   .....    ..   .......",
        "...                 .................    ................   .......   ......    ..   .......",
        "...                  .................    ...............   .......   ......   ...   .......",
        "...                   ................     ..............  ......... ......    ...   .......",
        "...                   .................       ...........  ................   ....   .......",
        "...     ....          ..................                    ..............    ...    .......",
        "....  ......          ...................                    .............   ....    .......",
        "............          .......................                   .........    ....     ......",
        ".............        ...................................           ......   ....      ......",
        "................    .........................................        ...   .....       .....",
        "...............    .............................................           .....       .....",
        "...............    ..............................................         .....        .....",
        "..............    ..................................................      .....   .    .....",
        "..............   ...........................    .....................    .....    ..   .....",
        ".............    ..........................        ...........................    ..   .....",
        ".............   ............................         ........................    ...   .....",
        "............    ...............................       ......................    ....   .....",
        "............   ..................................      ....................    .....   .....",
        "...........    ....................................     ..................     .....   .....",
        "...........    ......................................     ...............     .....    .....",
        "...........   ........................................    ..............     ......   ......",
        "...........   ...    .......   ........   ........   ..    ...........     ........   ......",
        "...........   ...     .....      .....      .....    ...    ........      .........   ......",
        "...........   ...                                   .....    .......     .........   .......",
        "...........   ....                                  ....    ........   ...........   .......",
        "...........   ....          ...        ...        .....     .....................    .......",
        "...........    ....     ..............................      ....................    ........",
        "............   .....    ............................        ....................    ........",
        "............    .....     ........................           ..................    .........",
        "............    ......      ....................       ..    .................    ..........",
        ".............   .......      .................        ....   .................    ..........",
        ".............    ........       ...........           ....   ................    ...........",
        "..............    ........         ....               ....    ..............    ............",
        "...............    .........                    ....   ....   .............    .............",
        "................    .........                  .....    ...    ...........    ..............",
        ".................    ........    ...    ....    ....    ...    ..........    ...............",
        ".................     ........   ....    ....   .....    ..    .........    ................",
        "...................     ......    ...    ....    .....    ..   ........    .................",
        "....................      .....    ...    ....   .....    ..    ......     .................",
        ".....................       ...     ..     ...    .....    ..   .....    ...................",
        ".......................              ..     ...     ....   ..   ...     ....................",
        "........................              ..     ..      ...               .....................",
        "...........................             .      .       ..    .        ......................",
        ".............................                                        .......................",
        "................................                                   .........................",
        "......................................                             .........................",
        ".......................................                           ..........................",
        ".......................................         ...                .........................",
        ".......................................        ......              .........................",
        ".......................................        .......             .........................",
        "....................................           .....           .  ..........................",
        "...................................            ....            .............................",
        "..................................             ...             .............................",
        "..................................    .....    ..     .....    .............................",
        ".................................              ..              .............................",
        ".................................              ..              .............................",
        ".................................              ..             ..............................",
        "..................................           .....           ...............................",
        "............................................................................................",
        "............................................................................................",
        "............................................................................................",
        "............................................................................................",
        "............................................................................................",
        "............................................................................................"
    
};

