/* XPM */
XPM_TYPE* WavyEggBulb[] = {

    "77 83 6 1",

    "  c None",
    "b c black",
    "w c white",
    "+ c #a8a8a8",
    ". c #dbdbdb",
    "@ c #b4b4b4",

        "                                                                             ",
        "                                                                             ",
        "                                                                             ",
        "                                                                             ",
        "                  ..                                                         ",
        "                 ...            .........                                    ",
        "                  .           .............                                  ",
        "      ..                    ......+++++......                                ",
        "   ........               ........+++++++++....            ..                ",
        "  ....++....             ...@@@.....++++++++....           ..                ",
        " ...++++++...           ...@@@@@@.....++++++++...                            ",
        " ..++++++++..          ...@@@@@@@@@.....+++++++...                           ",
        "..++++++++++..        ...@@@@@@@@@@@@.....++++++...                          ",
        "..++++++++++..       ..@@@@@@@@@@@@@@@@@.....++++...                         ",
        "..++++++++++..      ...@@@@@@@@@@@@@@@@@@@......++...                        ",
        "..++++++++++..     ...@@@@@@@@@@@@@@@@@@@@@@.........                        ",
        "...++++++++...     ..@@@@@@@@@@@@@@@@@@@@@@@@@........                       ",
        " ..++++++++..     ...@@@@@@@@@@@@@@@@@@@@@@@@@@@@......                      ",
        " ...++++++...    ...@@@@@@@@@@@@@@@@@@@@@@@@@@@@@@@@@..                      ",
        "  ..........     ...@@@@@@@@@@@@@@@@@@@@@@@@@@@@@@@@@@..                     ",
        "    ......      ...........@@@@@@@@@@@@@@@@@@@@@@@@@@@...                    ",
        "      ..        ..............@@@@@@@@@@@@@@@@@@@@@@@@@..                    ",
        "               .................@@@@@@@@@@@@@@@@@@@@@@@...          .....    ",
        "              ....................@@@@@@@@@@@@@@@@@@@@@@..         .......   ",
        "              ......................@@@@@@@@@@@@@@@@@@@@...       ...@@@...  ",
        "              .........................@@@@@@@@@@@@@@@@@@..      ...@@@@@..  ",
        "             ............................@@@@@@@@@@@@@@@@..      ...@@@@@@.. ",
        "  .          .............................@@@@@@@@@@@@@@@@..     ...@@@@@@.. ",
        " ...         ................................@@@@@@@@@@@@@..     ...@@@@@@.. ",
        "  .         ...................................@@@@@@@@@@@@..     ..@@@@@..  ",
        "            .......................................@@@@@@@...     .........  ",
        "            .................................................      .......   ",
        "           ...................................................       ...     ",
        "           ....+++++++++++....................................               ",
        "          ...++++++++++++++++.................................               ",
        "          ..++++++++++++++++++++...............................              ",
        "          ..+++++++++++++++++++++..............................              ",
        "         ...++++++++++++++++++++++++...........................              ",
        "         ...++++++++++++++++++++++++++.........................              ",
        "         ..+++++++++++++++++++++++++++++........................             ",
        "         ..+++++++++++++++++++++++++++++++......................        ..   ",
        "         ..+++++++++++++++++++++++++++++++++....................       ...   ",
        "        ...++++++++++++++++++++++++++++++++++++.................        ..   ",
        "        ...+++++++++++++++++++++++++++++++++++++++..........++..             ",
        "        ...+++++++++++++++++++++++++++++++++++++++++++++++++++...            ",
        "        ..+++++++......++++++++++++++++++++++++++++++++++++++++..            ",
        "        ..++++..............+++++++++++++++++++++++++++++++++++..            ",
        "        ..++..................+++++++++++++++++++++++++++++++++..            ",
        "        .......@@@@@@@@@@@......+++++++++++++++++++++++++++++++..            ",
        "       .....@@@@@@@@@@@@@@@@@.....+++++++++++++++++++++++++++++..            ",
        "   ..  ....@@@@@@@@@@@@@@@@@@@@@.....++++++++++++++++++++++++++..            ",
        "   ..  ...@@@@@@@@@@@@@@@@@@@@@@@@.....++++++++++++++++++++++++...           ",
        "   ..  ..@@@@@@@@@@@@@@@@@@@@@@@@@@@.....+++++++++++++++++++++++.            ",
        "       ..@@@@@@@@@@@@@@@@@@@@@@@@@@@@@.....+++++++++++++++++++++.            ",
        "       ..@@@@@@@@@@@@@@@@@@@@@@@@@@@@@@@.....++++++++++++++++++..            ",
        "       ...@@@@@@@@@@@@@@@@@@@@@@@@@@@@@@@@@.....++++++++++++++...            ",
        "       ...@@@@@@.........@@@@@@@@@@@@@@@@@@@@........+++++.......            ",
        "        ..@@@...............@@@@@@@@@@@@@@@@@@@..................            ",
        "        ..@@..................@@@@@@@@@@@@@@@@@@@@..........@@@..            ",
        "        .........................@@@@@@@@@@@@@@@@@@@@@@@@@@@@@@..            ",
        "        ...........................@@@@@@@@@@@@@@@@@@@@@@@@@@@...            ",
        "        .............................@@@@@@@@@@@@@@@@@@@@@@@@@..             ",
        "         ..............................@@@@@@@@@@@@@@@@@@@@@@@..             ",
        "         ................................@@@@@@@@@@@@@@@@@@@@...             ",
        "         ..................................@@@@@@@@@@@@@@@@@@..              ",
        "          ....................................@@@@@@@@@@@@@@...              ",
        "          .......................................@@@@@@@@@@@..               ",
        "           ...........................................@@......               ",
        "            .................................................                ",
        "            ................................................                 ",
        "             ...............................................                 ",
        "              .............................................                  ",
        "               ...........................................                   ",
        "               .....+....................................                    ",
        "       .         ...+++++++.............................          +++        ",
        "      ...         ...+++++++++.........................           +++        ",
        "       .           ....+++++++++......................                       ",
        "                    .....+++++++++..................                         ",
        "                      .....+++++++++...............                          ",
        "                        ......++++++++...........                            ",
        "                          .....................                              ",
        "                              .............                                  ",
        "                                    .                                        "
    
};

