/* XPM */
XPM_TYPE* XmasBulb[] = {

    "40 57 6 1",

    "  c None",
    "@ c black",
    "w c white",
    "- c #a8a8a8",
    "% c #dbdbdb",
    ", c #b4b4b4",

        "                                        ",
        "                                        ",
        "                   @@@@@@@@@@           ",
        "                 @@@@@@@@@@@@@@@        ",
        "                 @@@@wwwww@@@@@@@@      ",
        "                @@@@@wwwwwww@@@@@@@     ",
        "                @@@@ww@@@wwwww@@@@@     ",
        "               @@@@wwwwww@@@wwww@@@@    ",
        "               @@@wwwwwwwww@@@www@@@    ",
        "              @@@@www@@@wwwwww@@ww@@    ",
        "              @@@wwwwwww@@@wwwwwww@@    ",
        "             @@@wwwwwwwwwww@@@wwww@@    ",
        "             @@@wwwwwwwwwwwww@@@ww@@    ",
        "           @@@@@@@@@@@@wwwwwwwwwww@@    ",
        "         @@@@@@@@@@@@@@@@@wwwwwwww@@    ",
        "        @@@@@%%%%%%%%%@@@@@@wwwww@@@    ",
        "        @@@@@%%%%%%%%%%%@@@@@wwww@@     ",
        "       @@@@%%%%%%%%%%%%%%%%@@@www@@     ",
        "      @@@@%%%----%%%%%%%%%%%@@@@@@@     ",
        "      @@@%%%%-----%%%%%%%%%%%%@@@@      ",
        "      @@@%%%------%%%%%%%%%%%%%@@@@     ",
        "     @@@@%%%------%%%%%%%%%%%%%%@@@     ",
        "     @@@%%%-------%%%%%%%%%%%%%%@@@@    ",
        "     @@@%%%-------%%%%%%%%%%%%%%%@@@    ",
        "     @@@%%%-------%%%%%%%%%%,,%%%@@@    ",
        "     @@@%%--------%%%%%%%%,,,,,%%@@@    ",
        "     @@%%%--------%%%%%%,,,,,,%%%@@@    ",
        "    @@@%%%-------%%%%%%,,,,,,,%%%@@@    ",
        "    @@@%%%------%%%%%%,,,,,@@%%%@@@@    ",
        "    @@@%%%-----%%%%%%,,,,,,@@%%%@@@     ",
        "    @@@%%%%---%%%%%%,,,,,,@@@%%@@@@     ",
        "    @@@%%%%---%%%%%%,,,,,,@@@%%@@@      ",
        "    @@@%%%%%%%%%%%%,,,,,,@@@%%@@@@      ",
        "    @@@%%%%%%%%%%%,,,,,,,@@%%%@@@       ",
        "    @@@%%%%%%%%%%%,,,,,,,@@%%@@@@       ",
        "    @@@%%%%%%%%%%,,,,,,,,,%%%@@@        ",
        "    @@@%%%%%%%%%,,,,,,,,,%%%@@@@        ",
        "    @@@%%%%%%%%,,,,,,@@@%%%@@@@         ",
        "    @@@%%%%%%%%,,,,,@@@@%%@@@@          ",
        "    @@@%%%%%%%,,,,,,@@@%%%@@@@          ",
        "    @@@%%%%%%%,,,,,@@@%%%@@@@           ",
        "    @@@%%%%%%,,,,,@@@%%%@@@@            ",
        "    @@@%%%%%%,,,,@@@@%%@@@@             ",
        "    @@@%%%%%,,,,,@@@%%%@@@@             ",
        "    @@@%%%%%,,,,@@@%%%@@@@              ",
        "    @@@%%%%,,,,@@@%%%@@@@               ",
        "    @@@%%%%,,,@@@@%%@@@@                ",
        "    @@@%%%%,,,@@@%%@@@@                 ",
        "     @@@%%%,,,@@%%@@@@                  ",
        "     @@@%%%,,,@%%@@@@                   ",
        "     @@@@%%%,%%%@@@@                    ",
        "      @@@%%%%%@@@@@                     ",
        "      @@@@%%%@@@@@                      ",
        "       @@@@@@@@@                        ",
        "        @@@@@@@                         ",
        "                                        ",
        "                                        "
    
};

