/* XPM */
XPM_TYPE* XmasWreathBulb[] = {

    "79 85 6 1",

    "  c None",
    "b c black",
    "@ c white",
    "+ c #a8a8a8",
    ". c #dbdbdb",
    "# c #b4b4b4",

        "               .........                                 .........             ",
        "              ....++........                          .......+.....            ",
        "             ...+++++++.......                     ......++++++++...           ",
        "            ...+++++++++++......                 ......+++++++++++...          ",
        "           ...+++++++++++++++.....     ...     .....+++++++++++++++..          ",
        "           ..++++++++++++++++++...................+++++++++++++++++...         ",
        "           ..++++++++++++++++++++......@@@......++++++++++++++++++++..         ",
        "          ...+++++++++++++++++++++...@@@@@@....+++++++++++++++++++++...        ",
        "          ..++++++++++++++++++++++..@@@@@@@@@..+++++++++++++++++++++...        ",
        "          ..+++++++++++++++++++++...@@@@@@@@@..++++++++++++++++++++++..        ",
        "          ..+++++++++++++++++++++..@@@@@@@@@@@..+++++++++++++++++++++..        ",
        "          ..+++++++++++++++++++++..@@@@@@@@@@@..+++++++++++++++++++++..        ",
        "          ..+++++++++++++++++++++..@@@@@@@@@@@..+++++++++++++++++++++..        ",
        "          ..+++++++++++++++++++++..@@@@@@@@@@@..+++++++++++++++++++++..        ",
        "          ..+++++++++++++++++++++..@@@@@@@@@@@..+++++++++++++++++++++..        ",
        "          ..+++++++++++++++++++++...@@@@@@@@@..++++++++++++++++++++++..        ",
        "          ...+++++++++++++++++++++..@@@@@@@@...+++++++++++++++++++++...        ",
        "          ...+++++++++++++++++++++....@@@@@....+++++++++++++++++++++..         ",
        "           ..++++++++++++++++++++...............++++++++++++++++++++..         ",
        "           ...+++++++++++++++++...................+++++++++++++++++...         ",
        "           ...+++++++++++++++.....#####...#####.....+++++++++++++++...         ",
        "           ....+++++++++++.......###############.......+++++++++++....         ",
        "          ......+++++++..........###############..........+++++++......        ",
        "          ..##.............++...#################..+++.............#...        ",
        "          ..###.........+++++..###################..+++++.........###..        ",
        "         ..####.....++++++++...###################..+++++++++.....###...       ",
        "         ..####.....++++++++..####################...++++++++.....####..       ",
        "         ..####.....++++++++..#####################..++++++++.....####..       ",
        "         ..#####.....+++++++..#####...........#####..+++++++.....#####..       ",
        "         ..######....+++++++..###...............###..+++++++....######..       ",
        "         ..########...++++++..#.....         .....#..++++++...#######...       ",
        "         ...########...+++++.....               .....+++++...########..        ",
        "          ..#########....+++...                   ...+++....#########..        ",
        "          ...#########........                     .......##########...        ",
        "         ....###########......                     ......###########....       ",
        "       .....#############.....                     .....#############....      ",
        "      ....###############..                           ..###############....    ",
        "     ...################..                             ..################...   ",
        "    ...################...                             ..#################...  ",
        "   ...#################..                               ..#################..  ",
        "   ..##################..                               ..##################.. ",
        "  ...#################...                               ...#################.. ",
        "  ..#####...##########..                                 ..#########....#####..",
        "  ..###.......########..                                 ..########.......###..",
        " ...###...@...########..                                 ..#######....@...###..",
        " ...##...@@@@..#######..                                 ..#######..@@@@...##..",
        " ...##..@@@@@..#######..                                 ..#######..@@@@@..##..",
        " ...##...@@@@..#######..                                 ..#######..@@@@...##..",
        "  ..##....@...########..                                 ..########...@...###..",
        "  ..###.......########..                                 ..########......####..",
        "  ..#####...##########..                                 ..#########....#####..",
        "   ..#################...                               ..##################.. ",
        "   ..##################..                               ..#################... ",
        "    ..#################..                              ...################...  ",
        "     ...################..                             ..################...   ",
        "     ....###############...                           ...###############....   ",
        "       ....##############..                          ...##############....     ",
        "        .....#############..                        ...#############.....      ",
        "          ...#############...                      ...##############...        ",
        "          ..###############....                   ...###############...        ",
        "          ..################....                 ...#################..        ",
        "         ..###################....             ....##################...       ",
        "         ..#####################......    .......#####################..       ",
        "         ..######....#############.............############.....######..       ",
        "         ..#####.......###############.....###############.......#####..       ",
        "         ..####...@@@..##################################...@@@...####..       ",
        "         ..####..@@@@...#################################...@@@@..###...       ",
        "          ..###..@@@@@..#################################..@@@@@..###..        ",
        "          ..###..@@@@...#################################...@@@...###..        ",
        "          ...##........###################################...@....##...        ",
        "           ..###......#####################################......###..         ",
        "           ...###....#######################################...####...         ",
        "            ...#######################.....#######################...          ",
        "             ...#####################.......####################....           ",
        "              .....#######....######...@@@...######.....######.....            ",
        "                ..............######..@@@@@..######..............              ",
        "                 .......... ..######..@@@@@..#####... .........                ",
        "                             ..#####...@@@...#####..                           ",
        "                             ...#####.......#####...                           ",
        "                              ...#####.....#####...                            ",
        "                               ...######.######...                             ",
        "                                ...###########...                              ",
        "                                 .....####......                               ",
        "                                   ...........                                 ",
        "                                      .....                                    "
    
};

