/* XPM */
XPM_TYPE* XmasThreeBulb[] = {

    "84 93 6 1",

    "  c None",
    "b c black",
    "w c white",
    "@ c #a8a8a8",
    "+ c #dbdbdb",
    ". c #b4b4b4",

                "                                                                                    ",
                "                                                                                    ",
                "                                                                                    ",
                "                                                                                    ",
                "                                                                                    ",
                "                                                                                    ",
                "              ..                        ++                     @                    ",
                "              ...                      +++                    @@@                   ",
                "              ...                      +++                    @@@                   ",
                "              ...                      +++                    @@@                   ",
                "              ...                      +++                    @@@                   ",
                "              ...                      +++                    @@@                   ",
                "              ...                      +++                    @@@                   ",
                "              ...                      +++                    @@@                   ",
                "              ...                      +++                    @@@                   ",
                "              ...                      +++                    @@@                   ",
                "              ...                      +++              @@@@@@@@@@@@@@@             ",
                "              ...                      +++              @@@@@@@@@@@@@@@@            ",
                "              ...                      +++              @@@@@@@@@@@@@@@@            ",
                "              ...                      +++              @@@+++++++++@@@@            ",
                "              ...                      +++              @@@++++++++++@@@            ",
                "              ...                      +++              @@@+++++++++@@@@            ",
                "              ...                      +++              @@@+++++++++@@@@            ",
                "              ...                      +++              @@@@@@@@@@@@@@@@            ",
                "              ...                      +++             @@@@@@@@@@@@@@@@@            ",
                "              ...                      +++           @@@@@@@@@@@@@@@@@@@@@          ",
                "              ...                      +++          @@@@@@@++++++++++@@@@@@         ",
                "              ...                      +++         @@@@@+++++++++++++++@@@@@@       ",
                "              ...                      +++       @@@@@+++++++++++++++++++@@@@@      ",
                "              ...                      +++       @@@@+++++++++++++++++++++@@@@@     ",
                "              ...                      +++      @@@@+++++++++++++++++++++++@@@@     ",
                "              ...                      +++     @@@@+++++++++++++++++++++++++@@@@    ",
                "              ...                      +++     @@@+++++++++++++++++++++++++++@@@@   ",
                "              ...                      +++    @@@+++++++++++++++++++++++++++++@@@   ",
                "             ....                      +++   @@@@+++++++++++++++++++++++++++++@@@@  ",
                "          ..........                   +++   @@@+++++++++++++++++++++++++++++++@@@  ",
                "         .............                 +++   @@@+++++++++++++++++++++++++++++++@@@@ ",
                "        ..............                 +++  @@@@++++++++++++++++++++++++++++++++@@@ ",
                "        ....@@@@@@....                 +++  @@@@++++++++++++++++++++++++++++++++@@@ ",
                "        ....@@@@@@@...                 +++  @@@+++++++++++++++++++++++++++++++++@@@ ",
                "        ....@@@@@@@...                 +++  @@@+++++++++++++++++++++++++++++++++@@@ ",
                "        ..............                 +++  @@@+++++++++++++++++++++++++++++++++@@@ ",
                "        ...............                +++  @@@+++++++++++++++++++++++++++++++++@@@ ",
                "      ..................               +++  @@@+++++++++++++++++++++++++++++++++@@@ ",
                "     .......@@@@@@@.......             +++  @@@+++++++++++++++++++++++++++++++++@@@ ",
                "    .....@@@@@@@@@@@@......            +++  @@@@++++++++++++++++++++++++++++++++@@@ ",
                "   ....@@@@@@@@@@@@@@@@.....           +++  @@@@++++++++++++++++++++++++++++++++@@@ ",
                "  ....@@@@@@@@@@@@@@@@@@....           +++   @@@+++++++++++++++++++++++++++++++@@@@ ",
                " ....@@@@@@@@@@@@@@@@@@@@....          +++   @@@+++++++++++++++++++++++++++++++@@@  ",
                " ...@@@@@@@@@@@@@@@@@@@@@@....         +++   @@@@+++++++++++++++++++++++++++++@@@@  ",
                "....@@@@@@@@@@@@@@@@@@@@@@@...         +++    @@@+++++++++++++++++++++++++++++@@@   ",
                "...@@@@@@@@@@@@@@@@@@@@@@@@....        +++     @@@+++++++++++++++++++++++++++@@@@   ",
                "...@@@@@@@@@@@@@@@@@@@@@@@@@...        +++     @@@@+++++++++++++++++++++++++@@@@    ",
                "..@@@@@@@@@@@@@@@@@@@@@@@@@@...        +++      @@@@+++++++++++++++++++++++@@@@     ",
                "..@@@@@@@@@@@@@@@@@@@@@@@@@@....       +++       @@@@+++++++++++++++++++++@@@@@     ",
                "..@@@@@@@@@@@@@@@@@@@@@@@@@@@...       +++       @@@@@+++++++++++++++++++@@@@@      ",
                "..@@@@@@@@@@@@@@@@@@@@@@@@@@@...       +++        @@@@@@+++++++++++++++@@@@@@       ",
                "..@@@@@@@@@@@@@@@@@@@@@@@@@@@...       +++          @@@@@@+++++++++++@@@@@@         ",
                "..@@@@@@@@@@@@@@@@@@@@@@@@@@@...     ++++++++        @@@@@@@@@@@@@@@@@@@@@          ",
                "..@@@@@@@@@@@@@@@@@@@@@@@@@@....   +++++++++++         @@@@@@@@@@@@@@@@@            ",
                "..@@@@@@@@@@@@@@@@@@@@@@@@@@....   +++++++++++            @@@@@@@@@@@@              ",
                "...@@@@@@@@@@@@@@@@@@@@@@@@@...    +++++++++++                 @                    ",
                "...@@@@@@@@@@@@@@@@@@@@@@@@@...    +++.....+++                                      ",
                "....@@@@@@@@@@@@@@@@@@@@@@@...     +++++++++++                                      ",
                " ...@@@@@@@@@@@@@@@@@@@@@@....    +++++++++++++                                     ",
                " ....@@@@@@@@@@@@@@@@@@@@@....   ++++++++++++++++                                   ",
                "  ....@@@@@@@@@@@@@@@@@@@....  +++++++.....+++++++                                  ",
                "   ....@@@@@@@@@@@@@@@@@....  +++++...........+++++                                 ",
                "    .....@@@@@@@@@@@@@.....  +++++.............+++++                                ",
                "     ......@@@@@@@@@......   ++++...............++++                                ",
                "      ...................   ++++.................++++                               ",
                "       ................     +++...................+++                               ",
                "          ...........       +++...................++++                              ",
                "                           +++.....................+++                              ",
                "                           +++.....................+++                              ",
                "                           +++.....................+++                              ",
                "                           +++.....................+++                              ",
                "                           +++.....................+++                              ",
                "                           +++.....................+++                              ",
                "                           +++.....................+++                              ",
                "                           ++++...................++++                              ",
                "                            +++...................+++                               ",
                "                            ++++.................++++                               ",
                "                             ++++................+++                                ",
                "                             +++++..............++++                                ",
                "                              +++++...........+++++                                 ",
                "                               ++++++.......++++++                                  ",
                "                                +++++++++++++++++                                   ",
                "                                  +++++++++++++                                     ",
                "                                     ++++++++                                       ",
                "                                                                                    ",
                "                                                                                    ",
                "                                                                                    "
    
};

